SplineFontDB: 3.2
FontName: Nehemiah-Regular
FullName: Nehemiah
FamilyName: Nehemiah
Weight: Regular
Copyright: Copyright 2025 The Nehemiah Project Authors (https://github.com/slavonic/Nehemiah.git)
Version: 2.52
ItalicAngle: 0
UnderlinePosition: -64
UnderlineWidth: 9
Ascent: 800
Descent: 200
InvalidEm: 0
LayerCount: 2
Layer: 0 0 "Back" 1
Layer: 1 0 "Fore" 0
XUID: [1021 156 -1182680201 14574539]
StyleMap: 0x0040
FSType: 0
OS2Version: 2
OS2_WeightWidthSlopeOnly: 0
OS2_UseTypoMetrics: 0
CreationTime: 1186506637
ModificationTime: 1747818526
PfmFamily: 17
TTFWeight: 400
TTFWidth: 5
LineGap: 0
VLineGap: 0
Panose: 2 0 4 0 0 0 0 0 0 0
OS2TypoAscent: 1073
OS2TypoAOffset: 0
OS2TypoDescent: -404
OS2TypoDOffset: 0
OS2TypoLinegap: 0
OS2WinAscent: 1073
OS2WinAOffset: 0
OS2WinDescent: 404
OS2WinDOffset: 0
HheadAscent: 1073
HheadAOffset: 0
HheadDescent: -404
HheadDOffset: 0
OS2SubXSize: 700
OS2SubYSize: 650
OS2SubXOff: 0
OS2SubYOff: 143
OS2SupXSize: 700
OS2SupYSize: 650
OS2SupXOff: 0
OS2SupYOff: 453
OS2StrikeYSize: 50
OS2StrikeYPos: 259
OS2CapHeight: 671
OS2XHeight: 482
OS2Vendor: '    '
OS2CodePages: 00000021.00000000
OS2UnicodeRanges: 00000803.40000000.00000000.00000000

StartChar: .notdef
Encoding: 65536 -1 0
Width: 500
GlyphClass: 2
Flags: W
HStem: 0 62<125 375> 688 62<125 375>
VStem: 62 63<62 688> 375 63<62 688>
LayerCount: 2
Fore
SplineSet
62 0 m 1
 62 750 l 1
 438 750 l 1
 438 0 l 1
 62 0 l 1
125 62 m 1
 375 62 l 1
 375 688 l 1
 125 688 l 1
 125 62 l 1
EndSplineSet
EndChar

StartChar: exclam
Encoding: 33 33 4
Width: 433
GlyphClass: 2
Flags: W
HStem: -8 123<141.564 230.278> 664 20G<164 204.667>
VStem: 123 123<10.5645 96.4358 527.974 672.609>
LayerCount: 2
Fore
SplineSet
245 607 m 2
 208 178 l 1
 160 178 l 1
 124 607 l 2
 124 614 124 614 124 620 c 0
 124 662.666666667 144 684 184 684 c 0
 225.333333333 684 246 662.666666667 246 620 c 0
 245.333333333 616 245 611.666666667 245 607 c 2
246 54 m 0
 246 37.3333333333 239.833333333 22.8333333333 227.5 10.5 c 0
 215.166666667 -1.83333333333 200.666666667 -8 184 -8 c 256
 167.333333333 -8 153 -2 141 10 c 0
 129 22 123 36.6666666667 123 54 c 0
 123 70.6666666667 129 85 141 97 c 0
 153 109 167.333333333 115 184 115 c 256
 200.666666667 115 215.166666667 109 227.5 97 c 0
 239.833333333 85 246 70.6666666667 246 54 c 0
EndSplineSet
EndChar

StartChar: quotedbl
Encoding: 34 34 5
Width: 333
GlyphClass: 2
Flags: W
HStem: 421 293<78 94 239 255>
VStem: 43 85<616.2 709.681> 205 85<616.2 709.681>
LayerCount: 2
Fore
SplineSet
290 665 m 1
 255 421 l 1
 239 421 l 1
 205 665 l 1
 205 697.666666667 219 714 247 714 c 0
 275.666666667 714 290 697.666666667 290 665 c 1
128 665 m 1
 94 421 l 1
 78 421 l 1
 43 665 l 1
 43 697.666666667 57.3333333333 714 86 714 c 0
 114 714 128 697.666666667 128 665 c 1
EndSplineSet
EndChar

StartChar: numbersign
Encoding: 35 35 6
Width: 743
GlyphClass: 2
Flags: W
HStem: 228 50<62 204 276 404 477 638> 421 51<108 269 341 469 542 682>
LayerCount: 2
Fore
SplineSet
682 421 m 1
 525 421 l 1
 477 278 l 1
 638 278 l 1
 638 228 l 1
 460 228 l 1
 375 -23 l 1
 325 -7 l 1
 404 228 l 1
 259 228 l 1
 174 -23 l 1
 124 -6 l 1
 204 228 l 1
 62 228 l 1
 62 278 l 1
 220 278 l 1
 269 421 l 1
 108 421 l 1
 108 472 l 1
 286 472 l 1
 366 708 l 1
 417 692 l 1
 341 472 l 1
 487 472 l 1
 566 708 l 1
 618 692 l 1
 542 472 l 1
 682 472 l 1
 682 421 l 1
469 421 m 1
 324 421 l 1
 276 278 l 1
 421 278 l 1
 469 421 l 1
EndSplineSet
EndChar

StartChar: dollar
Encoding: 36 36 7
Width: 562
GlyphClass: 2
Flags: W
HStem: 0 49<144.276 261 307 359.207> 290 94<308 356.755> 490 21G<423.981 478> 622 49<216.57 262 308 406.187>
VStem: 59 51<152.444 196> 75 93<445.717 568.307> 261 46<-103 1.11914 53 290 397 618 671 743> 415 92<108.575 235.266> 427 51<490 536.375>
LayerCount: 2
Fore
SplineSet
507 190 m 0xf3
 507 134.666666667 482 88 432 50 c 0
 391.333333333 19.3333333333 349.666666667 2.66666666667 307 0 c 1
 307 -103 l 1
 261 -103 l 1
 261 0 l 1
 213 2.66666666667 181.666666667 4.66666666667 167 6 c 0
 124.333333333 10.6666666667 88.3333333333 17.3333333333 59 26 c 1
 59 196 l 1
 110 196 l 1xfb
 128 84 l 1
 147.333333333 60.6666666667 191.666666667 49 261 49 c 1
 261 302 l 1
 137 330.666666667 75 391.333333333 75 484 c 0
 75 538.666666667 96.3333333333 583 139 617 c 0
 172.333333333 643.666666667 213.333333333 660.666666667 262 668 c 1
 262 743 l 1
 308 743 l 1
 308 671 l 1
 361.333333333 671 418 663.333333333 478 648 c 1
 478 490 l 1
 427 490 l 1xf680
 411 596 l 1
 395.666666667 613.333333333 361.333333333 622 308 622 c 1
 308 384 l 1
 371.333333333 365.333333333 415.333333333 347 440 329 c 0
 484.666666667 296.333333333 507 250 507 190 c 0xf3
262 397 m 1
 262 618 l 1
 199.333333333 604.666666667 168 566.666666667 168 504 c 0xf6
 168 456 199.333333333 420.333333333 262 397 c 1
415 171 m 0xf3
 415 227.666666667 379 267.333333333 307 290 c 1
 307 53 l 1
 379 65.6666666667 415 105 415 171 c 0xf3
EndSplineSet
EndChar

StartChar: percent
Encoding: 37 37 8
Width: 860
GlyphClass: 2
Flags: W
HStem: -12 38<633.21 717.535> 0 21G<187 262.638> 264 38<142.554 227.361> 370 38<634.465 717.535> 646 38<142.662 227.029> 651 20G<599.332 674>
VStem: 32 75<355.867 593.905> 262 77<355.867 593.905> 522 76<78.0952 317.905> 753 77<78.0952 317.905>
LayerCount: 2
Fore
SplineSet
830 198 m 256xb3c0
 830 136 817.333333333 86 792 48 c 0
 764.666666667 7.33333333333 726 -12.6666666667 676 -12 c 0
 626.666666667 -12 588 8 560 48 c 0
 534.666666667 86 522 136 522 198 c 256
 522 260 534.666666667 310 560 348 c 0
 587.333333333 388.666666667 626 408.666666667 676 408 c 256
 726 408 764.666666667 388 792 348 c 0
 817.333333333 310 830 260 830 198 c 256xb3c0
674 671 m 1x77c0
 250 0 l 1
 187 0 l 1
 612 671 l 1
 674 671 l 1x77c0
339 474 m 256
 339 412 326.333333333 362.333333333 301 325 c 0
 273.666666667 284.333333333 235.333333333 264 186 264 c 0
 136 264 97.3333333333 284.333333333 70 325 c 0
 44.6666666667 362.333333333 32 412 32 474 c 256
 32 536 44.6666666667 586 70 624 c 0
 97.3333333333 664.666666667 136 684.666666667 186 684 c 0x3bc0
 235.333333333 684 273.666666667 664 301 624 c 0
 326.333333333 586 339 536 339 474 c 256
753 198 m 0
 753 312.666666667 727.333333333 370 676 370 c 0
 624 370 598 312.666666667 598 198 c 0
 598 83.3333333333 624 26 676 26 c 0xb3c0
 727.333333333 26 753 83.3333333333 753 198 c 0
262 474 m 0
 262 588.666666667 236.666666667 646 186 646 c 0x3bc0
 133.333333333 646 107 588.666666667 107 474 c 0
 107 359.333333333 133.333333333 302 186 302 c 0
 236.666666667 302 262 359.333333333 262 474 c 0
EndSplineSet
EndChar

StartChar: ampersand
Encoding: 38 38 9
Width: 712
GlyphClass: 2
Flags: W
HStem: -12 65<224.338 364.156> 0 43<604 693> 321 42<475 522.25 634.182 680> 635 49<224.042 343.032>
VStem: 53 101<124.403 271.294> 103 90<471.917 597.742> 377 92<452.357 599.667>
LayerCount: 2
Fore
SplineSet
693 0 m 1x76
 509 0 l 1x76
 509 24 l 1
 464 74 l 1
 428 46 399.333333333 26.6666666667 378 16 c 0
 341.333333333 -2.66666666667 302.333333333 -12 261 -12 c 0
 203.666666667 -12 154.666666667 7 114 45 c 0
 73.3333333333 83 53 130 53 186 c 0xba
 53 266 97.6666666667 324.666666667 187 362 c 1
 131 418 103 469 103 515 c 0
 103 564.333333333 121 604.833333333 157 636.5 c 0
 193 668.166666667 238.333333333 684 293 684 c 0
 343.666666667 684 385.666666667 669.666666667 419 641 c 0
 452.333333333 612.333333333 469 576.333333333 469 533 c 0
 469 489 453.666666667 451.666666667 423 421 c 0
 401 399 367.333333333 378 322 358 c 1
 490 177 l 1
 522 218.333333333 540.666666667 257.333333333 546 294 c 0
 546 297.333333333 544.166666667 301.166666667 540.5 305.5 c 0
 536.833333333 309.833333333 533 312.333333333 529 313 c 2
 475 321 l 1
 475 363 l 1
 680 363 l 1
 680 321 l 1
 608 310 l 1
 592.666666667 254 564.333333333 197.666666667 523 141 c 1
 604 48 l 1
 693 43 l 1
 693 0 l 1x76
377 527 m 0
 377 557.666666667 369.333333333 582.666666667 354 602 c 0
 337.333333333 624 313.666666667 635 283 635 c 0
 256.333333333 635 234.666666667 626 218 608 c 0
 201.333333333 590 193 567.666666667 193 541 c 0
 193 512.333333333 204 483.666666667 226 455 c 0
 234 444.333333333 254 423.333333333 286 392 c 1
 346.666666667 422.666666667 377 467.666666667 377 527 c 0
432 109 m 1
 226 333 l 1
 178 299 154 257.666666667 154 209 c 0
 154 164.333333333 168 127.166666667 196 97.5 c 0
 224 67.8333333333 258.333333333 53 299 53 c 0xba
 344.333333333 53 388.666666667 71.6666666667 432 109 c 1
EndSplineSet
EndChar

StartChar: quotesingle
Encoding: 39 39 10
Width: 170
GlyphClass: 2
Flags: W
HStem: 421 293<78 94>
VStem: 43 85<616.2 709.681>
LayerCount: 2
Fore
SplineSet
128 665 m 1
 94 421 l 1
 78 421 l 1
 43 665 l 1
 43 697.666666667 57 714 85 714 c 0
 113.666666667 714 128 697.666666667 128 665 c 1
EndSplineSet
EndChar

StartChar: parenleft
Encoding: 40 40 11
Width: 537
GlyphClass: 2
Flags: W
HStem: -182 57<426.5 494> 861 57<426.5 494>
VStem: 131 119<155.734 580.648>
LayerCount: 2
Fore
SplineSet
494 -182 m 1
 368 -168 274 -107.333333333 212 -0 c 0
 158 93.3333333333 131 216 131 368 c 256
 131 520.666666667 158 643.666666667 212 737 c 0
 274 844.333333333 368 904.666666667 494 918 c 1
 494 861 l 1
 407.333333333 847 344.333333333 796.666666667 305 710 c 0
 268.333333333 630.666666667 250 516.666666667 250 368 c 0
 250 219.333333333 268.333333333 105.333333333 305 26 c 0
 344.333333333 -60.6666666667 407.333333333 -111 494 -125 c 1
 494 -182 l 1
EndSplineSet
EndChar

StartChar: parenright
Encoding: 41 41 12
Width: 537
GlyphClass: 2
Flags: W
HStem: -182 57<43 110.509> 861 57<43 110.509>
VStem: 287 120<155.485 580.399>
LayerCount: 2
Fore
SplineSet
407 368 m 0
 407 215.333333333 380 92.6666666667 326 -0 c 0
 264 -106.666666667 169.666666667 -167.333333333 43 -182 c 1
 43 -125 l 1
 129.666666667 -111 192.666666667 -60.6666666667 232 26 c 0
 268.666666667 105.333333333 287 219.333333333 287 368 c 0
 287 516.666666667 268.666666667 630.666666667 232 710 c 0
 192.666666667 796 129.666666667 846.333333333 43 861 c 1
 43 918 l 1
 169 904 263.333333333 843.666666667 326 737 c 0
 380 643 407 520 407 368 c 0
EndSplineSet
EndChar

StartChar: asterisk
Encoding: 42 42 13
Width: 503
GlyphClass: 2
Flags: W
HStem: 572 93<99.625 119.679 373.5 394.5>
VStem: 202 90<708.459 744.422>
LayerCount: 2
Fore
SplineSet
461 642 m 1
 412 580 l 1
 272 572 l 1
 267 587 l 1
 384 665 l 1
 461 642 l 1
292 734 m 1
 255 599 l 1
 239 599 l 1
 202 734 l 1
 247 801 l 1
 292 734 l 1
379 389 m 1
 304 417 l 1
 254 547 l 1
 266 557 l 1
 376 469 l 1
 379 389 l 1
228 587 m 1
 223 572 l 1
 82 580 l 1
 32 642 l 1
 109 665 l 1
 228 587 l 1
240 547 m 1
 190 417 l 1
 115 389 l 1
 118 469 l 1
 228 557 l 1
 240 547 l 1
EndSplineSet
EndChar

StartChar: plus
Encoding: 43 43 14
Width: 833
GlyphClass: 2
Flags: W
HStem: 0 21G<388 445> 269 57<119 388 445 714>
VStem: 388 57<0 269 326 594>
LayerCount: 2
Fore
SplineSet
714 269 m 1
 445 269 l 1
 445 0 l 1
 388 0 l 1
 388 269 l 1
 119 269 l 1
 119 326 l 1
 388 326 l 1
 388 594 l 1
 445 594 l 1
 445 326 l 1
 714 326 l 1
 714 269 l 1
EndSplineSet
EndChar

StartChar: comma
Encoding: 44 44 15
Width: 210
GlyphClass: 2
Flags: W
HStem: -64 232
VStem: 101 88<-6 99.853>
LayerCount: 2
Fore
SplineSet
189 73 m 0
 189 45.6666666667 174 15 144 -19 c 0
 117.333333333 -49 98.6666666667 -64 88 -64 c 0
 84.6666666667 -64 82.1666666667 -63.3333333333 80.5 -62 c 0
 78.8333333333 -60.6666666667 78 -57.6666666667 78 -53 c 0
 78 -50.3333333333 81.8333333333 -43.8333333333 89.5 -33.5 c 0
 97.1666666667 -23.1666666667 101 -12 101 0 c 0
 101 27.3333333333 74.6666666667 52.3333333333 22 75 c 1
 40 86.3333333333 58.6666666667 101.666666667 78 121 c 0
 96 139.666666667 108 155.333333333 114 168 c 1
 164 140.666666667 189 109 189 73 c 0
EndSplineSet
EndChar

StartChar: hyphenminus
Encoding: 45 45 16
Width: 320
GlyphClass: 2
Flags: W
HStem: 203 75<44 276>
VStem: 44 232<203 278>
LayerCount: 2
Fore
SplineSet
276 203 m 1
 44 203 l 1
 44 278 l 1
 276 278 l 1
 276 203 l 1
EndSplineSet
EndChar

StartChar: period
Encoding: 46 46 17
Width: 289
GlyphClass: 2
Flags: W
HStem: -12 186
VStem: 52 184
LayerCount: 2
Fore
SplineSet
236 81 m 1
 196.666666667 57 166 26 144 -12 c 1
 122 26.6666666667 91.3333333333 57.6666666667 52 81 c 1
 91.3333333333 103.666666667 122 134.666666667 144 174 c 1
 166 134.666666667 196.666666667 103.666666667 236 81 c 1
EndSplineSet
EndChar

StartChar: slash
Encoding: 47 47 18
Width: 500
GlyphClass: 2
Flags: W
LayerCount: 2
Fore
SplineSet
500 731 m 1
 65 -50 l 1
 0 -50 l 1
 435 731 l 1
 500 731 l 1
EndSplineSet
EndChar

StartChar: zero
Encoding: 48 48 19
Width: 554
GlyphClass: 2
Flags: W
HStem: -12 49<215.807 338.665> 624 49<215.807 338.665>
VStem: 39 104<169.721 488.47> 412 104<169.721 488.47>
LayerCount: 2
Fore
SplineSet
516 331 m 0
 516 231 496.333333333 150.333333333 457 89 c 0
 414.333333333 21.6666666667 354.333333333 -12 277 -12 c 0
 200.333333333 -12 140.666666667 21.6666666667 98 89 c 0
 58.6666666667 150.333333333 39 231 39 331 c 0
 39 430.333333333 58.6666666667 510.666666667 98 572 c 0
 140.666666667 639.333333333 200.333333333 673 277 673 c 0
 354.333333333 673 414.333333333 639.333333333 457 572 c 0
 496.333333333 510.666666667 516 430.333333333 516 331 c 0
412 331 m 0
 412 526.333333333 367 624 277 624 c 0
 187.666666667 624 143 526.333333333 143 331 c 0
 143 135 187.666666667 37 277 37 c 0
 367 37 412 135 412 331 c 0
EndSplineSet
EndChar

StartChar: one
Encoding: 49 49 20
Width: 554
GlyphClass: 2
Flags: W
HStem: 0 44<106 227.749 325.263 440> 563 44<75 97.5909> 653 20G<223.455 325>
VStem: 228 97<48.0002 589>
LayerCount: 2
Fore
SplineSet
440 0 m 1
 106 0 l 1
 106 44 l 1
 207 48 l 2
 221 48.6666666667 228 56 228 70 c 2
 228 589 l 1
 75 563 l 1
 75 607 l 1
 288 673 l 1
 325 673 l 1
 325 70 l 2
 325 56 332.333333333 48.6666666667 347 48 c 2
 440 44 l 1
 440 0 l 1
EndSplineSet
EndChar

StartChar: two
Encoding: 50 50 21
Width: 554
GlyphClass: 2
Flags: W
HStem: 0 83<150 442> 620 53<168.275 329.16>
VStem: 60 107<482 594.669> 391 106<399.108 557.845> 460 48<134.944 168>
LayerCount: 2
Fore
SplineSet
508 0 m 1xe8
 47 0 l 1
 47 66 l 1
 181 177.333333333 263.333333333 249.333333333 294 282 c 0
 358.666666667 350.666666667 391 415.333333333 391 476 c 0
 391 520.666666667 377 556.333333333 349 583 c 0
 323 607.666666667 290 620 250 620 c 0
 231.333333333 620 212.333333333 616.666666667 193 610 c 0
 184.333333333 606.666666667 175.666666667 603 167 599 c 1
 167 489 l 1
 153.666666667 478.333333333 137.666666667 473 119 473 c 0
 79.6666666667 473 60 492 60 530 c 0
 60 571.333333333 81.6666666667 605.666666667 125 633 c 0
 167 659.666666667 217.666666667 673 277 673 c 0
 341.666666667 673 394.5 655.833333333 435.5 621.5 c 0
 476.5 587.166666667 497 541.666666667 497 485 c 0xf0
 497 423.666666667 461.333333333 356.666666667 390 284 c 0
 354 247.333333333 274 180.333333333 150 83 c 1
 442 83 l 1
 460 168 l 1
 508 168 l 1
 508 0 l 1xe8
EndSplineSet
EndChar

StartChar: three
Encoding: 51 51 22
Width: 554
GlyphClass: 2
Flags: W
HStem: -12 50<168.919 333.346> 313 56<199.876 319.977> 484 21G<113 126> 619 54<167.823 328.889>
VStem: 63 101<496.503 599.068> 383 100<430.208 567.466> 407 101<110.232 259.84>
LayerCount: 2
Fore
SplineSet
508 188 m 0xfa
 508 129.333333333 483.166666667 81.3333333333 433.5 44 c 0
 383.833333333 6.66666666667 322.666666667 -12 250 -12 c 0
 188.666666667 -12 138.333333333 0.666666666667 99 26 c 0
 64.3333333333 48 47 72.6666666667 47 100 c 0
 47 114.666666667 52 127.333333333 62 138 c 0
 72 148.666666667 86.3333333333 154 105 154 c 0
 121 154 132 151.666666667 138 147 c 1
 168 59 l 1
 194 45 222.333333333 38 253 38 c 0
 297 38 334 53 364 83 c 0
 392.666666667 111.666666667 407 146.666666667 407 188 c 0xfa
 407 231.333333333 390.333333333 264.333333333 357 287 c 0
 330.333333333 304.333333333 297.666666667 313 259 313 c 0
 237.666666667 313 217.666666667 311.333333333 199 308 c 1
 199 370 l 1
 201 369.333333333 209.333333333 369 224 369 c 0
 268.666666667 369 305.333333333 379 334 399 c 0
 366 421.666666667 382.333333333 453.333333333 383 494 c 0
 383 533.333333333 369.666666667 564.333333333 343 587 c 0
 318.333333333 608.333333333 288.333333333 619 253 619 c 0
 221 619 191.333333333 611 164 595 c 1
 164 497 l 1
 146.666666667 488.333333333 132 484 120 484 c 0
 106 484 93.6666666667 488 83 496 c 0
 69.6666666667 506.666666667 63 521.333333333 63 540 c 0
 63 577.333333333 84.6666666667 609 128 635 c 0
 170 660.333333333 221 673 281 673 c 0
 339.666666667 673 387.666666667 658.333333333 425 629 c 0
 463.666666667 598.333333333 483 557.666666667 483 507 c 0xfc
 483 430.333333333 432.666666667 377.333333333 332 348 c 1
 378.666666667 346 418.333333333 332.666666667 451 308 c 0
 489 278.666666667 508 238.666666667 508 188 c 0xfa
EndSplineSet
EndChar

StartChar: four
Encoding: 52 52 23
Width: 554
GlyphClass: 2
Flags: W
HStem: 196 67<117 339 432 516> 653 20G<346.205 432>
VStem: 339 93<-12 196 263 547>
LayerCount: 2
Fore
SplineSet
516 196 m 1
 432 196 l 1
 432 -12 l 1
 339 -12 l 1
 339 196 l 1
 39 196 l 1
 39 264 l 1
 362 673 l 1
 432 673 l 1
 432 263 l 1
 516 263 l 1
 516 196 l 1
339 263 m 1
 339 547 l 1
 117 263 l 1
 339 263 l 1
EndSplineSet
EndChar

StartChar: five
Encoding: 53 53 24
Width: 554
GlyphClass: 2
Flags: W
HStem: -12 48<174.371 330.97> 353 63<161.238 335.114> 578 83<154 464>
VStem: 83 71<391 578> 409 101<113.772 280.106>
LayerCount: 2
Fore
SplineSet
510 214 m 0
 510 145.333333333 486.333333333 91 439 51 c 0
 389.666666667 9 320.666666667 -12 232 -12 c 0
 182.666666667 -12 138.666666667 0.333333333333 100 25 c 0
 63.3333333333 48.3333333333 45 73.3333333333 45 100 c 0
 45 137.333333333 65.3333333333 156 106 156 c 0
 116 156 125 154.666666667 133 152 c 1
 171 61 l 1
 187.666666667 44.3333333333 213 36 247 36 c 0
 295.666666667 36 335.666666667 53 367 87 c 0
 395 117 409 151.333333333 409 190 c 0
 409 243.333333333 393 284.333333333 361 313 c 0
 331 339.666666667 291 353 241 353 c 0
 201 353 148.333333333 341.666666667 83 319 c 1
 83 661 l 1
 464 661 l 1
 464 578 l 1
 154 578 l 1
 154 391 l 1
 149.333333333 391 163.333333333 395.166666667 196 403.5 c 0
 228.666666667 411.833333333 258.666666667 416 286 416 c 0
 355.333333333 416 410 398.166666667 450 362.5 c 0
 490 326.833333333 510 277.333333333 510 214 c 0
EndSplineSet
EndChar

StartChar: six
Encoding: 54 54 25
Width: 554
GlyphClass: 2
Flags: W
HStem: -12 51<204.922 351.415> 367 64<210.369 355.71> 613 60<292.283 434>
VStem: 39 102<135.512 321.459> 416 100<120.638 305.338>
LayerCount: 2
Fore
SplineSet
516 226 m 0
 516 155.333333333 492.666666667 97.6666666667 446 53 c 0
 400.666666667 9.66666666667 344 -12 276 -12 c 0
 204.666666667 -12 148.666666667 10.3333333333 108 55 c 0
 62 105 39 181 39 283 c 0
 39 402.333333333 73.6666666667 496.666666667 143 566 c 0
 213.666666667 636.666666667 310.666666667 672.333333333 434 673 c 1
 434 612 l 1
 400 613 l 2
 336 615 280.333333333 594.333333333 233 551 c 0
 184.333333333 505.666666667 155.333333333 444.666666667 146 368 c 1
 194 410 249 431 311 431 c 0
 372.333333333 431 421.833333333 411.666666667 459.5 373 c 0
 497.166666667 334.333333333 516 285.333333333 516 226 c 0
416 213 m 0
 416 261.666666667 403.5 299.5 378.5 326.5 c 0
 353.5 353.5 319.333333333 367 276 367 c 256
 232.666666667 367 188.333333333 350.333333333 143 317 c 1
 141.666666667 303 141 285 141 263 c 0
 141 113.666666667 186 39 276 39 c 0
 321.333333333 39 356.666666667 55.6666666667 382 89 c 0
 404.666666667 120.333333333 416 161.666666667 416 213 c 0
EndSplineSet
EndChar

StartChar: seven
Encoding: 55 55 26
Width: 554
GlyphClass: 2
Flags: W
HStem: 487 21G<41 95.2967> 578 83<107 411>
VStem: 41 51<487 529.467>
LayerCount: 2
Fore
SplineSet
514 606 m 1
 190 21 l 1
 190 -12 l 1
 86 -12 l 1
 411 578 l 1
 107 578 l 1
 92 487 l 1
 41 487 l 1
 41 661 l 1
 514 661 l 1
 514 606 l 1
EndSplineSet
EndChar

StartChar: eight
Encoding: 56 56 27
Width: 554
GlyphClass: 2
Flags: W
HStem: -12 54<190.866 359.79> 623 50<207.479 348.361>
VStem: 40 91<101.21 256.09> 66 97<451.626 579.601> 397 90<429.358 574.472> 415 100<95.2844 226.632>
LayerCount: 2
Fore
SplineSet
515 180 m 0xc4
 515 124.666666667 492.333333333 78.8333333333 447 42.5 c 0
 401.666666667 6.16666666667 345 -12 277 -12 c 0
 205 -12 147.5 5.5 104.5 40.5 c 0
 61.5 75.5 40 121.333333333 40 178 c 0xe4
 40 252.666666667 86.6666666667 307.333333333 180 342 c 1
 148.666666667 355.333333333 123 373.333333333 103 396 c 0
 78.3333333333 424 66 456 66 492 c 0
 66 547.333333333 85.3333333333 591.666666667 124 625 c 0
 162.666666667 657 213.666666667 673 277 673 c 0
 337 673 387 657.5 427 626.5 c 0
 467 595.5 487 556 487 508 c 0xd8
 487 439.333333333 447.333333333 386 368 348 c 1
 466 312 515 256 515 180 c 0xc4
397 499 m 0xd8
 397 538.333333333 385 569 361 591 c 0
 339 612.333333333 311 623 277 623 c 0
 243.666666667 623 216.333333333 612.5 195 591.5 c 0
 173.666666667 570.5 163 545 163 515 c 0
 163 481.666666667 177.333333333 453 206 429 c 0
 231.333333333 407.666666667 271 386.666666667 325 366 c 1
 373 400.666666667 397 445 397 499 c 0xd8
415 164 m 0xe4
 415 200.666666667 397.666666667 230.666666667 363 254 c 0
 342.333333333 268 294.333333333 290 219 320 c 1
 160.333333333 288 131 243 131 185 c 0
 131 141.666666667 143.333333333 107.333333333 168 82 c 0
 194 55.3333333333 230.333333333 42 277 42 c 0
 318.333333333 42 352 54 378 78 c 0
 402.666666667 100.666666667 415 129.333333333 415 164 c 0xe4
EndSplineSet
EndChar

StartChar: nine
Encoding: 57 57 28
Width: 554
GlyphClass: 2
Flags: W
HStem: -12 61<120 261.345> 230 64<199.623 344.512> 622 51<202.801 349.637>
VStem: 39 100<355.988 541.889> 414 102<339.65 525.488>
LayerCount: 2
Fore
SplineSet
516 378 m 0
 516 259.333333333 481.333333333 165 412 95 c 0
 341.333333333 23.6666666667 244 -12 120 -12 c 1
 120 49 l 1
 154 48 l 2
 218 46.6666666667 273.333333333 67.3333333333 320 110 c 0
 368.666666667 154.666666667 398.333333333 215.666666667 409 293 c 1
 360.333333333 251 305.333333333 230 244 230 c 0
 182.666666667 230 133.166666667 249.333333333 95.5 288 c 0
 57.8333333333 326.666666667 39 375.666666667 39 435 c 0
 39 505.666666667 62 563.333333333 108 608 c 0
 153.333333333 651.333333333 210 673 278 673 c 0
 350 673 406.333333333 650.666666667 447 606 c 0
 493 556 516 480 516 378 c 0
414 398 m 0
 414 547.333333333 368.666666667 622 278 622 c 0
 232.666666667 622 197.666666667 605.333333333 173 572 c 0
 150.333333333 541.333333333 139 500 139 448 c 0
 139 400 151.333333333 362.333333333 176 335 c 0
 200.666666667 307.666666667 234.666666667 294 278 294 c 0
 322.666666667 294 367.333333333 310.666666667 412 344 c 1
 413.333333333 358 414 376 414 398 c 0
EndSplineSet
EndChar

StartChar: colon
Encoding: 58 58 29
Width: 292
GlyphClass: 2
Flags: W
HStem: -8 134<100.596 193.889> 348 134<100.596 193.889>
VStem: 81 133<12.1115 105.889 368.111 461.889>
LayerCount: 2
Fore
SplineSet
214 415 m 256
 214 396.333333333 207.5 380.5 194.5 367.5 c 0
 181.5 354.5 165.666666667 348 147 348 c 256
 128.333333333 348 112.666666667 354.5 100 367.5 c 0
 87.3333333333 380.5 81 396.333333333 81 415 c 0
 81 433.666666667 87.3333333333 449.5 100 462.5 c 0
 112.666666667 475.5 128.333333333 482 147 482 c 256
 165.666666667 482 181.5 475.5 194.5 462.5 c 0
 207.5 449.5 214 433.666666667 214 415 c 256
214 59 m 256
 214 40.3333333333 207.5 24.5 194.5 11.5 c 0
 181.5 -1.5 165.666666667 -8 147 -8 c 256
 128.333333333 -8 112.666666667 -1.5 100 11.5 c 0
 87.3333333333 24.5 81 40.3333333333 81 59 c 256
 81 77.6666666667 87.3333333333 93.5 100 106.5 c 0
 112.666666667 119.5 128.333333333 126 147 126 c 0
 165.666666667 126 181.5 119.5 194.5 106.5 c 0
 207.5 93.5 214 77.6666666667 214 59 c 256
EndSplineSet
EndChar

StartChar: semicolon
Encoding: 59 59 30
Width: 289
GlyphClass: 2
Flags: W
VStem: 127 89<-6 99.2432>
LayerCount: 2
Fore
SplineSet
232 315 m 1
 194 293 163.666666667 262.333333333 141 223 c 1
 118.333333333 261.666666667 87.6666666667 292.333333333 49 315 c 1
 87.6666666667 337 118.333333333 368 141 408 c 1
 164.333333333 367.333333333 194.666666667 336.333333333 232 315 c 1
216 72 m 0
 216 45.3333333333 201 15 171 -19 c 0
 144.333333333 -49 126 -64 116 -64 c 0
 108.666666667 -64 105 -60.3333333333 105 -53 c 0
 105 -50.3333333333 108.666666667 -43.8333333333 116 -33.5 c 0
 123.333333333 -23.1666666667 127 -12 127 0 c 0
 127 27.3333333333 101 52.3333333333 49 75 c 1
 67.6666666667 86.3333333333 86.1666666667 101.5 104.5 120.5 c 0
 122.833333333 139.5 135 155.333333333 141 168 c 1
 191 140.666666667 216 108.666666667 216 72 c 0
EndSplineSet
EndChar

StartChar: less
Encoding: 60 60 31
Width: 833
GlyphClass: 2
Flags: W
LayerCount: 2
Fore
SplineSet
704 37 m 1
 129 272 l 1
 129 323 l 1
 704 559 l 1
 704 497 l 1
 216 298 l 1
 704 100 l 1
 704 37 l 1
EndSplineSet
EndChar

StartChar: equal
Encoding: 61 61 32
Width: 833
GlyphClass: 2
Flags: W
HStem: 176 57<124 709> 363 57<124 709>
LayerCount: 2
Fore
SplineSet
709 363 m 1
 124 363 l 1
 124 420 l 1
 709 420 l 1
 709 363 l 1
709 176 m 1
 124 176 l 1
 124 233 l 1
 709 233 l 1
 709 176 l 1
EndSplineSet
EndChar

StartChar: greater
Encoding: 62 62 33
Width: 833
GlyphClass: 2
Flags: W
LayerCount: 2
Fore
SplineSet
704 272 m 1
 129 37 l 1
 129 100 l 1
 617 298 l 1
 129 497 l 1
 129 559 l 1
 704 323 l 1
 704 272 l 1
EndSplineSet
EndChar

StartChar: question
Encoding: 63 63 34
Width: 522
GlyphClass: 2
Flags: W
HStem: -8 128<182.08 271.404> 656 51<199 290.902>
VStem: 163 128<11.5955 100.404> 196 58<183 306.516> 346 105<432.883 600.79>
LayerCount: 2
Fore
SplineSet
451 522 m 0xd8
 451 464.666666667 428 415.333333333 382 374 c 0
 353.333333333 348 310.666666667 322.333333333 254 297 c 1
 254 183 l 1
 196 183 l 1
 196 332 l 1
 236.666666667 345.333333333 270 365.333333333 296 392 c 0
 329.333333333 426 346 466.333333333 346 513 c 0
 346 608.333333333 297 656 199 656 c 1
 156 550 l 1
 139 549 l 1
 94.3333333333 549 72 567.666666667 72 605 c 0
 72 632.333333333 85.3333333333 655.333333333 112 674 c 0
 142 696 183.333333333 707 236 707 c 0
 298 707 349 690.333333333 389 657 c 0
 430.333333333 622.333333333 451 577.333333333 451 522 c 0xd8
291 55 m 0xe8
 291 37.6666666667 284.5 22.8333333333 271.5 10.5 c 0
 258.5 -1.83333333333 243.333333333 -8 226 -8 c 256
 208.666666667 -8 193.833333333 -1.66666666667 181.5 11 c 0
 169.166666667 23.6666666667 163 38.6666666667 163 56 c 256
 163 73.3333333333 169.166666667 88.3333333333 181.5 101 c 0
 193.833333333 113.666666667 208.666666667 120 226 120 c 0
 244 120 259.333333333 113.666666667 272 101 c 0
 284.666666667 88.3333333333 291 73 291 55 c 0xe8
EndSplineSet
EndChar

StartChar: at
Encoding: 64 64 35
Width: 936
GlyphClass: 2
Flags: W
HStem: -153 50<364.739 614.022> 56 57<597 706.749> 57 64<391.43 469.901> 450 42<457.712 571.469> 647 44<401.743 655.851>
VStem: 76 72<119.357 389.501> 276 91<146.211 329.938> 545 79<117.298 139 159.102 219.698> 819 48<247.373 487.948>
LayerCount: 2
Fore
SplineSet
867 373 m 0xdf80
 867 279 839 201 783 139 c 0
 733.666666667 83.6666666667 680.333333333 56 623 56 c 0xdf80
 571 56 545 83.6666666667 545 139 c 1
 490.333333333 84.3333333333 442.333333333 57 401 57 c 0xbf80
 364.333333333 57 334.333333333 71.8333333333 311 101.5 c 0
 287.666666667 131.166666667 276 170.666666667 276 220 c 0
 276 294.666666667 301.666666667 359.333333333 353 414 c 0
 403 466.666666667 460 492.666666667 524 492 c 0
 556.666666667 492 589.333333333 483 622 465 c 1
 640 488 l 1
 697 488 l 1
 693.666666667 478 670.666666667 379 628 191 c 0
 625.333333333 179 624 168.333333333 624 159 c 0
 624 128.333333333 637.666666667 113 665 113 c 0
 699 113 732 136.333333333 764 183 c 0
 800.666666667 236.333333333 819 299.333333333 819 372 c 0
 819 460.666666667 789.666666667 530 731 580 c 0
 679 624.666666667 614.666666667 647 538 647 c 0
 424.666666667 647 331.333333333 610 258 536 c 0
 184.666666667 462 148 369 148 257 c 0
 148 152.333333333 178.666666667 66.6666666667 240 0 c 0
 304 -69.3333333333 390 -103.666666667 498 -103 c 0
 585.333333333 -103 673.333333333 -78.3333333333 762 -29 c 1
 777 -65 l 1
 667 -123.666666667 566 -153 474 -153 c 0
 362.666666667 -153 269.666666667 -118 195 -48 c 0
 115.666666667 25.3333333333 76 121 76 239 c 0
 76 379 123 491.333333333 217 576 c 0
 302.333333333 652.666666667 405.333333333 691 526 691 c 0
 628 691 709.666666667 663.666666667 771 609 c 0
 835 552.333333333 867 473.666666667 867 373 c 0xdf80
588 393 m 2
 590 403 585 414.666666667 573 428 c 0
 559.666666667 442.666666667 545 450 529 450 c 0
 480.333333333 450 441 428.333333333 411 385 c 0
 382.333333333 343.666666667 367.666666667 291.666666667 367 229 c 0
 367 157 393.333333333 121 446 121 c 0xbf80
 479.333333333 121 513.333333333 142.666666667 548 186 c 1
 588 393 l 2
EndSplineSet
EndChar

StartChar: A
Encoding: 65 65 36
Width: 664
GlyphClass: 2
Flags: W
HStem: 0 43<0 33.8333 142 201 426 494 624.625 664> 248 48<212 407> 659 20G<283.532 373.619>
LayerCount: 2
Fore
SplineSet
664 0 m 1
 426 0 l 1
 426 43 l 1
 484 48 l 2
 486.666666667 48 489.333333333 50.1666666667 492 54.5 c 0
 494.666666667 58.8333333333 495.333333333 62.3333333333 494 65 c 2
 426 248 l 1
 194 248 l 1
 128 68 l 2
 128 67.3333333333 127.666666667 66.3333333333 127 65 c 0
 127 54.3333333333 132 48.6666666667 142 48 c 2
 201 43 l 1
 201 0 l 1
 0 0 l 1
 0 43 l 1
 58 55 l 1
 291 679 l 1
 366 679 l 1
 598 70 l 2
 600.666666667 62.6666666667 603 58 605 56 c 0
 607 54 611.666666667 52.3333333333 619 51 c 2
 664 43 l 1
 664 0 l 1
407 296 m 1
 308 566 l 1
 212 296 l 1
 407 296 l 1
EndSplineSet
EndChar

StartChar: B
Encoding: 66 66 37
Width: 608
GlyphClass: 2
Flags: W
HStem: 0 49<32 106 207.369 392.927> 322 46<206 354.763> 625 46<32 105.979 206 364.819>
VStem: 106 100<50.833 316 369 622> 417 108<430.955 576.984> 457 109<105.988 267.823>
LayerCount: 2
Fore
SplineSet
566 198 m 0xf4
 566 125.333333333 537 72.3333333333 479 39 c 0
 435 13 379.333333333 0 312 0 c 2
 32 0 l 1
 32 43 l 1
 85 47 l 2
 99 47.6666666667 106 55 106 69 c 2
 106 602 l 2
 106 616 99 623.333333333 85 624 c 2
 32 628 l 1
 32 671 l 1
 300 671 l 2
 450 671 525 617.333333333 525 510 c 0xf8
 525 432 477 380.666666667 381 356 c 1
 432.333333333 356 474.333333333 344.333333333 507 321 c 0
 546.333333333 293.666666667 566 252.666666667 566 198 c 0xf4
417 503 m 0
 417 584.333333333 365.666666667 625 263 625 c 0
 255 625 243.833333333 624.5 229.5 623.5 c 0
 215.166666667 622.5 207.333333333 622 206 622 c 1
 206 369 l 1
 223.333333333 368.333333333 235.333333333 368 242 368 c 0
 304.666666667 368 350 379.666666667 378 403 c 0
 404 425 417 458.333333333 417 503 c 0
457 190 m 0xf4
 457 278 403.333333333 322 296 322 c 0
 282.666666667 322 264.333333333 321 241 319 c 0
 206 316 206 316 206 316 c 1
 206 52 l 1
 235.333333333 50 256 49 268 49 c 0
 336.666666667 49 385.666666667 60.6666666667 415 84 c 0
 443 106 457 141.333333333 457 190 c 0xf4
EndSplineSet
EndChar

StartChar: C
Encoding: 67 67 38
Width: 632
GlyphClass: 2
Flags: W
HStem: -12 55<301.349 503.919> 491 21G<527.703 591> 627 56<294.404 497.896>
VStem: 42 115<206.736 469.573> 533 58<151.826 185 491 528.471>
LayerCount: 2
Fore
SplineSet
591 23 m 1
 532.333333333 -0.333333333333 465.666666667 -12 391 -12 c 0
 283.666666667 -12 197.333333333 23.3333333333 132 94 c 0
 72 159.333333333 42 240.333333333 42 337 c 0
 42 440.333333333 74.1666666667 523.833333333 138.5 587.5 c 0
 202.833333333 651.166666667 287.333333333 683 392 683 c 0
 448.666666667 683 515 671.333333333 591 648 c 1
 591 491 l 1
 531 491 l 1
 516 582 l 2
 514.666666667 592.666666667 509 600.333333333 499 605 c 0
 468.333333333 619.666666667 434.333333333 627 397 627 c 0
 326.333333333 627 269.333333333 603 226 555 c 0
 180 504.333333333 157 432.666666667 157 340 c 256
 157 247.333333333 179.5 174.666666667 224.5 122 c 0
 269.5 69.3333333333 331.333333333 43 410 43 c 0
 442.666666667 43 469.666666667 47.3333333333 491 56 c 0
 501.666666667 60 508 66.6666666667 510 76 c 2
 533 185 l 1
 591 185 l 1
 591 23 l 1
EndSplineSet
EndChar

StartChar: D
Encoding: 68 68 39
Width: 698
GlyphClass: 2
Flags: W
HStem: 0 43<32 106.656 207 388.245> 623 48<32 107 207 403.78>
VStem: 107 100<48.0781 622.922> 544 113<203.385 469.448>
LayerCount: 2
Fore
SplineSet
657 337 m 0
 657 240.333333333 630.666666667 162.333333333 578 103 c 0
 517.333333333 34.3333333333 428 0 310 0 c 2
 32 0 l 1
 32 43 l 1
 85 47 l 2
 99.6666666667 47.6666666667 107 55 107 69 c 2
 107 602 l 2
 107 616 99.6666666667 623.333333333 85 624 c 2
 32 628 l 1
 32 671 l 1
 290 671 l 2
 400.666666667 671 488 644 552 590 c 0
 622 532 657 447.666666667 657 337 c 0
544 335 m 0
 544 527 457.333333333 623 284 623 c 2
 207 623 l 1
 207 48 l 1
 289 49 l 2
 459 51 544 146.333333333 544 335 c 0
EndSplineSet
EndChar

StartChar: E
Encoding: 69 69 40
Width: 584
GlyphClass: 2
Flags: W
HStem: 0 49<32 107 207 480.266> 324 50<207 377.422> 623 48<32 107 207 444.438>
VStem: 107 100<49.1445 324 374 622.922> 386 51<237 290.667 406.333 460> 458 60<522 563> 497 55<126.235 167>
LayerCount: 2
Fore
SplineSet
552 0 m 1xfa
 32 0 l 1
 32 43 l 1
 85 47 l 2
 99.6666666667 47.6666666667 107 55 107 69 c 2
 107 602 l 2
 107 616 99.6666666667 623.333333333 85 624 c 2
 32 628 l 1
 32 671 l 1
 518 671 l 1
 518 522 l 1
 458 522 l 1xfc
 444 604 l 2
 442 616.666666667 436 623 426 623 c 2
 207 623 l 1
 207 374 l 1
 359 374 l 2
 369.666666667 374 375.666666667 379.666666667 377 391 c 2
 386 460 l 1
 437 460 l 1
 437 237 l 1
 386 237 l 1
 377 306 l 2
 375.666666667 318 369.666666667 324 359 324 c 2
 207 324 l 1
 207 49 l 1
 462 49 l 2
 472 49 478 55.3333333333 480 68 c 2
 497 167 l 1
 552 167 l 1
 552 0 l 1xfa
EndSplineSet
EndChar

StartChar: F
Encoding: 70 70 41
Width: 541
GlyphClass: 2
Flags: W
HStem: 0 43<39 112.672 213.328 301> 313 49<213 385.422> 622 49<31 113 213 444.438>
VStem: 113 100<47.0002 313 362 621.855> 394 50<225 279.444 395.556 450> 458 59<512 558>
LayerCount: 2
Fore
SplineSet
517 512 m 1
 458 512 l 1
 444 604 l 2
 442 616 436.333333333 622 427 622 c 2
 213 622 l 1
 213 362 l 1
 367 362 l 2
 377 362 383 368 385 380 c 2
 394 450 l 1
 444 450 l 1
 444 225 l 1
 394 225 l 1
 385 295 l 2
 383.666666667 307 377.666666667 313 367 313 c 2
 213 313 l 1
 213 69 l 2
 213 55 220 47.6666666667 234 47 c 2
 301 43 l 1
 301 0 l 1
 39 0 l 1
 39 43 l 1
 92 47 l 2
 106 47.6666666667 113 55 113 69 c 2
 113 602 l 2
 113 616 106 623.333333333 92 624 c 2
 31 628 l 1
 31 671 l 1
 517 671 l 1
 517 512 l 1
EndSplineSet
EndChar

StartChar: G
Encoding: 71 71 42
Width: 698
GlyphClass: 2
Flags: W
HStem: -12 56<300.892 500.063> 281 43<412 499.672 622 673> 491 21G<536.444 600> 627 56<292.648 503.376>
VStem: 42 114<208.115 470.314> 500 101<55 276> 540 60<491 530.375>
LayerCount: 2
Fore
SplineSet
673 281 m 1xfc
 622 276 l 2
 608 274.666666667 601 267.666666667 601 255 c 2
 601 24 l 1xfc
 527.666666667 0 457.666666667 -12 391 -12 c 0
 283.666666667 -12 197.666666667 23 133 93 c 0
 72.3333333333 159 42 240.333333333 42 337 c 0
 42 442.333333333 74.5 526.333333333 139.5 589 c 0
 204.5 651.666666667 292.666666667 683 404 683 c 0
 458 683 523.333333333 673 600 653 c 1
 600 491 l 1
 540 491 l 1xfa
 524 581 l 2
 522 592.333333333 515.333333333 600.333333333 504 605 c 0
 470 619.666666667 435.333333333 627 400 627 c 0
 326 627 267.333333333 602.666666667 224 554 c 0
 178.666666667 503.333333333 156 432.666666667 156 342 c 0
 156 247.333333333 179.333333333 173.666666667 226 121 c 0
 271.333333333 69.6666666667 333.333333333 44 412 44 c 0
 430 44 449.5 45.8333333333 470.5 49.5 c 0
 491.5 53.1666666667 501.333333333 55 500 55 c 1
 500 255 l 2
 500 268.333333333 493 275.333333333 479 276 c 2
 412 281 l 1
 412 324 l 1
 673 324 l 1
 673 281 l 1xfc
EndSplineSet
EndChar

StartChar: H
Encoding: 72 72 43
Width: 743
GlyphClass: 2
Flags: W
HStem: 0 43<32 105.656 207.328 285 459 536.672 637.344 711> 327 50<207 537> 627 44<32 105.866 207.128 285 459 536.872 637.134 711>
VStem: 106 101<47.0002 327 377 623> 537 100<47.0002 327 377 623>
LayerCount: 2
Fore
SplineSet
711 0 m 1
 459 0 l 1
 459 43 l 1
 516 47 l 2
 530 47.6666666667 537 55 537 69 c 2
 537 327 l 1
 207 327 l 1
 207 69 l 2
 207 55 214 47.6666666667 228 47 c 2
 285 43 l 1
 285 0 l 1
 32 0 l 1
 32 43 l 1
 84 47 l 2
 98.6666666667 47.6666666667 106 55 106 69 c 2
 106 602 l 2
 106 615.333333333 98.6666666667 622.333333333 84 623 c 2
 32 627 l 1
 32 671 l 1
 285 671 l 1
 285 627 l 1
 228 623 l 2
 214 622.333333333 207 615.333333333 207 602 c 2
 207 377 l 1
 537 377 l 1
 537 602 l 2
 537 615.333333333 530 622.333333333 516 623 c 2
 459 627 l 1
 459 671 l 1
 711 671 l 1
 711 627 l 1
 659 623 l 2
 644.333333333 622.333333333 637 615.333333333 637 602 c 2
 637 69 l 2
 637 55 644.333333333 47.6666666667 659 47 c 2
 711 43 l 1
 711 0 l 1
EndSplineSet
EndChar

StartChar: I
Encoding: 73 73 44
Width: 330
GlyphClass: 2
Flags: W
HStem: 0 43<33 113.672 215.328 297> 627 44<33 113.872 215.128 297>
VStem: 114 101<46.9375 623.062>
LayerCount: 2
Fore
SplineSet
297 0 m 1
 33 0 l 1
 33 43 l 1
 93 47 l 2
 107 47.6666666667 114 55 114 69 c 2
 114 602 l 2
 114 615.333333333 107 622.333333333 93 623 c 2
 33 627 l 1
 33 671 l 1
 297 671 l 1
 297 627 l 1
 236 623 l 2
 222 622.333333333 215 615.333333333 215 602 c 2
 215 69 l 2
 215 55 222 47.6666666667 236 47 c 2
 297 43 l 1
 297 0 l 1
EndSplineSet
EndChar

StartChar: J
Encoding: 74 74 45
Width: 479
GlyphClass: 2
Flags: W
HStem: -12 51<107.405 224.668> 628 43<196 279.672 380.328 459>
VStem: 25 60<144.182 183> 280 100<110.368 624.062>
LayerCount: 2
Fore
SplineSet
459 628 m 1
 401 624 l 2
 387 623.333333333 380 616 380 602 c 2
 380 253 l 2
 380 166.333333333 363.666666667 101.333333333 331 58 c 0
 295.666666667 11.3333333333 238.666666667 -12 160 -12 c 0
 118.666666667 -12 73.6666666667 -4 25 12 c 1
 25 183 l 1
 85 183 l 1
 107 61 l 2
 109.666666667 46.3333333333 125 39 153 39 c 0
 197.666666667 39 230 55.8333333333 250 89.5 c 0
 270 123.166666667 280 175.333333333 280 246 c 2
 280 602 l 2
 280 616 273 623.333333333 259 624 c 2
 196 628 l 1
 196 671 l 1
 459 671 l 1
 459 628 l 1
EndSplineSet
EndChar

StartChar: K
Encoding: 75 75 46
Width: 638
GlyphClass: 2
Flags: W
HStem: 0 43<32 105.672 207.344 286 566 638> 298 42<208 243> 628 43<32 105.672 207.344 286 402 460.906 554.5 614>
VStem: 106 101<47.0002 298 340 624>
LayerCount: 2
Fore
SplineSet
638 0 m 1
 463 0 l 1
 463 31 l 1
 277 298 l 1
 208 298 l 1
 207 69 l 2
 207 55 214.333333333 47.6666666667 229 47 c 2
 286 43 l 1
 286 0 l 1
 32 0 l 1
 32 43 l 1
 85 47 l 2
 99 47.6666666667 106 55 106 69 c 2
 106 602 l 2
 106 616 99 623.333333333 85 624 c 2
 32 628 l 1
 32 671 l 1
 286 671 l 1
 286 628 l 1
 229 624 l 2
 214.333333333 623.333333333 207 616 207 602 c 2
 208 340 l 1
 243 340 l 1
 461 606 l 2
 463 608.666666667 463 612.333333333 461 617 c 0
 459 621 456.333333333 623 453 623 c 2
 402 628 l 1
 402 671 l 1
 614 671 l 1
 614 628 l 1
 546 620 l 1
 342 376 l 1
 566 48 l 1
 638 43 l 1
 638 0 l 1
EndSplineSet
EndChar

StartChar: L
Encoding: 76 76 47
Width: 525
GlyphClass: 2
Flags: W
HStem: 0 49<27 106 207 439.5> 628 43<27 105.672 207.344 282>
VStem: 106 101<49.1445 624> 455 58<133.5 186>
LayerCount: 2
Fore
SplineSet
513 0 m 1
 27 0 l 1
 27 43 l 1
 85 47 l 2
 99 47.6666666667 106 55 106 69 c 2
 106 602 l 2
 106 616 99 623.333333333 85 624 c 2
 27 628 l 1
 27 671 l 1
 282 671 l 1
 282 628 l 1
 229 624 l 2
 214.333333333 623.333333333 207 616 207 602 c 2
 207 49 l 1
 417 49 l 2
 430.333333333 49 437.666666667 54.6666666667 439 66 c 2
 455 186 l 1
 513 186 l 1
 513 0 l 1
EndSplineSet
EndChar

StartChar: M
Encoding: 77 77 48
Width: 871
GlyphClass: 2
Flags: W
HStem: 0 43<29 106.672 166.344 245 593 667.656 765.344 841> 624 47<29 107 765 841>
VStem: 107 59<47.0002 610.745> 668 97<47.0002 619.887>
LayerCount: 2
Fore
SplineSet
841 0 m 1
 593 0 l 1
 593 43 l 1
 646 47 l 2
 660.666666667 47.6666666667 668 55 668 69 c 2
 668 620 l 1
 438 0 l 1
 388 0 l 1
 166 611 l 1
 166 69 l 2
 166 55 173.333333333 47.6666666667 188 47 c 2
 245 43 l 1
 245 0 l 1
 29 0 l 1
 29 43 l 1
 86 47 l 2
 100 47.6666666667 107 55 107 69 c 2
 107 602 l 2
 107 616 100 623.333333333 86 624 c 2
 29 628 l 1
 29 671 l 1
 253 671 l 1
 253 644 l 1
 434 153 l 1
 615 641 l 1
 615 671 l 1
 841 671 l 1
 841 628 l 1
 787 624 l 2
 772.333333333 623.333333333 765 616 765 602 c 2
 765 69 l 2
 765 55 772.333333333 47.6666666667 787 47 c 2
 841 43 l 1
 841 0 l 1
EndSplineSet
EndChar

StartChar: N
Encoding: 78 78 49
Width: 715
GlyphClass: 2
Flags: W
HStem: 0 43<27 105.656 165.328 243> 628 43<25 105.656 478 555.672 615.328 692>
VStem: 106 59<47.0002 560> 556 59<143 624.062>
LayerCount: 2
Fore
SplineSet
692 628 m 1
 636 624 l 2
 622 623.333333333 615 616 615 602 c 2
 615 0 l 1
 537 0 l 1
 165 560 l 1
 165 69 l 2
 165 55 172 47.6666666667 186 47 c 2
 243 43 l 1
 243 0 l 1
 27 0 l 1
 27 43 l 1
 84 47 l 2
 98.6666666667 47.6666666667 106 55 106 69 c 2
 106 602 l 2
 106 616 98.6666666667 623.333333333 84 624 c 2
 25 628 l 1
 25 671 l 1
 223 671 l 1
 223 646 l 1
 556 143 l 1
 556 602 l 2
 556 616 549 623.333333333 535 624 c 2
 478 628 l 1
 478 671 l 1
 692 671 l 1
 692 628 l 1
EndSplineSet
EndChar

StartChar: O
Encoding: 79 79 50
Width: 735
GlyphClass: 2
Flags: W
HStem: -16 55<279.294 456.945> 631 57<278.757 457.26>
VStem: 42 115<200.51 469.795> 579 116<203.12 468.88>
LayerCount: 2
Fore
SplineSet
695 335 m 0
 695 236.333333333 665 153.666666667 605 87 c 0
 543.666666667 18.3333333333 465 -16 369 -16 c 0
 271.666666667 -16 192.666666667 17.3333333333 132 84 c 0
 72 150 42 234 42 336 c 0
 42 436 71.3333333333 519 130 585 c 0
 191.333333333 653.666666667 270.666666667 688 368 688 c 0
 465.333333333 688 544.666666667 653.333333333 606 584 c 0
 665.333333333 517.333333333 695 434.333333333 695 335 c 0
579 334 m 0
 579 420 561.666666667 489.666666667 527 543 c 0
 489 601 436.333333333 630.333333333 369 631 c 0
 299.666666667 631 246.333333333 601.666666667 209 543 c 0
 174.333333333 489.666666667 157 420.666666667 157 336 c 0
 157 250.666666667 174.333333333 181 209 127 c 0
 247 68.3333333333 299.666666667 39 367 39 c 0
 435.666666667 39 489 68.3333333333 527 127 c 0
 561.666666667 181 579 250 579 334 c 0
EndSplineSet
EndChar

StartChar: P
Encoding: 80 80 51
Width: 564
GlyphClass: 2
Flags: W
HStem: 0 43<32 106.656 208.328 295> 251 50<208 364.528> 622 49<25 107 208 364.922>
VStem: 107 101<47.0002 255 306 621> 436 104<371.196 555.365>
LayerCount: 2
Fore
SplineSet
540 469 m 0
 540 398.333333333 514.666666667 343.666666667 464 305 c 0
 416.666666667 269 355 251 279 251 c 0
 243.666666667 251 220 252.333333333 208 255 c 1
 208 69 l 2
 208 55 215 47.6666666667 229 47 c 2
 295 43 l 1
 295 0 l 1
 32 0 l 1
 32 43 l 1
 85 47 l 2
 99.6666666667 47.6666666667 107 55 107 69 c 2
 107 602 l 2
 107 616 99.6666666667 623.333333333 85 624 c 2
 25 628 l 1
 25 671 l 1
 264 671 l 2
 360.666666667 671 430.333333333 655.666666667 473 625 c 0
 517.666666667 593.666666667 540 541.666666667 540 469 c 0
436 468 m 0
 436 570.666666667 377 622 259 622 c 0
 247 622 230 621.666666667 208 621 c 1
 208 306 l 1
 208 306 208 306 230.5 303.5 c 0
 245.5 301.833333333 256.666666667 301 264 301 c 0
 378.666666667 300.333333333 436 356 436 468 c 0
EndSplineSet
EndChar

StartChar: Q
Encoding: 81 81 52
Width: 742
GlyphClass: 2
Flags: W
HStem: -176 49<473.351 659.032> -8 50<304 320 427 461.952> 632 56<281.311 462.604>
VStem: 42 117<200.591 469.912> 320 107<-82.625 -6.74805> 585 118<199.053 469.162>
LayerCount: 2
Fore
SplineSet
703 335 m 0
 703 244.333333333 678.666666667 168 630 106 c 0
 580 44 512.333333333 6 427 -8 c 1
 427.666666667 -87.3333333333 473.666666667 -127 565 -127 c 0
 597 -127 629 -123.333333333 661 -116 c 1
 661 -159 l 1
 609 -170.333333333 559.666666667 -176 513 -176 c 0
 384.333333333 -176 320 -120.666666667 320 -10 c 1
 237.333333333 2 171 38 121 98 c 0
 68.3333333333 160.666666667 42 239.666666667 42 335 c 0
 42 435 71.6666666667 518.333333333 131 585 c 0
 193 653.666666667 273 688 371 688 c 0
 470.333333333 688 551 653.666666667 613 585 c 0
 673 519 703 435.666666667 703 335 c 0
585 335 m 0
 585 419.666666667 568 488.666666667 534 542 c 0
 496 601.333333333 442 631.333333333 372 632 c 0
 302.666666667 632 249 602.666666667 211 544 c 0
 176.333333333 490.666666667 159 421.666666667 159 337 c 0
 159 253.666666667 176.666666667 184.666666667 212 130 c 0
 250.666666667 71.3333333333 304 42 372 42 c 0
 440.666666667 42 494.333333333 71 533 129 c 0
 567.666666667 183 585 251.666666667 585 335 c 0
EndSplineSet
EndChar

StartChar: R
Encoding: 82 82 53
Width: 649
GlyphClass: 2
Flags: W
HStem: 0 43<33 106.656 208.328 282 583.893 650> 299 48<208 345.096> 622 49<33 107 208 364.581>
VStem: 107 101<47.0002 297 348 621.855> 430 109<411.349 563.54>
LayerCount: 2
Fore
SplineSet
650 1 m 1
 603.333333333 -4.33333333333 581.333333333 -7 584 -7 c 1
 530.666666667 -7 493.166666667 4.66666666667 471.5 28 c 0
 449.833333333 51.3333333333 431.666666667 89.3333333333 417 142 c 0
 401.666666667 197.333333333 386.666666667 234.333333333 372 253 c 0
 348.666666667 283.666666667 309 299 253 299 c 0
 244.333333333 299 234.5 298.666666667 223.5 298 c 0
 212.5 297.333333333 207.333333333 297 208 297 c 1
 208 69 l 2
 208 55 215 47.6666666667 229 47 c 2
 282 43 l 1
 282 0 l 1
 33 0 l 1
 33 43 l 1
 85 47 l 2
 99.6666666667 47.6666666667 107 55 107 69 c 2
 107 602 l 2
 107 616 99.6666666667 623.333333333 85 624 c 2
 33 628 l 1
 33 671 l 1
 294 671 l 2
 457.333333333 671 539 611.666666667 539 493 c 0
 539 406.333333333 484.333333333 350.666666667 375 326 c 1
 415.666666667 316 444.333333333 301.333333333 461 282 c 0
 482.333333333 256.666666667 499 219.666666667 511 171 c 0
 523 122.333333333 537.166666667 88.6666666667 553.5 70 c 0
 569.833333333 51.3333333333 602 42 650 42 c 1
 650 1 l 1
430 489 m 0
 430 577.666666667 371.333333333 622 254 622 c 2
 208 622 l 1
 208 348 l 1
 234.666666667 347.333333333 251.333333333 347 258 347 c 0
 316 347 358.666666667 357.333333333 386 378 c 0
 415.333333333 400.666666667 430 437.666666667 430 489 c 0
EndSplineSet
EndChar

StartChar: S
Encoding: 83 83 54
Width: 529
GlyphClass: 2
Flags: W
HStem: -12 56<132.263 329.851> 629 54<204.91 379.466>
VStem: 44 63<137.154 198> 55 103<456.405 578.912> 385 102<99.5918 216.039> 405 57<497 541.8>
LayerCount: 2
Fore
SplineSet
487 188 m 0xd8
 487 132.666666667 466.333333333 86.6666666667 425 50 c 0
 377.666666667 8.66666666667 310 -12 222 -12 c 0
 155.333333333 -12 96 -1 44 21 c 1
 44 198 l 1
 107 198 l 1
 120 85 l 2
 121.333333333 74.3333333333 127 67 137 63 c 0
 169 50.3333333333 202.666666667 44 238 44 c 0
 281.333333333 44 316.666666667 54 344 74 c 0
 371.333333333 94 385 122 385 158 c 0xe8
 385 192.666666667 364.666666667 224 324 252 c 0
 310.666666667 261.333333333 272.333333333 281 209 311 c 0
 157.666666667 335.666666667 122 357.666666667 102 377 c 0
 71.3333333333 407 55.6666666667 445 55 491 c 0
 55 549 77 596 121 632 c 0
 163.666666667 666 218.666666667 683 286 683 c 0
 340 683 398.666666667 673 462 653 c 1
 462 497 l 1
 405 497 l 1xd4
 390 593 l 2
 389.333333333 599.666666667 384.333333333 605.333333333 375 610 c 1
 356.333333333 622.666666667 327 629 287 629 c 256
 247 629 215.5 618.5 192.5 597.5 c 0
 169.5 576.5 158 549 158 515 c 0
 158 461.666666667 204.333333333 417.666666667 297 383 c 0
 362.333333333 358.333333333 409 332.666666667 437 306 c 0
 470.333333333 274.666666667 487 235.333333333 487 188 c 0xd8
EndSplineSet
EndChar

StartChar: T
Encoding: 84 84 55
Width: 599
GlyphClass: 2
Flags: W
HStem: 0 43<164 248.672 350.328 435> 511 160<16 74 524 583> 622 49<87.3438 249 350 510.656>
VStem: 16 58<511 558> 249 101<47.0002 622> 524 59<511 558>
LayerCount: 2
Fore
SplineSet
583 511 m 1xdc
 524 511 l 1xdc
 510 605 l 2
 508.666666667 616.333333333 503 622 493 622 c 2
 350 622 l 1
 350 69 l 2
 350 55 357 47.6666666667 371 47 c 2
 435 43 l 1
 435 0 l 1
 164 0 l 1
 164 43 l 1
 228 47 l 2
 242 47.6666666667 249 55 249 69 c 2
 249 622 l 1
 105 622 l 2xbc
 95 622 89.3333333333 616.333333333 88 605 c 2
 74 511 l 1
 16 511 l 1
 16 671 l 1
 583 671 l 1
 583 511 l 1xdc
EndSplineSet
EndChar

StartChar: U
Encoding: 85 85 56
Width: 704
GlyphClass: 2
Flags: W
HStem: -12 67<273.689 471.851> 628 43<23 96.6719 204.328 282 466 544.656 604.328 682>
VStem: 97 107<130.822 624.062> 545 59<130.822 624>
LayerCount: 2
Fore
SplineSet
682 628 m 1
 625 624 l 2
 611 623.333333333 604 616 604 602 c 2
 604 222 l 2
 604 66 518 -12 346 -12 c 0
 180 -12 97 66 97 222 c 2
 97 602 l 2
 97 616 90 623.333333333 76 624 c 2
 23 628 l 1
 23 671 l 1
 282 671 l 1
 282 628 l 1
 225 624 l 2
 211 623.333333333 204 616 204 602 c 2
 204 248 l 2
 204 184 215 137.333333333 237 108 c 0
 263.666666667 72.6666666667 309.333333333 55 374 55 c 0
 438.666666667 55 484.333333333 73.3333333333 511 110 c 0
 533.666666667 140 545 186 545 248 c 2
 545 602 l 2
 545 616 537.666666667 623.333333333 523 624 c 2
 466 628 l 1
 466 671 l 1
 682 671 l 1
 682 628 l 1
EndSplineSet
EndChar

StartChar: V
Encoding: 86 86 57
Width: 666
GlyphClass: 2
Flags: W
HStem: 628 43<10 51.3 180.622 249 457 526.594 619.091 656>
LayerCount: 2
Fore
SplineSet
656 628 m 1
 598 617 l 1
 374 -5 l 1
 298 -5 l 1
 261.333333333 92.3333333333 185 300 69 618 c 1
 10 628 l 1
 10 671 l 1
 249 671 l 1
 249 628 l 1
 190 623 l 2
 186.666666667 623 184 620.833333333 182 616.5 c 0
 180 612.166666667 179.666666667 608.333333333 181 605 c 2
 357 117 l 1
 526 603 l 2
 527.333333333 607 526.5 611.333333333 523.5 616 c 0
 520.5 620.666666667 516.666666667 623 512 623 c 2
 457 628 l 1
 457 671 l 1
 656 671 l 1
 656 628 l 1
EndSplineSet
EndChar

StartChar: W
Encoding: 87 87 58
Width: 931
GlyphClass: 2
Flags: W
HStem: 628 43<10 43.8333 179 239 717 780 885.417 921>
LayerCount: 2
Fore
SplineSet
921 628 m 1
 860 616 l 1
 707 -5 l 1
 634 -5 l 1
 467 538 l 1
 303 -5 l 1
 231 -5 l 1
 68 616 l 1
 10 628 l 1
 10 671 l 1
 239 671 l 1
 239 628 l 1
 179 622 l 2
 169 621.333333333 165.666666667 614.666666667 169 602 c 2
 288 157 l 1
 445 671 l 1
 522 671 l 1
 683 146 l 1
 794 602 l 2
 796.666666667 614 792 620.666666667 780 622 c 2
 717 628 l 1
 717 671 l 1
 921 671 l 1
 921 628 l 1
EndSplineSet
EndChar

StartChar: X
Encoding: 88 88 59
Width: 632
GlyphClass: 2
Flags: W
HStem: 0 43<10 45 162 222 367 425 587.833 624> 629 42<23 61.5 223 274 406 457 570.2 615>
LayerCount: 2
Fore
SplineSet
624 0 m 1
 367 0 l 1
 367 43 l 1
 425 49 l 2
 434.333333333 49.6666666667 439 54.3333333333 439 63 c 0
 439 65 438.333333333 67.3333333333 437 70 c 2
 304 279 l 1
 150 67 l 2
 142 55.6666666667 146 49.3333333333 162 48 c 2
 222 43 l 1
 222 0 l 1
 10 0 l 1
 10 43 l 1
 70 55 l 1
 271 331 l 1
 89 617 l 1
 23 629 l 1
 23 671 l 1
 274 671 l 1
 274 629 l 1
 223 624 l 2
 207.666666667 622.666666667 203.666666667 616 211 604 c 2
 333 415 l 1
 468 601 l 2
 470 603.666666667 471 606.333333333 471 609 c 0
 471 616.333333333 466.333333333 620.666666667 457 622 c 2
 406 629 l 1
 406 671 l 1
 615 671 l 1
 615 629 l 1
 551 619 l 1
 365 363 l 1
 562 55 l 1
 624 43 l 1
 624 0 l 1
EndSplineSet
EndChar

StartChar: Y
Encoding: 89 89 60
Width: 625
GlyphClass: 2
Flags: W
HStem: 0 43<176 259.656 360.328 445> 629 42<10 43.8333 197 247 412 468 577.2 615>
VStem: 260 100<47.0002 270>
LayerCount: 2
Fore
SplineSet
615 629 m 1
 561 619 l 1
 360 285 l 1
 360 69 l 2
 360 55 367 47.6666666667 381 47 c 2
 445 43 l 1
 445 0 l 1
 176 0 l 1
 176 43 l 1
 238 47 l 2
 252.666666667 47.6666666667 260 55 260 69 c 2
 260 270 l 1
 68 617 l 1
 10 629 l 1
 10 671 l 1
 247 671 l 1
 247 629 l 1
 197 624 l 2
 183 622.666666667 179 616 185 604 c 2
 325 342 l 1
 480 601 l 2
 481.333333333 603 482 605.333333333 482 608 c 0
 482 616 477.333333333 620.666666667 468 622 c 2
 412 629 l 1
 412 671 l 1
 615 671 l 1
 615 629 l 1
EndSplineSet
EndChar

StartChar: Z
Encoding: 90 90 61
Width: 586
GlyphClass: 2
Flags: W
HStem: 0 51<164 466.531> 621 50<139.297 417>
VStem: 66 59<511 554.4> 483 59<137.235 185>
LayerCount: 2
Fore
SplineSet
542 0 m 1
 45 0 l 1
 45 44 l 1
 417 621 l 1
 157 621 l 2
 147.666666667 621 142 615.333333333 140 604 c 2
 125 511 l 1
 66 511 l 1
 66 671 l 1
 537 671 l 1
 537 625 l 1
 164 51 l 1
 449 51 l 2
 458.333333333 51 464 57 466 69 c 2
 483 185 l 1
 542 185 l 1
 542 0 l 1
EndSplineSet
EndChar

StartChar: bracketleft
Encoding: 91 91 62
Width: 319
GlyphClass: 2
Flags: W
HStem: -341 21<158 286> 802 21<158 286>
VStem: 85 73<-320 802>
LayerCount: 2
Fore
SplineSet
286 -341 m 1
 85 -341 l 1
 85 823 l 1
 286 823 l 1
 286 802 l 1
 158 802 l 1
 158 -320 l 1
 286 -320 l 1
 286 -341 l 1
EndSplineSet
EndChar

StartChar: backslash
Encoding: 92 92 63
Width: 500
GlyphClass: 2
Flags: W
LayerCount: 2
Fore
SplineSet
500 -50 m 1
 436 -50 l 1
 0 731 l 1
 66 731 l 1
 500 -50 l 1
EndSplineSet
EndChar

StartChar: bracketright
Encoding: 93 93 64
Width: 319
GlyphClass: 2
Flags: W
HStem: -341 21<34 162> 802 21<34 162>
VStem: 162 73<-320 802>
LayerCount: 2
Fore
SplineSet
235 -341 m 1
 34 -341 l 1
 34 -320 l 1
 162 -320 l 1
 162 802 l 1
 34 802 l 1
 34 823 l 1
 235 823 l 1
 235 -341 l 1
EndSplineSet
EndChar

StartChar: asciicircum
Encoding: 94 94 65
Width: 958
GlyphClass: 2
Flags: W
LayerCount: 2
Fore
SplineSet
740 11 m 1
 677 11 l 1
 479 499 l 1
 280 11 l 1
 218 11 l 1
 454 586 l 1
 505 586 l 1
 740 11 l 1
EndSplineSet
EndChar

StartChar: underscore
Encoding: 95 95 66
Width: 500
GlyphClass: 2
Flags: W
HStem: -236 65<0 500>
LayerCount: 2
Fore
SplineSet
500 -236 m 1
 0 -236 l 1
 0 -171 l 1
 500 -171 l 1
 500 -236 l 1
EndSplineSet
EndChar

StartChar: grave
Encoding: 96 96 67
Width: 350
GlyphClass: 2
Flags: W
HStem: 551 182
VStem: 0 232
LayerCount: 2
Fore
SplineSet
232 551 m 1
 175 551 l 1
 23 648 l 2
 7.66666666667 658 0 671.333333333 0 688 c 0
 0 718 15.3333333333 733 46 733 c 0
 65.3333333333 733 82.6666666667 724 98 706 c 2
 232 551 l 1
EndSplineSet
EndChar

StartChar: a
Encoding: 97 97 68
Width: 512
GlyphClass: 2
Flags: W
HStem: -8 59<163.185 259.626> 0 39<431.415 500> 267 38<272.594 337> 447 46<176.444 310.674>
VStem: 42 99<74.271 191.601> 65 110<348.593 432.215> 337 94<81.6123 267 301.331 419.337>
LayerCount: 2
Fore
SplineSet
500 0 m 1x76
 350 0 l 1x76
 337 59 l 1
 275 14.3333333333 220 -8 172 -8 c 0
 134.666666667 -8 104 3.33333333333 80 26 c 0
 54.6666666667 50 42 82.3333333333 42 123 c 0xba
 42 164.333333333 58.3333333333 197 91 221 c 0
 133 251 215 279 337 305 c 1
 337 348 l 2
 337 414 306.666666667 447 246 447 c 0
 219.333333333 447 195.666666667 442.666666667 175 434 c 1
 175 347 l 1
 102 347 l 2
 77.3333333333 347 65 356.666666667 65 376 c 0
 65 414 87.3333333333 443.666666667 132 465 c 0
 170.666666667 483.666666667 217.666666667 493 273 493 c 0
 378.333333333 493 431 443.333333333 431 344 c 2
 431 64 l 2
 431 50 438 42.6666666667 452 42 c 2
 500 39 l 1
 500 0 l 1x76
337 94 m 1
 337 267 l 1
 255 246.333333333 199.666666667 224 171 200 c 0
 151 182.666666667 141 159.333333333 141 130 c 0
 141 108 147.666666667 89.6666666667 161 75 c 0
 175 59 193.333333333 51 216 51 c 0xba
 248.666666667 51 289 65.3333333333 337 94 c 1
EndSplineSet
EndChar

StartChar: b
Encoding: 98 98 69
Width: 549
GlyphClass: 2
Flags: W
HStem: 0 47<178.974 335.051> 434 59<214.572 345.452> 665 33<10 32.9744> 717 20G<72.359 179>
VStem: 86 93<48 425.562 456 665> 415 101<146.074 360.003>
LayerCount: 2
Fore
SplineSet
516 264 m 0
 516 184.666666667 493.333333333 122 448 76 c 0
 398.666666667 25.3333333333 326 0 230 0 c 2
 86 0 l 1
 86 665 l 1
 10 665 l 1
 10 698 l 1
 138 737 l 1
 179 737 l 1
 179 456 l 1
 231 480.666666667 277 493 317 493 c 0
 379.666666667 493 429.333333333 470.333333333 466 425 c 0
 499.333333333 382.333333333 516 328.666666667 516 264 c 0
415 244 m 0
 415 370.666666667 363.666666667 434 261 434 c 0
 235 434 207.666666667 429 179 419 c 1
 179 48 l 1
 178.333333333 48 184.333333333 47.8333333333 197 47.5 c 0
 209.666666667 47.1666666667 220 47 228 47 c 0
 290 47 336 61.6666666667 366 91 c 0
 398.666666667 123 415 174 415 244 c 0
EndSplineSet
EndChar

StartChar: c
Encoding: 99 99 70
Width: 470
GlyphClass: 2
Flags: W
HStem: -8 63<219.296 374.786> 451 42<211.893 323.495>
VStem: 37 102<144.107 354.948> 324 109<350.472 448.172>
LayerCount: 2
Fore
SplineSet
435 41 m 1
 374.333333333 8.33333333333 318 -8 266 -8 c 0
 196.666666667 -8 141.166666667 14.8333333333 99.5 60.5 c 0
 57.8333333333 106.166666667 37 165.333333333 37 238 c 0
 37 318.666666667 61 382.333333333 109 429 c 0
 153.666666667 471.666666667 210 493 278 493 c 0
 323.333333333 493 360.333333333 484.333333333 389 467 c 0
 418.333333333 449 433 424.333333333 433 393 c 0
 433 374.333333333 427.166666667 360 415.5 350 c 0
 403.833333333 340 390 335 374 335 c 0
 357.333333333 335 340.666666667 340.333333333 324 351 c 1
 324 439 l 1
 310 447 296 451 282 451 c 0
 238 451 203.166666667 432.333333333 177.5 395 c 0
 151.833333333 357.666666667 139 309.666666667 139 251 c 0
 139 193 153 146.333333333 181 111 c 0
 210.333333333 73.6666666667 251.666666667 55 305 55 c 0
 347.666666667 55 391 69.3333333333 435 98 c 1
 435 41 l 1
EndSplineSet
EndChar

StartChar: d
Encoding: 100 100 71
Width: 562
GlyphClass: 2
Flags: W
HStem: -8 68<205.966 320.077> 0 39<478.415 542> 446 47<218.023 382.593> 665 33<308 331.154> 717 20G<370.846 478>
VStem: 37 99<138.535 343.921> 384 94<41.9531 53 79.6853 437.562 482 665>
LayerCount: 2
Fore
SplineSet
542 0 m 1x7e
 384 0 l 1x7e
 384 53 l 1
 330.666666667 12.3333333333 279 -8 229 -8 c 0xbe
 166.333333333 -8 117.666666667 17.3333333333 83 68 c 0
 52.3333333333 111.333333333 37 164.666666667 37 228 c 0
 37 301.333333333 58 362.666666667 100 412 c 0
 146.666666667 466.666666667 210.666666667 493.666666667 292 493 c 0
 323.333333333 493 354 489.333333333 384 482 c 1
 384 665 l 1
 308 665 l 1
 308 698 l 1
 437 737 l 1
 478 737 l 1
 478 64 l 2
 478 50 485 42.6666666667 499 42 c 2
 542 39 l 1
 542 0 l 1x7e
384 91 m 1
 384 431 l 1
 356 441 327.666666667 446 299 446 c 0
 249.666666667 446 210.166666667 427.666666667 180.5 391 c 0
 150.833333333 354.333333333 136 305.666666667 136 245 c 0
 136 189.666666667 148.666666667 145.333333333 174 112 c 0
 200 77.3333333333 235.666666667 60 281 60 c 0xbe
 316.333333333 60 350.666666667 70.3333333333 384 91 c 1
EndSplineSet
EndChar

StartChar: e
Encoding: 101 101 72
Width: 495
GlyphClass: 2
Flags: W
HStem: -8 61<214.663 386.32> 261 45<139 359> 445 48<195.85 322.742>
VStem: 37 97<145.027 261 306 352.104> 359 100<306 396.364>
LayerCount: 2
Fore
SplineSet
459 50 m 1
 397.666666667 11.3333333333 334.333333333 -8 269 -8 c 0
 203.666666667 -8 150 11.6666666667 108 51 c 0
 60.6666666667 95 37 156.666666667 37 236 c 0
 37 313.333333333 59 375.5 103 422.5 c 0
 147 469.5 203.333333333 493 272 493 c 0
 332 493 378.666666667 474 412 436 c 0
 443.333333333 400 459 351 459 289 c 0
 459 276.333333333 458.666666667 267 458 261 c 1
 134 261 l 1
 134 202.333333333 145.666666667 155 169 119 c 0
 197.666666667 75 241.666666667 53 301 53 c 0
 349 53 401.666666667 72.3333333333 459 111 c 1
 459 50 l 1
359 306 m 1
 359 328 l 2
 359 362.666666667 351 390.333333333 335 411 c 0
 317.666666667 433.666666667 293.333333333 445 262 445 c 0
 228.666666667 445 200.5 432.5 177.5 407.5 c 0
 154.5 382.5 141.666666667 348.666666667 139 306 c 1
 359 306 l 1
EndSplineSet
EndChar

StartChar: f
Encoding: 102 102 73
Width: 326
GlyphClass: 2
Flags: W
HStem: 0 42<29 98.9795 192.021 272> 419 50<192 316> 419 34<35 59.8889>
VStem: 99 93<41.9531 419 471 606.232>
LayerCount: 2
Fore
SplineSet
389 684 m 0xb0
 389 656.666666667 373.666666667 638.666666667 343 630 c 1
 341.666666667 631.333333333 326.166666667 642.5 296.5 663.5 c 0
 266.833333333 684.5 251.666666667 695.333333333 251 696 c 0
 213 676.666666667 193.666666667 626.333333333 193 545 c 2
 192 469 l 1
 316 469 l 1
 316 419 l 1
 192 419 l 1xd0
 192 64 l 2
 192 50 199 42.6666666667 213 42 c 2
 272 39 l 1
 272 0 l 1
 29 0 l 1
 29 39 l 1
 78 42 l 2
 92 42.6666666667 99 50 99 64 c 2
 99 419 l 1
 35 419 l 1
 35 453 l 1
 99 471 l 1
 99 536.333333333 110.333333333 590.666666667 133 634 c 0
 171.666666667 707.333333333 228.333333333 744 303 744 c 0
 330.333333333 744 352 738 368 726 c 0
 382 714.666666667 389 700.666666667 389 684 c 0xb0
EndSplineSet
EndChar

StartChar: g
Encoding: 103 103 74
Width: 529
GlyphClass: 2
Flags: W
HStem: -217 47<177.188 347.71> 167 41<214.625 306.169> 415 49<413 513> 452 41<196.117 306.109>
VStem: 39 90<-125.899 -14.8936> 61 96<247.29 408.775> 345 95<247.253 405.898> 401 86<-111.331 -17.7206>
LayerCount: 2
Fore
SplineSet
513 415 m 1xe4
 413 415 l 1
 431 386.333333333 440 356.333333333 440 325 c 0xe6
 440 277 420.333333333 238 381 208 c 0
 344.333333333 180 298.666666667 166.333333333 244 167 c 0
 234 167 234 167 224 167 c 1
 210.666666667 145.666666667 208 123.333333333 216 100 c 1
 284.666666667 93.3333333333 321.666666667 87.6666666667 327 83 c 1
 433.666666667 67 487 26 487 -40 c 0
 487 -88 461.666666667 -129.5 411 -164.5 c 0
 360.333333333 -199.5 299 -217 227 -217 c 0
 167.666666667 -217 121.5 -205.5 88.5 -182.5 c 0
 55.5 -159.5 39 -127.666666667 39 -87 c 0xe9
 39 -57 47.6666666667 -31 65 -9 c 0
 83.6666666667 13.6666666667 110.333333333 28 145 34 c 1
 138.333333333 54.6666666667 135 70 135 80 c 0
 135 108 151.666666667 139.333333333 185 174 c 1
 149.666666667 182 120.666666667 198.666666667 98 224 c 0
 73.3333333333 252 61 285.333333333 61 324 c 0
 61 376 79.3333333333 417.166666667 116 447.5 c 0
 152.666666667 477.833333333 201.333333333 493 262 493 c 0xd4
 296.666666667 493 335.333333333 483.333333333 378 464 c 1
 513 464 l 1
 513 415 l 1xe4
345 331 m 0
 345 364.333333333 337 392.333333333 321 415 c 0xe6
 303.666666667 439.666666667 280.666666667 452 252 452 c 0xd6
 224 452 201.166666667 441.166666667 183.5 419.5 c 0
 165.833333333 397.833333333 157 368 157 330 c 0
 157 294.666666667 165 266 181 244 c 0
 197.666666667 220 221.333333333 208 252 208 c 0
 280.666666667 208 303.666666667 220 321 244 c 0
 337 266.666666667 345 295.666666667 345 331 c 0
401 -67 m 0xc9
 401 -45.6666666667 395 -29.5 383 -18.5 c 0
 371 -7.5 348.333333333 1 315 7 c 0
 281.666666667 13 245 19.6666666667 205 27 c 1
 154.333333333 9 129 -22.3333333333 129 -67 c 0
 129 -94.3333333333 139.666666667 -117.333333333 161 -136 c 0
 185 -158.666666667 218 -170 260 -170 c 0
 304 -170 339.333333333 -158.666666667 366 -136 c 0
 389.333333333 -116.666666667 401 -93.6666666667 401 -67 c 0xc9
EndSplineSet
EndChar

StartChar: h
Encoding: 104 104 75
Width: 571
GlyphClass: 2
Flags: W
HStem: 0 39<25 93.5847 188.396 251 332 394.565 487.435 554> 421 72<263.206 366.952> 665 33<19 41.9744> 717 20G<81.359 188>
VStem: 94 94<41.9531 402.585 432 665> 395 92<42.0002 391.796>
LayerCount: 2
Fore
SplineSet
554 0 m 1
 332 0 l 1
 332 39 l 1
 373 42 l 2
 387.666666667 42.6666666667 395 50 395 64 c 2
 395 322 l 2
 395 388 362 421 296 421 c 0
 258.666666667 421 222.666666667 411.333333333 188 392 c 1
 188 64 l 2
 188 50 194.666666667 42.6666666667 208 42 c 2
 251 39 l 1
 251 0 l 1
 25 0 l 1
 25 39 l 1
 73 42 l 2
 87 42.6666666667 94 50 94 64 c 2
 94 665 l 1
 19 665 l 1
 19 698 l 1
 147 737 l 1
 188 737 l 1
 188 432 l 1
 254.666666667 472.666666667 309.333333333 493 352 493 c 0
 392.666666667 493 424.666666667 481 448 457 c 0
 474 430.333333333 487 392.333333333 487 343 c 2
 487 64 l 2
 487 50 494.333333333 42.6666666667 509 42 c 2
 554 39 l 1
 554 0 l 1
EndSplineSet
EndChar

StartChar: i
Encoding: 105 105 76
Width: 303
GlyphClass: 2
Flags: W
HStem: 0 39<34 103.585 197.415 269> 421 34<35 57.4737> 473 20G<92.7895 197> 584 123<110.722 199.436>
VStem: 95 123<602.564 688.436> 104 93<41.9531 421>
LayerCount: 2
Fore
SplineSet
218 646 m 0xf8
 218 628.666666667 212.166666667 614 200.5 602 c 0
 188.833333333 590 174.333333333 584 157 584 c 256
 140.333333333 584 125.833333333 590.166666667 113.5 602.5 c 0
 101.166666667 614.833333333 95 629.333333333 95 646 c 256
 95 662.666666667 101.166666667 677 113.5 689 c 0
 125.833333333 701 140.333333333 707 157 707 c 256
 173.666666667 707 188 701 200 689 c 0
 212 677 218 662.666666667 218 646 c 0xf8
269 0 m 1
 34 0 l 1
 34 39 l 1
 83 42 l 2
 97 42.6666666667 104 50 104 64 c 2
 104 421 l 1
 35 421 l 1
 35 455 l 1
 157 493 l 1
 197 493 l 1
 197 64 l 2xf4
 197 50 204 42.6666666667 218 42 c 2
 269 39 l 1
 269 0 l 1
EndSplineSet
EndChar

StartChar: j
Encoding: 106 106 77
Width: 308
GlyphClass: 2
Flags: W
HStem: -218 21G<-28.3333 32> 417 33<38 60.6579> 468 20G<96.2632 202> 584 123<108.564 194.436>
VStem: 90 123<599.722 688.436> 109 93<-89 417>
LayerCount: 2
Fore
SplineSet
213 646 m 256xf8
 213 629.333333333 207 614.833333333 195 602.5 c 0
 183 590.166666667 168.666666667 584 152 584 c 256
 135.333333333 584 120.833333333 590.166666667 108.5 602.5 c 0
 96.1666666667 614.833333333 90 629.333333333 90 646 c 256
 90 662.666666667 96 677 108 689 c 0
 120 701 134.666666667 707 152 707 c 256
 168.666666667 707 183 701 195 689 c 0
 207 677 213 662.666666667 213 646 c 256xf8
202 76 m 2xf4
 202 -17.3333333333 189 -84 163 -124 c 0
 122.333333333 -186.666666667 67 -218 -3 -218 c 0
 -53.6666666667 -218 -79 -199.333333333 -79 -162 c 0
 -79 -133.333333333 -64.6666666667 -114 -36 -104 c 1
 61 -171 l 1
 93 -153 109 -99 109 -9 c 2
 109 417 l 1
 38 417 l 1
 38 450 l 1
 161 488 l 1
 202 488 l 1
 202 76 l 2xf4
EndSplineSet
EndChar

StartChar: k
Encoding: 107 107 78
Width: 539
GlyphClass: 2
Flags: W
HStem: 0 39<25 94.5847 188.415 252 476 529> 227 29<188 208> 444 38<306 347 436 500> 665 33<19 41.9744> 717 20G<81.359 188>
VStem: 95 93<41.9531 227 256 665>
LayerCount: 2
Fore
SplineSet
529 0 m 1
 374 0 l 1
 374 35 l 1
 244 227 l 1
 188 227 l 1
 188 64 l 2
 188 50 195 42.6666666667 209 42 c 2
 252 39 l 1
 252 0 l 1
 25 0 l 1
 25 39 l 1
 74 42 l 2
 88 42.6666666667 95 50 95 64 c 2
 95 665 l 1
 19 665 l 1
 19 698 l 1
 147 737 l 1
 188 737 l 1
 188 256 l 1
 208 256 l 1
 355 423 l 2
 357.666666667 425.666666667 358 429 356 433 c 0
 354.666666667 437 351.666666667 439.333333333 347 440 c 2
 306 444 l 1
 306 482 l 1
 500 482 l 1
 500 444 l 1
 436 437 l 1
 304 295 l 1
 476 45 l 1
 529 39 l 1
 529 0 l 1
EndSplineSet
EndChar

StartChar: l
Encoding: 108 108 79
Width: 296
GlyphClass: 2
Flags: W
HStem: 0 39<27 101.193 195.754 270> 665 33<26 48.9744> 717 20G<88.359 195>
VStem: 102 93<42 665>
LayerCount: 2
Fore
SplineSet
270 0 m 1
 27 0 l 1
 27 39 l 1
 80 42 l 2
 84.6666666667 42 89.5 44.3333333333 94.5 49 c 0
 99.5 53.6666666667 102 58.3333333333 102 63 c 2
 102 665 l 1
 26 665 l 1
 26 698 l 1
 154 737 l 1
 195 737 l 1
 195 63 l 2
 195 58.3333333333 197.333333333 53.6666666667 202 49 c 0
 206.666666667 44.3333333333 211.333333333 42 216 42 c 2
 270 39 l 1
 270 0 l 1
EndSplineSet
EndChar

StartChar: m
Encoding: 109 109 80
Width: 854
GlyphClass: 2
Flags: W
HStem: 0 39<28 97.5847 191.415 254 323 385.585 479.415 542 612 673.585 768.415 837> 417 33<29 51.2895> 421 72<267.002 361.054 550.339 647.625>
VStem: 98 93<41.9531 402.585> 386 93<41.9531 395.211> 674 94<41.9531 393.881>
LayerCount: 2
Fore
SplineSet
837 0 m 1xbc
 612 0 l 1
 612 39 l 1
 653 42 l 2
 667 42.6666666667 674 50 674 64 c 2
 674 319 l 2
 674 387 644.333333333 421 585 421 c 0
 551.666666667 421 516.333333333 411.333333333 479 392 c 1
 479 64 l 2
 479 50 486 42.6666666667 500 42 c 2
 542 39 l 1
 542 0 l 1
 323 0 l 1
 323 39 l 1
 365 42 l 2
 379 42.6666666667 386 50 386 64 c 2
 386 324 l 2
 386 388.666666667 356.666666667 421 298 421 c 0xbc
 260.666666667 421 225 411.333333333 191 392 c 1
 191 64 l 2
 191 50 198 42.6666666667 212 42 c 2
 254 39 l 1
 254 0 l 1
 28 0 l 1
 28 39 l 1
 77 42 l 2
 91 42.6666666667 98 50 98 64 c 2
 98 417 l 1
 29 417 l 1
 29 450 l 1xdc
 150 488 l 1
 191 488 l 1
 191 432 l 1
 259 472.666666667 313.333333333 493 354 493 c 0
 404 493 440.666666667 470.333333333 464 425 c 1
 536.666666667 470.333333333 594.333333333 493 637 493 c 0
 684.333333333 493 719.333333333 476 742 442 c 0
 759.333333333 416 768 382.333333333 768 341 c 2
 768 64 l 2
 768 50 775 42.6666666667 789 42 c 2
 837 39 l 1
 837 0 l 1xbc
EndSplineSet
EndChar

StartChar: n
Encoding: 110 110 81
Width: 577
GlyphClass: 2
Flags: W
HStem: 0 39<25 94.5847 188.415 251 331 393.585 487.415 552> 417 71<255.266 369.613> 417 33<25 47.4737>
VStem: 95 93<41.9531 401.855> 394 93<41.9531 391.996>
LayerCount: 2
Fore
SplineSet
552 0 m 1xd8
 331 0 l 1
 331 39 l 1
 373 42 l 2
 387 42.6666666667 394 50 394 64 c 2
 394 323 l 2
 394 388.333333333 362 421 298 421 c 0
 263.333333333 421 226.666666667 411.333333333 188 392 c 1
 188 64 l 2
 188 50 195 42.6666666667 209 42 c 2
 251 39 l 1
 251 0 l 1
 25 0 l 1
 25 39 l 1
 74 42 l 2
 88 42.6666666667 95 50 95 64 c 2
 95 417 l 1
 25 417 l 1
 25 450 l 1xb8
 147 488 l 1
 188 488 l 1
 188 432 l 1
 259.333333333 472.666666667 314.333333333 493 353 493 c 0
 442.333333333 493 487 442 487 340 c 2
 487 64 l 2
 487 50 494 42.6666666667 508 42 c 2
 552 39 l 1
 552 0 l 1xd8
EndSplineSet
EndChar

StartChar: o
Encoding: 111 111 82
Width: 547
GlyphClass: 2
Flags: W
HStem: -8 45<209.785 341.158> 448 45<208.326 340.655>
VStem: 37 105<128.227 355.409> 409 104<128.694 354.811>
LayerCount: 2
Fore
SplineSet
513 241 m 0
 513 169 491.333333333 109.666666667 448 63 c 0
 404 15.6666666667 346 -8 274 -8 c 256
 202 -8 144.333333333 15.3333333333 101 62 c 0
 59 108 37.6666666667 167.666666667 37 241 c 256
 37 314.333333333 58.3333333333 374.333333333 101 421 c 0
 145 469 203.333333333 493 276 493 c 256
 348.666666667 493 406.666666667 468.666666667 450 420 c 0
 492 373.333333333 513 313.666666667 513 241 c 0
409 242 m 0
 409 300 398 348 376 386 c 0
 351.333333333 427.333333333 317.666666667 448 275 448 c 0
 231 448 197.333333333 427.333333333 174 386 c 0
 152.666666667 348.666666667 142 300.666666667 142 242 c 0
 142 184 153 136.333333333 175 99 c 0
 199 57.6666666667 232.333333333 37 275 37 c 0
 318.333333333 37 352 57.6666666667 376 99 c 0
 398 135.666666667 409 183.333333333 409 242 c 0
EndSplineSet
EndChar

StartChar: p
Encoding: 112 112 83
Width: 561
GlyphClass: 2
Flags: W
HStem: -218 38<23 71 207 266> -3 46<186.543 346.32> 417 33<23 45.4737> 424 69<248.003 360.786>
VStem: 92 93<-175 6 52 404.195> 427 100<137.851 349.05>
LayerCount: 2
Fore
SplineSet
527 257 m 0xdc
 527 177.666666667 504.5 114.5 459.5 67.5 c 0
 414.5 20.5 352.666666667 -3 274 -3 c 0
 252 -3 222.333333333 0 185 6 c 1
 185 -154 l 2
 185 -166.666666667 192.333333333 -173.666666667 207 -175 c 2
 266 -180 l 1
 266 -218 l 1
 23 -218 l 1
 23 -180 l 1
 71 -175 l 2
 85 -173.666666667 92 -166.666666667 92 -154 c 2
 92 417 l 1
 23 417 l 1
 23 450 l 1xec
 145 488 l 1
 185 488 l 1
 185 432 l 1
 237.666666667 472.666666667 288 493 336 493 c 0
 390 493 434.666666667 472.333333333 470 431 c 0
 508 387 527 329 527 257 c 0xdc
427 243 m 0
 427 296.333333333 415.333333333 339.333333333 392 372 c 0
 366.666666667 406.666666667 331.666666667 424 287 424 c 0xdc
 256.333333333 424 222.333333333 414 185 394 c 1
 185 59 l 1
 213.666666667 48.3333333333 240.666666667 43 266 43 c 0
 318 43 358.666666667 63.3333333333 388 104 c 0
 414 140.666666667 427 187 427 243 c 0
EndSplineSet
EndChar

StartChar: q
Encoding: 113 113 84
Width: 541
GlyphClass: 2
Flags: W
HStem: -218 38<295 354 489 537> -3 59<207.662 336.141> 448 46<220.756 373.742>
VStem: 37 101<135.977 344.86> 375 93<-175.078 36 63.875 442.375>
LayerCount: 2
Fore
SplineSet
537 -218 m 1
 295 -218 l 1
 295 -180 l 1
 354 -175 l 2
 368 -173.666666667 375 -166.666666667 375 -154 c 2
 375 36 l 1
 321.666666667 10 275 -3 235 -3 c 0
 175 -3 126.666666667 19 90 63 c 0
 54.6666666667 105.666666667 37 161 37 229 c 0
 37 311 62.5 375.666666667 113.5 423 c 0
 164.5 470.333333333 235.333333333 494 326 494 c 0
 375.333333333 494 422.666666667 488.666666667 468 478 c 1
 468 -154 l 2
 468 -166.666666667 475 -173.666666667 489 -175 c 2
 537 -180 l 1
 537 -218 l 1
375 70 m 1
 375 438 l 1
 344.333333333 444.666666667 321.333333333 448 306 448 c 0
 252.666666667 448 211 429.666666667 181 393 c 0
 152.333333333 357 138 307.666666667 138 245 c 0
 138 189.666666667 149.666666667 145.333333333 173 112 c 0
 199 74.6666666667 237.666666667 56 289 56 c 0
 317.666666667 56 346.333333333 60.6666666667 375 70 c 1
EndSplineSet
EndChar

StartChar: r
Encoding: 114 114 85
Width: 395
GlyphClass: 2
Flags: W
HStem: 0 42<30 99.9795 193.021 280> 380 99<326.092 386> 407 81<265.547 341.808> 417 33<28 50.8421>
VStem: 100 93<42.0002 367.629 393 417>
LayerCount: 2
Fore
SplineSet
386 380 m 1xc8
 347 380 l 1xc8
 331 398 313 407 293 407 c 0xa8
 262.333333333 407 229 386.333333333 193 345 c 1
 193 64 l 2
 193 50 200 42.6666666667 214 42 c 2
 280 39 l 1
 280 0 l 1
 30 0 l 1
 30 38 l 1
 79 42 l 2
 93 42.6666666667 100 50 100 64 c 2
 100 417 l 1
 28 417 l 1
 28 450 l 1x98
 152 488 l 1
 193 488 l 1xa8
 193 393 l 1
 221.666666667 424.333333333 241.333333333 445 252 455 c 0
 280 480.333333333 304.333333333 493 325 493 c 0
 348.333333333 493 368.666666667 488.333333333 386 479 c 1
 386 380 l 1xc8
EndSplineSet
EndChar

StartChar: s
Encoding: 115 115 86
Width: 409
GlyphClass: 2
Flags: W
HStem: -9 45<109.315 256.559> 353 118<304 356> 447 47<154.479 294.322>
VStem: 41 51<96.8333 147> 48 91<328.154 426.677> 283 88<63.1091 164.725> 304 52<353 415.125>
LayerCount: 2
Fore
SplineSet
371 145 m 0xac
 371 96.3333333333 354.166666667 58.5 320.5 31.5 c 0
 286.833333333 4.5 240 -9 180 -9 c 0
 124 -9 77.6666666667 -1.66666666667 41 13 c 1
 41 147 l 1
 92 147 l 1xb4
 104 61 l 1
 129.333333333 44.3333333333 159 36 193 36 c 0
 220.333333333 36 242.333333333 43.6666666667 259 59 c 0
 275 73 283 90.6666666667 283 112 c 0
 283 137.333333333 272.333333333 158 251 174 c 0
 239.666666667 182.666666667 209.666666667 198.666666667 161 222 c 0
 121.666666667 240.666666667 93.6666666667 258.666666667 77 276 c 0
 57.6666666667 296 48 320.333333333 48 349 c 0
 48 393.666666667 63.8333333333 429 95.5 455 c 0
 127.166666667 481 171.333333333 494 228 494 c 0xac
 279.333333333 494 322 486.333333333 356 471 c 1
 356 353 l 1
 304 353 l 1xca
 296 424 l 1
 276.666666667 439.333333333 251.333333333 447 220 447 c 0
 166 447 139 424.666666667 139 380 c 0
 139 358 147 340 163 326 c 0
 177 313.333333333 206 297 250 277 c 0
 290 259 319 241 337 223 c 0
 359.666666667 201 371 175 371 145 c 0xac
EndSplineSet
EndChar

StartChar: t
Encoding: 116 116 87
Width: 339
GlyphClass: 2
Flags: W
HStem: -3 56<178.667 327.572> 419 50<184 325>
VStem: 91 93<73.7271 419>
LayerCount: 2
Fore
SplineSet
334 21 m 1
 288 5 242.666666667 -3 198 -3 c 0
 159.333333333 -3 131.833333333 4.5 115.5 19.5 c 0
 99.1666666667 34.5 91 61.3333333333 91 100 c 2
 91 419 l 1
 27 419 l 1
 27 452 l 1
 95 484 l 1
 140 580 l 1
 184 580 l 1
 184 469 l 1
 325 469 l 1
 325 419 l 1
 184 419 l 1
 184 153 l 2
 184 115 190.666666667 88.3333333333 204 73 c 0
 216 59.6666666667 236 53 264 53 c 0
 288 53 311.333333333 55.6666666667 334 61 c 1
 334 21 l 1
EndSplineSet
EndChar

StartChar: u
Encoding: 117 117 88
Width: 568
GlyphClass: 2
Flags: W
HStem: -8 68<215.87 319.965> 0 39<482.435 548> 421 34<21 43.6579 320 342.474> 473 20G<79.2632 185 377.789 482>
VStem: 91 94<92.3315 421> 390 92<42.0002 57 76.5103 421>
LayerCount: 2
Fore
SplineSet
548 0 m 1x7c
 390 0 l 1x7c
 390 57 l 1
 333.333333333 13.6666666667 279.666666667 -8 229 -8 c 0
 137 -8 91 44.6666666667 91 150 c 2
 91 421 l 1
 21 421 l 1
 21 455 l 1
 144 493 l 1
 185 493 l 1
 185 169 l 2
 185 96.3333333333 217 60 281 60 c 0xbc
 319.666666667 60 356 68.6666666667 390 86 c 1
 390 421 l 1
 320 421 l 1
 320 455 l 1
 442 493 l 1
 482 493 l 1
 482 64 l 2
 482 50 489.333333333 42.6666666667 504 42 c 2
 548 39 l 1
 548 0 l 1x7c
EndSplineSet
EndChar

StartChar: v
Encoding: 118 118 89
Width: 528
GlyphClass: 2
Flags: W
HStem: 0 21G<218.648 298.991> 444 38<10 65 170.157 231 344 389 466 519>
LayerCount: 2
Fore
SplineSet
519 444 m 1
 466 438 l 1
 291 0 l 1
 226 0 l 1
 65 438 l 1
 10 444 l 1
 10 482 l 1
 231 482 l 1
 231 444 l 1
 183 441 l 2
 177.666666667 441 173.333333333 438.666666667 170 434 c 0
 166.666666667 429.333333333 166 424.333333333 168 419 c 2
 280 105 l 1
 403 419 l 2
 405 424.333333333 404.5 429.166666667 401.5 433.5 c 0
 398.5 437.833333333 394.333333333 440.333333333 389 441 c 2
 344 444 l 1
 344 482 l 1
 519 482 l 1
 519 444 l 1
EndSplineSet
EndChar

StartChar: w
Encoding: 119 119 90
Width: 783
GlyphClass: 2
Flags: W
HStem: 0 21G<187.155 271.059 507.69 591.256> 444 38<10 65 166.227 229 598 658.779 722 773>
LayerCount: 2
Fore
SplineSet
773 444 m 1
 722 438 l 1
 585 0 l 1
 514 0 l 1
 396 374 l 1
 264 0 l 1
 193 0 l 1
 65 438 l 1
 10 444 l 1
 10 482 l 1
 229 482 l 1
 229 444 l 1
 182 441 l 2
 168 440.333333333 163 433 167 419 c 2
 250 107 l 1
 379 482 l 1
 450 482 l 1
 566 107 l 1
 658 419 l 2
 662 433 657.333333333 440.333333333 644 441 c 2
 598 444 l 1
 598 482 l 1
 773 482 l 1
 773 444 l 1
EndSplineSet
EndChar

StartChar: x
Encoding: 120 120 91
Width: 513
GlyphClass: 2
Flags: W
HStem: 0 39<12 62.75 153 202 287 322 454.875 503> 444 38<17 62.8889 202 238 308 351 446.222 489>
LayerCount: 2
Fore
SplineSet
503 0 m 1
 287 0 l 1
 287 39 l 1
 322 43 l 2
 326 43.6666666667 329 46 331 50 c 0
 332.333333333 54 332 57.6666666667 330 61 c 2
 244 189 l 1
 146 61 l 2
 143.333333333 57.6666666667 142.666666667 54 144 50 c 0
 145.333333333 46 148.333333333 43.6666666667 153 43 c 2
 202 39 l 1
 202 0 l 1
 12 0 l 1
 12 39 l 1
 70 47 l 1
 213 233 l 1
 76 435 l 1
 17 444 l 1
 17 482 l 1
 238 482 l 1
 238 444 l 1
 202 439 l 2
 197.333333333 438.333333333 194 436 192 432 c 0
 190 428 190.333333333 424.333333333 193 421 c 2
 271 308 l 1
 359 421 l 2
 361.666666667 424.333333333 362 428 360 432 c 0
 358 436 355 438.333333333 351 439 c 2
 308 444 l 1
 308 482 l 1
 489 482 l 1
 489 444 l 1
 434 435 l 1
 301 263 l 1
 448 47 l 1
 503 39 l 1
 503 0 l 1
EndSplineSet
EndChar

StartChar: y
Encoding: 121 121 92
Width: 529
GlyphClass: 2
Flags: W
HStem: -218 21G<91.6667 119> 444 38<10 65 183 231 342 389 468 520>
LayerCount: 2
Fore
SplineSet
520 444 m 1
 468 438 l 1
 276 -31 l 2
 247.333333333 -101.666666667 218.666666667 -151 190 -179 c 0
 164 -205 135 -218 103 -218 c 0
 80.3333333333 -218 62.3333333333 -212 49 -200 c 0
 36.3333333333 -189.333333333 30 -176 30 -160 c 0
 30 -138 40.6666666667 -118 62 -100 c 1
 156 -143 l 1
 186 -113 212.333333333 -65 235 1 c 1
 65 438 l 1
 10 444 l 1
 10 482 l 1
 231 482 l 1
 231 444 l 1
 183 441 l 2
 172.333333333 440.333333333 167 435 167 425 c 0
 167 423 167.333333333 421 168 419 c 2
 284 123 l 1
 403 419 l 2
 405 423.666666667 404.5 428.333333333 401.5 433 c 0
 398.5 437.666666667 394.333333333 440.333333333 389 441 c 2
 342 444 l 1
 342 482 l 1
 520 482 l 1
 520 444 l 1
EndSplineSet
EndChar

StartChar: z
Encoding: 122 122 93
Width: 475
GlyphClass: 2
Flags: W
HStem: 0 48<151 374.59> 435 47<116.001 310>
VStem: 55 51<340 391.8> 385 54<95.7 151>
LayerCount: 2
Fore
SplineSet
439 0 m 1
 45 0 l 1
 45 53 l 1
 310 435 l 1
 136 435 l 2
 124.666666667 435 118 428 116 414 c 2
 106 340 l 1
 55 340 l 1
 55 482 l 1
 425 482 l 1
 425 441 l 1
 151 48 l 1
 353 48 l 2
 357 48 361.5 50.6666666667 366.5 56 c 0
 371.5 61.3333333333 374.333333333 66.6666666667 375 72 c 2
 385 151 l 1
 439 151 l 1
 439 0 l 1
EndSplineSet
EndChar

StartChar: braceleft
Encoding: 123 123 94
Width: 624
GlyphClass: 2
Flags: W
HStem: -320 61<433.401 536> 256 68<77 201.797> 840 60<432.95 536>
VStem: 261 116<-204.938 168.813 410.566 784.634>
LayerCount: 2
Fore
SplineSet
536 -320 m 1
 423.333333333 -320 349 -298.666666667 313 -256 c 0
 287.666666667 -226 271.666666667 -185.666666667 265 -135 c 0
 262.333333333 -113 261 -65.6666666667 261 7 c 0
 261 62.3333333333 260 100 258 120 c 0
 253.333333333 165.333333333 242.333333333 197.666666667 225 217 c 0
 209.666666667 235 186.666666667 246.333333333 156 251 c 0
 140 253.666666667 113.666666667 255.333333333 77 256 c 1
 77 324 l 1
 118.333333333 324 148.333333333 326.666666667 167 332 c 0
 191.666666667 338 211 348.666666667 225 364 c 0
 242.333333333 383.333333333 253.333333333 415.666666667 258 461 c 0
 260 480.333333333 261 518 261 574 c 0
 261 645.333333333 262.333333333 692.333333333 265 715 c 0
 271.666666667 765 287.666666667 805.333333333 313 836 c 0
 348.333333333 878.666666667 422.666666667 900 536 900 c 1
 536 840 l 1
 472.666666667 840 429.333333333 825.333333333 406 796 c 0
 390.666666667 776.666666667 381 745 377 701 c 0
 375.666666667 685.666666667 375 644.666666667 375 578 c 0
 375 478.666666667 362.666666667 411 338 375 c 0
 310.666666667 334.333333333 265.666666667 306.333333333 203 291 c 1
 265.666666667 274.333333333 310.666666667 245.666666667 338 205 c 0
 362.666666667 168.333333333 375 100.666666667 375 2 c 0
 375 -63.3333333333 375.666666667 -104.333333333 377 -121 c 0
 381 -165 390.666666667 -196.666666667 406 -216 c 0
 428.666666667 -244.666666667 472 -259 536 -259 c 1
 536 -320 l 1
EndSplineSet
EndChar

StartChar: bar
Encoding: 124 124 95
Width: 500
GlyphClass: 2
Flags: W
VStem: 216 69<-236 764>
LayerCount: 2
Fore
SplineSet
285 -236 m 1
 216 -236 l 1
 216 764 l 1
 285 764 l 1
 285 -236 l 1
EndSplineSet
EndChar

StartChar: braceright
Encoding: 125 125 96
Width: 624
GlyphClass: 2
Flags: W
HStem: -320 61<88 190.599> 256 68<422.988 547> 840 60<88 191.05>
VStem: 248 115<-204.938 169.61 410 784.938>
LayerCount: 2
Fore
SplineSet
547 256 m 1
 510.333333333 256 484 254.333333333 468 251 c 0
 438 245.666666667 415 234.333333333 399 217 c 0
 381.666666667 197.666666667 370.666666667 165.333333333 366 120 c 0
 364 101.333333333 363 63.6666666667 363 7 c 0
 363 -65.6666666667 361.666666667 -113 359 -135 c 0
 352.333333333 -185.666666667 336.333333333 -226 311 -256 c 0
 275 -298.666666667 200.666666667 -320 88 -320 c 1
 88 -259 l 1
 152.666666667 -259 196.333333333 -244.666666667 219 -216 c 0
 234.333333333 -196.666666667 244 -165 248 -121 c 0
 249.333333333 -105 250 -64 250 2 c 0
 250 101.333333333 262 169 286 205 c 0
 313.333333333 245.666666667 358.666666667 274.333333333 422 291 c 1
 358.666666667 306.333333333 313.333333333 334.333333333 286 375 c 0
 262 410.333333333 250 478 250 578 c 0
 250 644 249.333333333 685 248 701 c 0
 244.666666667 745 235 776.666666667 219 796 c 0
 195 825.333333333 151.333333333 840 88 840 c 1
 88 900 l 1
 201.333333333 900 275.666666667 878.666666667 311 836 c 0
 336.333333333 806 352.333333333 765.666666667 359 715 c 0
 361.666666667 692.333333333 363 645.333333333 363 574 c 0
 363 518 364 480.333333333 366 461 c 0
 370.666666667 415.666666667 381.666666667 383.333333333 399 364 c 0
 413 348 432.333333333 337.333333333 457 332 c 0
 476.333333333 327.333333333 506.333333333 324.666666667 547 324 c 1
 547 256 l 1
EndSplineSet
EndChar

StartChar: asciitilde
Encoding: 126 126 97
Width: 833
GlyphClass: 2
Flags: W
HStem: 236 58<458.154 652.53> 303 58<182.206 382.018>
LayerCount: 2
Fore
SplineSet
747 306 m 1
 679 259.333333333 616.333333333 236 559 236 c 0
 528.333333333 236 481.333333333 247.166666667 418 269.5 c 0
 354.666666667 291.833333333 305.333333333 303 270 303 c 0
 219.333333333 303 158.333333333 277 87 225 c 1
 87 290 l 1
 153 337.333333333 216.333333333 361 277 361 c 0
 310.333333333 361 358.833333333 349.833333333 422.5 327.5 c 0
 486.166666667 305.166666667 532 294 560 294 c 0
 614 294 676.333333333 319.666666667 747 371 c 1
 747 306 l 1
EndSplineSet
EndChar

StartChar: exclamdown
Encoding: 161 161 99
Width: 337
GlyphClass: 2
Flags: W
HStem: 561 123<123.722 212.436>
VStem: 108 123<3.39062 150.162 579.564 668.278>
LayerCount: 2
Fore
SplineSet
231 622 m 256
 231 605.333333333 225 591 213 579 c 0
 201 567 186.666666667 561 170 561 c 256
 153.333333333 561 138.833333333 567 126.5 579 c 0
 114.166666667 591 108 605.333333333 108 622 c 256
 108 638.666666667 114.166666667 653.166666667 126.5 665.5 c 0
 138.833333333 677.833333333 153.333333333 684 170 684 c 256
 186.666666667 684 201 677.833333333 213 665.5 c 0
 225 653.166666667 231 638.666666667 231 622 c 256
230 69 m 2
 230 62 230 62 230 56 c 0
 230 13.3333333333 210 -8 170 -8 c 0
 128.666666667 -8 108 13.3333333333 108 56 c 0
 108 60 108.333333333 64.3333333333 109 69 c 2
 146 498 l 1
 194 498 l 1
 230 69 l 2
EndSplineSet
EndChar

StartChar: cent
Encoding: 162 162 100
Width: 562
GlyphClass: 2
Flags: W
HStem: 0 48<249.822 292 340 409.029> 457 49<250.554 292 340 416.768>
VStem: 73 96<141.935 360.079> 292 48<-99 0 51 454 506 604> 435 49<129.692 174 334 374.154>
LayerCount: 2
Fore
SplineSet
484 23 m 1
 480.666666667 19.6666666667 468 15.3333333333 446 10 c 0
 415.333333333 3.33333333333 380 0 340 0 c 1
 340 -99 l 1
 292 -99 l 1
 292 2 l 1
 224.666666667 9.33333333333 171.333333333 35.6666666667 132 81 c 0
 92.6666666667 126.333333333 73 183.333333333 73 252 c 0
 73 318.666666667 93 374.666666667 133 420 c 0
 173 465.333333333 226 492.666666667 292 502 c 1
 292 604 l 1
 340 604 l 1
 340 506 l 1
 385.333333333 506 433.333333333 497.666666667 484 481 c 1
 484 334 l 1
 436 334 l 1
 422 421 l 2
 420 433 416 440 410 442 c 0
 394 451.333333333 370.666666667 456.333333333 340 457 c 1
 340 48 l 1
 366 48.6666666667 389.333333333 53.3333333333 410 62 c 0
 414.666666667 64 418.666666667 69.3333333333 422 78 c 1
 435 174 l 1
 484 174 l 1
 484 23 l 1
292 51 m 1
 292 454 l 1
 260.666666667 446.666666667 233.666666667 427.666666667 211 397 c 0
 183 359 169 311.666666667 169 255 c 0
 169 198.333333333 181.333333333 151.333333333 206 114 c 0
 228 80.6666666667 256.666666667 59.6666666667 292 51 c 1
EndSplineSet
EndChar

StartChar: sterling
Encoding: 163 163 101
Width: 562
GlyphClass: 2
Flags: W
HStem: 0 82<136.989 514> 0 61<39 85.1829> 304 50<77 146 241 427> 632 50<299.24 416.972>
VStem: 145 94<173.462 304 354 558.475> 418 98<536.017 628.772>
LayerCount: 2
Fore
SplineSet
516 576 m 0x7c
 516 560 509.833333333 546.5 497.5 535.5 c 0
 485.166666667 524.5 470.666666667 519 454 519 c 0
 445.333333333 519 433.333333333 520.666666667 418 524 c 1
 418 624 l 1
 400.666666667 629.333333333 385.666666667 632 373 632 c 0
 283.666666667 632 239 566 239 434 c 0
 239 406.666666667 239.666666667 380 241 354 c 1
 427 354 l 1
 427 304 l 1
 241 304 l 1
 243 199.333333333 207.666666667 123.333333333 135 76 c 1
 177.666666667 80 205.333333333 82 218 82 c 2
 514 82 l 1
 514 0 l 1xbc
 39 0 l 1
 39 61 l 1
 113.666666667 80.3333333333 150 145.333333333 148 256 c 1
 149.333333333 258 149 274 147 304 c 1
 77 304 l 1
 77 354 l 1
 146 354 l 1
 145.333333333 388 145 414.333333333 145 433 c 0
 145 530.333333333 174 600.666666667 232 644 c 0
 266 669.333333333 308 682 358 682 c 0
 396 682 430 674 460 658 c 0
 497.333333333 638 516 610.666666667 516 576 c 0x7c
EndSplineSet
EndChar

StartChar: currency
Encoding: 164 164 102
Width: 775
GlyphClass: 2
Flags: W
HStem: 293 64<298.096 479.43> 750 64<297.81 479.235>
VStem: 128 64<463.2 644.43> 585 64<462.81 643.596>
LayerCount: 2
Fore
SplineSet
723 263 m 1
 677 217 l 1
 547 347 l 1
 500.333333333 311 447.666666667 293 389 293 c 0
 331 293 277.666666667 311.333333333 229 348 c 1
 100 217 l 1
 54 263 l 1
 184 393 l 1
 146.666666667 439.666666667 128 493.333333333 128 554 c 0
 128 612.666666667 146 665.333333333 182 712 c 1
 54 841 l 1
 100 886 l 1
 227 758 l 1
 273.666666667 795.333333333 327.666666667 814 389 814 c 0
 449.666666667 814 503 795.666666667 549 759 c 1
 677 886 l 1
 723 841 l 1
 595 713 l 1
 631 666.333333333 649 613.333333333 649 554 c 0
 649 492.666666667 630.333333333 438.666666667 593 392 c 1
 723 263 l 1
585 554 m 0
 585 608 565.833333333 654.166666667 527.5 692.5 c 0
 489.166666667 730.833333333 443 750 389 750 c 0
 334.333333333 750 287.833333333 730.833333333 249.5 692.5 c 0
 211.166666667 654.166666667 192 608 192 554 c 0
 192 499.333333333 211.166666667 452.833333333 249.5 414.5 c 0
 287.833333333 376.166666667 334.333333333 357 389 357 c 0
 443 357 489.166666667 376.166666667 527.5 414.5 c 0
 565.833333333 452.833333333 585 499.333333333 585 554 c 0
EndSplineSet
EndChar

StartChar: yen
Encoding: 165 165 103
Width: 596
GlyphClass: 2
Flags: W
HStem: 0 42<164 223 367 425> 237 44<32 246 341 564> 383 44<32 168 423 564> 629 42<10 44.4167 191 234 395 437 555.846 586>
VStem: 248 93<47.5332 237>
LayerCount: 2
Fore
SplineSet
586 629 m 1
 530 616 l 1
 423 427 l 1
 564 427 l 1
 564 383 l 1
 398 383 l 1
 340 281 l 1
 564 281 l 1
 564 237 l 1
 341 237 l 1
 341 69 l 2
 341 55.6666666667 349.666666667 48.3333333333 367 47 c 2
 425 42 l 1
 425 0 l 1
 164 0 l 1
 164 42 l 1
 223 47 l 2
 239.666666667 48.3333333333 248 55.6666666667 248 69 c 2
 248 237 l 1
 32 237 l 1
 32 281 l 1
 246 281 l 1
 192 383 l 1
 32 383 l 1
 32 427 l 1
 168 427 l 1
 69 617 l 1
 10 629 l 1
 10 671 l 1
 234 671 l 1
 234 629 l 1
 191 622 l 2
 177 620 173 612.666666667 179 600 c 2
 311 342 l 1
 456 599 l 2
 462.666666667 611 458.333333333 618.333333333 443 621 c 2
 395 629 l 1
 395 671 l 1
 586 671 l 1
 586 629 l 1
EndSplineSet
EndChar

StartChar: section
Encoding: 167 167 104
Width: 500
GlyphClass: 2
Flags: W
HStem: -141 47<154.592 313.522> 674 44<190.19 338.01>
VStem: 59 76<246.706 368.889> 77 82<546.631 642.936> 83 50<-9 22> 344 79<-63.9943 32.7749> 363 78<228.269 342.727> 363 47<564 620.7>
LayerCount: 2
Fore
SplineSet
441 306 m 0xd2
 441 269.333333333 428.333333333 235.666666667 403 205 c 0
 380.333333333 177 352.666666667 156.666666667 320 144 c 1
 388.666666667 112 423 68 423 12 c 0
 423 -32.6666666667 405.5 -69.3333333333 370.5 -98 c 0
 335.5 -126.666666667 291 -141 237 -141 c 0
 183 -141 131.666666667 -130.333333333 83 -109 c 1
 83 22 l 1
 133 22 l 1xcc
 138 -9 l 1
 147 -68 l 1
 155.666666667 -74 167.333333333 -79.3333333333 182 -84 c 0
 202.666666667 -90.6666666667 222.333333333 -94 241 -94 c 0
 271 -94 295.666666667 -86.6666666667 315 -72 c 0
 334.333333333 -57.3333333333 344 -37.6666666667 344 -13 c 0
 344 28.3333333333 288.666666667 73.6666666667 178 123 c 0
 98.6666666667 159 59 213.333333333 59 286 c 0xe4
 59 326.666666667 70.6666666667 360.333333333 94 387 c 0
 111.333333333 407 139 425.666666667 177 443 c 1
 110.333333333 476.333333333 77 519 77 571 c 0
 77 669 141.666666667 718 271 718 c 0
 328.333333333 718 374.666666667 710 410 694 c 1
 410 564 l 1
 363 564 l 1xd1
 353 645 l 1
 317.666666667 664.333333333 286.333333333 674 259 674 c 0
 229.666666667 674 205.666666667 666 187 650 c 0
 168.333333333 634 159 614 159 590 c 0
 159 569.333333333 173 549 201 529 c 0
 219 515.666666667 253.333333333 497 304 473 c 0
 395.333333333 429.666666667 441 374 441 306 c 0xd2
363 281 m 0xe2
 363 337 317 384 225 422 c 1
 196.333333333 412 173.666666667 396 157 374 c 0
 142.333333333 354 135 332.333333333 135 309 c 0
 135 279.666666667 146.666666667 253.666666667 170 231 c 0
 191.333333333 210.333333333 227.666666667 188 279 164 c 1
 297.666666667 173.333333333 315.333333333 188 332 208 c 0
 352.666666667 233.333333333 363 257.666666667 363 281 c 0xe2
EndSplineSet
EndChar

StartChar: dieresis
Encoding: 168 168 105
Width: 315
GlyphClass: 2
Flags: W
HStem: 585 111<12.1857 97.1836 219.633 300.014>
VStem: 0 109<596.747 683.814> 207 109<602.017 683.367>
LayerCount: 2
Fore
SplineSet
316 641 m 0
 316 625.666666667 310.833333333 612.5 300.5 601.5 c 0
 290.166666667 590.5 277.333333333 585 262 585 c 256
 247.333333333 585 234.5 590.666666667 223.5 602 c 0
 212.5 613.333333333 207 626.333333333 207 641 c 0
 207 655 212.666666667 667.666666667 224 679 c 0
 235.333333333 690.333333333 248 696 262 696 c 0
 276.666666667 696 289.333333333 690.5 300 679.5 c 0
 310.666666667 668.5 316 655.666666667 316 641 c 0
109 641 m 256
 109 626.333333333 103.666666667 613.333333333 93 602 c 0
 82.3333333333 590.666666667 69.3333333333 585 54 585 c 0
 40 585 27.5 590.5 16.5 601.5 c 0
 5.5 612.5 0 625.333333333 0 640 c 256
 0 654.666666667 5.5 667.666666667 16.5 679 c 0
 27.5 690.333333333 40 696 54 696 c 0
 68.6666666667 696 81.5 690.5 92.5 679.5 c 0
 103.5 668.5 109 655.666666667 109 641 c 256
EndSplineSet
EndChar

StartChar: copyright
Encoding: 169 169 106
Width: 894
GlyphClass: 2
Flags: W
HStem: -47 42<330.033 566.609> 103 46<391.503 547.274> 527 47<396.258 545.444> 684 42<330.368 567.519>
VStem: 64 43<218.026 460.349> 219 92<238.303 438.492> 562 44<210.5 253 430 463.25> 790 43<218.203 460.243>
LayerCount: 2
Fore
SplineSet
833 340 m 0
 833 233.333333333 795.5 142.166666667 720.5 66.5 c 0
 645.5 -9.16666666667 554.666666667 -47 448 -47 c 0
 342.666666667 -47 252.333333333 -9.16666666667 177 66.5 c 0
 101.666666667 142.166666667 64 233 64 339 c 0
 64 445.666666667 101.666666667 536.833333333 177 612.5 c 0
 252.333333333 688.166666667 343 726 449 726 c 0
 555.666666667 726 646.333333333 688 721 612 c 0
 795.666666667 536 833 445.333333333 833 340 c 0
790 339 m 0
 790 433.666666667 756.666666667 514.833333333 690 582.5 c 0
 623.333333333 650.166666667 543 684 449 684 c 0
 354.333333333 684 273.666666667 650.166666667 207 582.5 c 0
 140.333333333 514.833333333 107 433.666666667 107 339 c 0
 107 244.333333333 140.333333333 163.333333333 207 96 c 0
 273.666666667 28.6666666667 354 -5 448 -5 c 256
 542 -5 622.5 28.6666666667 689.5 96 c 0
 756.5 163.333333333 790 244.333333333 790 339 c 0
606 127 m 1
 558 111 510.666666667 103 464 103 c 0
 388.666666667 103 328.333333333 126.666666667 283 174 c 0
 241 218 219.666666667 273 219 339 c 0
 219 408.333333333 241.5 464.833333333 286.5 508.5 c 0
 331.5 552.166666667 391 574 465 574 c 0
 501.666666667 574 548.666666667 565.666666667 606 549 c 1
 606 430 l 1
 561 430 l 1
 546 506 l 1
 525.333333333 520 501.666666667 527 475 527 c 0
 430.333333333 527 392.333333333 510.666666667 361 478 c 0
 327.666666667 443.333333333 311 397.666666667 311 341 c 0
 311 283 327 235.666666667 359 199 c 0
 388.333333333 165.666666667 423.666666667 149 465 149 c 0
 493 149 520.666666667 155.333333333 548 168 c 1
 562 253 l 1
 606 253 l 1
 606 127 l 1
EndSplineSet
EndChar

StartChar: ordfeminine
Encoding: 170 170 107
Width: 347
GlyphClass: 2
Flags: W
HStem: 304 30<31 332> 379 36<105.965 186.792> 383 23<306 335> 542 23<184.422 226> 591 71<56.9434 116.865> 651 28<118.057 209.196>
VStem: 28 66<425.306 502.059> 44 73<591.037 648.133> 226 63<429.068 542 560.679 640.24>
LayerCount: 2
Fore
SplineSet
335 383 m 1xb580
 235 383 l 1xb580
 226 418 l 1
 184.666666667 392 147.666666667 379 115 379 c 0
 89.6666666667 379 69.3333333333 385.666666667 54 399 c 0
 36.6666666667 413 28 432.333333333 28 457 c 0
 28 483 40.6666666667 503.333333333 66 518 c 0
 94 534 147.333333333 549.666666667 226 565 c 1
 226 592 l 2
 226 631.333333333 205.666666667 651 165 651 c 0xd680
 151 651 135 648.333333333 117 643 c 1
 117 591 l 1
 68 591 l 2
 52 591 44 596.666666667 44 608 c 0
 44 630.666666667 59 648.666666667 89 662 c 0x9980
 115.666666667 673.333333333 147.333333333 679 184 679 c 0
 254 679 289 649 289 589 c 2
 289 421 l 2
 289 413.666666667 294.666666667 409.333333333 306 408 c 2
 335 406 l 1
 335 383 l 1xb580
332 304 m 1
 31 304 l 1
 31 334 l 1
 332 334 l 1
 332 304 l 1
226 439 m 1
 226 542 l 1
 170.666666667 529.333333333 133.666666667 516 115 502 c 0
 101 492 94 478.333333333 94 461 c 0
 94 447.666666667 98.6666666667 436.666666667 108 428 c 0
 117.333333333 419.333333333 129.666666667 415 145 415 c 0xd280
 167 415 194 423 226 439 c 1
EndSplineSet
EndChar

StartChar: guillemotleft
Encoding: 171 171 108
Width: 565
GlyphClass: 2
Flags: W
LayerCount: 2
Fore
SplineSet
514 82 m 1
 301 256 l 1
 301 359 l 1
 514 533 l 1
 514 442 l 1
 367 308 l 1
 514 170 l 1
 514 82 l 1
262 82 m 1
 49 256 l 1
 49 359 l 1
 262 533 l 1
 262 442 l 1
 114 308 l 1
 262 170 l 1
 262 82 l 1
EndSplineSet
EndChar

StartChar: logicalnot
Encoding: 172 172 109
Width: 500
GlyphClass: 2
Flags: W
HStem: 460 78<36 388>
VStem: 388 75<242 460>
LayerCount: 2
Fore
SplineSet
463 242 m 1
 388 242 l 1
 388 460 l 1
 36 460 l 1
 36 538 l 1
 463 538 l 1
 463 242 l 1
EndSplineSet
EndChar

StartChar: registered
Encoding: 174 174 110
Width: 894
GlyphClass: 2
Flags: W
HStem: -47 42<329.571 566.446> 131 28<246 284 385 423 622.03 697> 326 31<370 468.685> 538 31<246 284 370 482.415> 684 42<330.667 566.967>
VStem: 64 43<217.146 460.349> 299 71<161.484 325 358 538> 529 78<392.08 506.708> 790 43<217.744 460.648>
LayerCount: 2
Fore
SplineSet
833 339 m 0
 833 232.333333333 795.333333333 141.333333333 720 66 c 0
 644.666666667 -9.33333333333 553.666666667 -47 447 -47 c 0
 341.666666667 -47 251.5 -9.33333333333 176.5 66 c 0
 101.5 141.333333333 64 232.333333333 64 339 c 0
 64 445.666666667 101.666666667 536.833333333 177 612.5 c 0
 252.333333333 688.166666667 343 726 449 726 c 0
 554.333333333 726 644.666666667 688.166666667 720 612.5 c 0
 795.333333333 536.833333333 833 445.666666667 833 339 c 0
790 339 m 0
 790 434.333333333 756.666666667 515.666666667 690 583 c 0
 623.333333333 650.333333333 543 684 449 684 c 256
 355 684 274.5 650.333333333 207.5 583 c 0
 140.5 515.666666667 107 433.666666667 107 337 c 0
 107 243 140.333333333 162.5 207 95.5 c 0
 273.666666667 28.5 354 -5 448 -5 c 256
 542.666666667 -5 623.333333333 28.6666666667 690 96 c 0
 756.666666667 163.333333333 790 244.333333333 790 339 c 0
697 131 m 1
 677.666666667 127.666666667 658.333333333 126 639 126 c 0
 601 126 574.5 133.666666667 559.5 149 c 0
 544.5 164.333333333 531.666666667 189.333333333 521 224 c 0
 509 260 498 284 488 296 c 0
 471.333333333 316 443 326 403 326 c 0
 397 326 390 325.833333333 382 325.5 c 0
 370 325 370 325 370 325 c 1
 370 176 l 2
 370 167.333333333 375 162.666666667 385 162 c 2
 423 159 l 1
 423 131 l 1
 246 131 l 1
 246 159 l 1
 284 162 l 2
 294 162.666666667 299 167.333333333 299 176 c 2
 299 524 l 2
 299 532.666666667 294 537.333333333 284 538 c 2
 246 541 l 1
 246 569 l 1
 432 569 l 2
 548.666666667 569 607 530.333333333 607 453 c 0
 607 397 568 360.666666667 490 344 c 1
 518.666666667 337.333333333 539.333333333 327.666666667 552 315 c 0
 567.333333333 299 579 275 587 243 c 0
 595 211 605 188.833333333 617 176.5 c 0
 629 164.166666667 655.666666667 158 697 158 c 1
 697 131 l 1
529 450 m 0
 529 508.666666667 487.333333333 538 404 538 c 2
 370 538 l 1
 370 358 l 1
 390 357.333333333 402.333333333 357 407 357 c 0
 488.333333333 357 529 388 529 450 c 0
EndSplineSet
EndChar

StartChar: macron
Encoding: 175 175 111
Width: 300
GlyphClass: 2
Flags: W
HStem: 585 64<0 301>
VStem: 0 301<585 649>
LayerCount: 2
Fore
SplineSet
301 585 m 1
 0 585 l 1
 0 649 l 1
 301 649 l 1
 301 585 l 1
EndSplineSet
EndChar

StartChar: degree
Encoding: 176 176 112
Width: 330
GlyphClass: 2
Flags: W
HStem: 433 40<106.374 224.695> 670 40<105.305 224.695>
VStem: 26 40<513.547 630.38> 264 40<512.305 630.694>
LayerCount: 2
Fore
SplineSet
304 572 m 256
 304 533.333333333 290.5 500.5 263.5 473.5 c 0
 236.5 446.5 203.666666667 433 165 433 c 256
 126.333333333 433 93.5 446.5 66.5 473.5 c 0
 39.5 500.5 26 533.333333333 26 572 c 256
 26 610.666666667 39.5 643.333333333 66.5 670 c 0
 93.5 696.666666667 126.333333333 710 165 710 c 256
 203.666666667 710 236.5 696.666666667 263.5 670 c 0
 290.5 643.333333333 304 610.666666667 304 572 c 256
264 572 m 256
 264 599.333333333 254.333333333 622.5 235 641.5 c 0
 215.666666667 660.5 192.333333333 670 165 670 c 256
 137.666666667 670 114.333333333 660.333333333 95 641 c 0
 75.6666666667 621.666666667 66 598.666666667 66 572 c 256
 66 544.666666667 75.8333333333 521.333333333 95.5 502 c 0
 115.166666667 482.666666667 138.333333333 473 165 473 c 256
 192.333333333 473 215.666666667 482.666666667 235 502 c 0
 254.333333333 521.333333333 264 544.666666667 264 572 c 256
EndSplineSet
EndChar

StartChar: plusminus
Encoding: 177 177 113
Width: 833
GlyphClass: 2
Flags: W
HStem: 20 57<124 709> 351 57<124 388 446 709>
VStem: 388 58<183 351 408 576>
LayerCount: 2
Fore
SplineSet
709 351 m 1
 446 351 l 1
 446 183 l 1
 388 183 l 1
 388 351 l 1
 124 351 l 1
 124 408 l 1
 388 408 l 1
 388 576 l 1
 446 576 l 1
 446 408 l 1
 709 408 l 1
 709 351 l 1
709 20 m 1
 124 20 l 1
 124 77 l 1
 709 77 l 1
 709 20 l 1
EndSplineSet
EndChar

StartChar: acute
Encoding: 180 180 114
Width: 350
GlyphClass: 2
Flags: W
HStem: 551 182
VStem: 118 232
LayerCount: 2
Fore
SplineSet
350 688 m 0
 350 671.333333333 342.333333333 658 327 648 c 2
 175 551 l 1
 118 551 l 1
 251 706 l 2
 266.333333333 724 284 733 304 733 c 0
 334.666666667 733 350 718 350 688 c 0
EndSplineSet
EndChar

StartChar: micro
Encoding: 181 181 115
Width: 555
GlyphClass: 2
Flags: W
HStem: -11 67<134.705 258.557 388.643 466.655>
VStem: -42 88<-188.879 -66.4219> 326 56<62.1855 94>
LayerCount: 2
Fore
SplineSet
534 146 m 0
 534 120.666666667 525.666666667 92.3333333333 509 61 c 0
 483.666666667 13.6666666667 447.666666667 -10 401 -10 c 0
 373.666666667 -10 353.666666667 1.33333333333 341 24 c 0
 330.333333333 42.6666666667 325.333333333 66 326 94 c 1
 296.666666667 24 251 -11 189 -11 c 0
 158.333333333 -11 133 -1 113 19 c 0
 95 38.3333333333 84.3333333333 63.6666666667 81 95 c 1
 79 85 67.3333333333 11.6666666667 46 -125 c 0
 37.3333333333 -177.666666667 21.6666666667 -204 -1 -204 c 0
 -28.3333333333 -204 -42 -191.333333333 -42 -166 c 0
 -42 -151.333333333 -39.6666666667 -135.666666667 -35 -119 c 0
 2.33333333333 15 45.3333333333 198.666666667 94 432 c 1
 173 432 l 1
 121 183 l 2
 117.666666667 167.666666667 116 153.333333333 116 140 c 0
 116 84 141.333333333 56 192 56 c 0
 254 56 293.333333333 94.6666666667 310 172 c 2
 366 432 l 1
 446 432 l 1
 386 150 l 2
 383.333333333 135.333333333 382 122.333333333 382 111 c 0
 382 75 396.333333333 57 425 57 c 0
 446.333333333 57 463.666666667 66 477 84 c 0
 483.666666667 92.6666666667 493.666666667 113 507 145 c 0
 511.666666667 157 517 163 523 163 c 0
 530.333333333 163 534 157.333333333 534 146 c 0
EndSplineSet
EndChar

StartChar: paragraph
Encoding: 182 182 116
Width: 622
GlyphClass: 2
Flags: W
HStem: 806 53<348 446 508 519.286> 813 46<544.462 587>
VStem: 34 314<491.113 727.809> 446 62<-101 800>
LayerCount: 2
Fore
SplineSet
587 813 m 1x70
 508 800 l 1
 508 -101 l 1
 446 -101 l 1
 446 806 l 1
 348 806 l 1xb0
 348 359 l 1
 246.666666667 359 171.333333333 375.666666667 122 409 c 0
 63.3333333333 448.333333333 34 514.333333333 34 607 c 0
 34 698.333333333 60 764 112 804 c 0
 160 840.666666667 234 859 334 859 c 2
 587 859 l 1
 587 813 l 1x70
EndSplineSet
EndChar

StartChar: periodcentered
Encoding: 183 183 117
Width: 383
GlyphClass: 2
Flags: W
HStem: 288 295<114.453 269.547>
VStem: 45 294<357.453 514.31>
LayerCount: 2
Fore
SplineSet
339 435 m 256
 339 393.666666667 324.666666667 358.833333333 296 330.5 c 0
 267.333333333 302.166666667 232.666666667 288 192 288 c 256
 150.666666667 288 115.833333333 302.333333333 87.5 331 c 0
 59.1666666667 359.666666667 45 394.333333333 45 435 c 256
 45 476.333333333 59.1666666667 511.333333333 87.5 540 c 0
 115.833333333 568.666666667 150.666666667 583 192 583 c 256
 233.333333333 583 268.166666667 568.666666667 296.5 540 c 0
 324.833333333 511.333333333 339 476.333333333 339 435 c 256
EndSplineSet
EndChar

StartChar: cedilla
Encoding: 184 184 118
Width: 230
GlyphClass: 2
Flags: W
HStem: -225 41<42.2161 159.813> -106 106<96 134.973>
VStem: 96 39<-63 0> 166 65<-176.545 -110.709>
LayerCount: 2
Fore
SplineSet
231 -130 m 0
 231 -160 220.333333333 -183.333333333 199 -200 c 0
 177.666666667 -216.666666667 149.666666667 -225 115 -225 c 0
 93 -225 68.3333333333 -221.666666667 41 -215 c 1
 41 -176 l 1
 65.6666666667 -181.333333333 85.6666666667 -184 101 -184 c 0
 144.333333333 -184 166 -170.333333333 166 -143 c 0
 166 -118.333333333 150.333333333 -106 119 -106 c 0
 113 -106 105.333333333 -108 96 -112 c 1
 96 0 l 1
 135 0 l 1
 135 -63 l 1
 153 -60.3333333333 160.666666667 -59 158 -59 c 1
 206.666666667 -59 231 -82.6666666667 231 -130 c 0
EndSplineSet
EndChar

StartChar: ordmasculine
Encoding: 186 186 119
Width: 369
GlyphClass: 2
Flags: W
HStem: 304 30<32 338> 377 28<140.207 231.195> 651 28<138.765 229.572>
VStem: 25 70<447.446 610.693> 274 71<447.506 608.865>
LayerCount: 2
Fore
SplineSet
345 528 m 0
 345 484.666666667 330.333333333 448.666666667 301 420 c 0
 271.666666667 391.333333333 233 377 185 377 c 256
 137 377 98.3333333333 391.333333333 69 420 c 0
 39.6666666667 448.666666667 25 484.666666667 25 528 c 0
 25 573.333333333 39.5 609.833333333 68.5 637.5 c 0
 97.5 665.166666667 136.666666667 679 186 679 c 0
 234.666666667 679 273.666666667 664.333333333 303 635 c 0
 331 606.333333333 345 570.666666667 345 528 c 0
338 304 m 1
 32 304 l 1
 32 334 l 1
 338 334 l 1
 338 304 l 1
274 528 m 0
 274 562.666666667 266.666666667 591.333333333 252 614 c 0
 236 638.666666667 213.666666667 651 185 651 c 0
 155.666666667 651 133 638.666666667 117 614 c 0
 103 592 95.6666666667 563.333333333 95 528 c 0
 95 493.333333333 102.666666667 464.666666667 118 442 c 0
 134 417.333333333 156.333333333 405 185 405 c 0
 214.333333333 405 237 417 253 441 c 0
 267 463.666666667 274 492.666666667 274 528 c 0
EndSplineSet
EndChar

StartChar: guillemotright
Encoding: 187 187 120
Width: 565
GlyphClass: 2
Flags: W
LayerCount: 2
Fore
SplineSet
518 256 m 1
 304 82 l 1
 304 172 l 1
 452 307 l 1
 304 444 l 1
 304 533 l 1
 518 359 l 1
 518 256 l 1
264 256 m 1
 52 82 l 1
 52 172 l 1
 199 307 l 1
 52 444 l 1
 52 533 l 1
 264 359 l 1
 264 256 l 1
EndSplineSet
EndChar

StartChar: questiondown
Encoding: 191 191 121
Width: 485
GlyphClass: 2
Flags: W
HStem: -8 49<211.101 301> 560 123<230.564 316.436>
VStem: 57 101<92.6067 256.083> 212 123<578.564 664.436> 247 56<380.641 499>
LayerCount: 2
Fore
SplineSet
335 621 m 256xf0
 335 604.333333333 329 590 317 578 c 0
 305 566 290.666666667 560 274 560 c 256
 257.333333333 560 242.833333333 566 230.5 578 c 0
 218.166666667 590 212 604.333333333 212 621 c 0
 212 638.333333333 218 653 230 665 c 0
 242 677 256.666666667 683 274 683 c 0
 290.666666667 683 305 676.833333333 317 664.5 c 0
 329 652.166666667 335 637.666666667 335 621 c 256xf0
423 90 m 0
 423 64 410.333333333 41.6666666667 385 23 c 0
 356.333333333 2.33333333333 316.666666667 -8 266 -8 c 0
 205.333333333 -8 155.666666667 8 117 40 c 0
 77 72.6666666667 57 116 57 170 c 0
 57 264 120.333333333 336.666666667 247 388 c 1
 247 499 l 1
 303 499 l 1
 303 354 l 1xe8
 206.333333333 321.333333333 158 263 158 179 c 0
 158 87 205.666666667 41 301 41 c 1
 341 144 l 1
 359 144 l 2
 401.666666667 144 423 126 423 90 c 0
EndSplineSet
EndChar

StartChar: Agrave
Encoding: 192 192 122
Width: 664
GlyphClass: 2
Flags: W
HStem: 0 43<0 33.8333 142 201 426 494 624.625 664> 248 48<212 407> 659 20G<283.532 373.619>
LayerCount: 2
Fore
SplineSet
380 729 m 1
 324 729 l 1
 172 826 l 2
 156 836 148 849.333333333 148 866 c 0
 148 896 163.666666667 911 195 911 c 0
 214.333333333 911 231.666666667 902 247 884 c 2
 380 729 l 1
664 0 m 1
 426 0 l 1
 426 43 l 1
 484 48 l 2
 486.666666667 48 489.333333333 50.1666666667 492 54.5 c 0
 494.666666667 58.8333333333 495.333333333 62.3333333333 494 65 c 2
 426 248 l 1
 194 248 l 1
 128 68 l 2
 128 67.3333333333 127.666666667 66.3333333333 127 65 c 0
 127 54.3333333333 132 48.6666666667 142 48 c 2
 201 43 l 1
 201 0 l 1
 0 0 l 1
 0 43 l 1
 58 55 l 1
 291 679 l 1
 366 679 l 1
 598 70 l 2
 600.666666667 62.6666666667 603 58 605 56 c 0
 607 54 611.666666667 52.3333333333 619 51 c 2
 664 43 l 1
 664 0 l 1
407 296 m 1
 308 566 l 1
 212 296 l 1
 407 296 l 1
EndSplineSet
EndChar

StartChar: Aacute
Encoding: 193 193 123
Width: 664
GlyphClass: 2
Flags: W
HStem: 0 43<0 33.8333 142 201 426 494 624.625 664> 248 48<212 407> 659 20G<283.532 373.619>
LayerCount: 2
Fore
SplineSet
502 866 m 0
 502 849.333333333 494.333333333 836 479 826 c 2
 328 729 l 1
 271 729 l 1
 404 884 l 2
 419.333333333 902 437 911 457 911 c 0
 487 911 502 896 502 866 c 0
664 0 m 1
 426 0 l 1
 426 43 l 1
 484 48 l 2
 486.666666667 48 489.333333333 50.1666666667 492 54.5 c 0
 494.666666667 58.8333333333 495.333333333 62.3333333333 494 65 c 2
 426 248 l 1
 194 248 l 1
 128 68 l 2
 128 67.3333333333 127.666666667 66.3333333333 127 65 c 0
 127 54.3333333333 132 48.6666666667 142 48 c 2
 201 43 l 1
 201 0 l 1
 0 0 l 1
 0 43 l 1
 58 55 l 1
 291 679 l 1
 366 679 l 1
 598 70 l 2
 600.666666667 62.6666666667 603 58 605 56 c 0
 607 54 611.666666667 52.3333333333 619 51 c 2
 664 43 l 1
 664 0 l 1
407 296 m 1
 308 566 l 1
 212 296 l 1
 407 296 l 1
EndSplineSet
EndChar

StartChar: Acircumflex
Encoding: 194 194 124
Width: 664
GlyphClass: 2
Flags: W
HStem: 0 43<0 33.8333 142 201 426 494 624.625 664> 248 48<212 407> 659 20G<283.532 373.619>
LayerCount: 2
Fore
SplineSet
485 726 m 1
 425 726 l 1
 322 826 l 1
 218 726 l 1
 158 726 l 1
 284 896 l 1
 359 896 l 1
 485 726 l 1
664 0 m 1
 426 0 l 1
 426 43 l 1
 484 48 l 2
 486.666666667 48 489.333333333 50.1666666667 492 54.5 c 0
 494.666666667 58.8333333333 495.333333333 62.3333333333 494 65 c 2
 426 248 l 1
 194 248 l 1
 128 68 l 2
 128 67.3333333333 127.666666667 66.3333333333 127 65 c 0
 127 54.3333333333 132 48.6666666667 142 48 c 2
 201 43 l 1
 201 0 l 1
 0 0 l 1
 0 43 l 1
 58 55 l 1
 291 679 l 1
 366 679 l 1
 598 70 l 2
 600.666666667 62.6666666667 603 58 605 56 c 0
 607 54 611.666666667 52.3333333333 619 51 c 2
 664 43 l 1
 664 0 l 1
407 296 m 1
 308 566 l 1
 212 296 l 1
 407 296 l 1
EndSplineSet
EndChar

StartChar: Atilde
Encoding: 195 195 125
Width: 664
GlyphClass: 2
Flags: W
HStem: 0 43<0 33.8333 142 201 426 494 624.625 664> 248 48<212 407> 659 20G<283.532 373.619> 757 62<340.04 450.118> 805 62<206.897 317.941>
VStem: 155 40<757 791.563> 462 40<832.437 867>
LayerCount: 2
Fore
SplineSet
502 867 m 1xee
 483.333333333 793.666666667 444.666666667 757 386 757 c 0xf6
 369.333333333 757 347.833333333 765 321.5 781 c 0
 295.166666667 797 270.666666667 805 248 805 c 0xee
 234.666666667 805 222.833333333 800 212.5 790 c 0
 202.166666667 780 196.333333333 769 195 757 c 1
 155 757 l 1xf6
 173.666666667 830.333333333 212.333333333 867 271 867 c 0xee
 287.666666667 867 309.333333333 859 336 843 c 0
 362.666666667 827 387.333333333 819 410 819 c 0xf6
 423.333333333 819 434.833333333 823.833333333 444.5 833.5 c 0
 454.166666667 843.166666667 460 854.333333333 462 867 c 1
 502 867 l 1xee
664 0 m 1
 426 0 l 1
 426 43 l 1
 484 48 l 2
 486.666666667 48 489.333333333 50.1666666667 492 54.5 c 0
 494.666666667 58.8333333333 495.333333333 62.3333333333 494 65 c 2
 426 248 l 1
 194 248 l 1
 128 68 l 2
 128 67.3333333333 127.666666667 66.3333333333 127 65 c 0
 127 54.3333333333 132 48.6666666667 142 48 c 2
 201 43 l 1
 201 0 l 1
 0 0 l 1
 0 43 l 1
 58 55 l 1
 291 679 l 1
 366 679 l 1
 598 70 l 2
 600.666666667 62.6666666667 603 58 605 56 c 0
 607 54 611.666666667 52.3333333333 619 51 c 2
 664 43 l 1
 664 0 l 1
407 296 m 1
 308 566 l 1
 212 296 l 1
 407 296 l 1
EndSplineSet
EndChar

StartChar: Adieresis
Encoding: 196 196 126
Width: 664
GlyphClass: 2
Flags: W
HStem: 0 43<0 33.8333 142 201 426 494 624.625 664> 248 48<212 407> 659 20G<283.532 373.619> 757 111<180.633 266.184 387.633 473.184>
VStem: 168 110<768.747 855.367> 375 110<769.103 855.367>
LayerCount: 2
Fore
SplineSet
485 813 m 256
 485 798.333333333 479.666666667 785.333333333 469 774 c 0
 458.333333333 762.666666667 445.333333333 757 430 757 c 256
 415.333333333 757 402.5 762.666666667 391.5 774 c 0
 380.5 785.333333333 375 798.333333333 375 813 c 0
 375 827 380.666666667 839.666666667 392 851 c 0
 403.333333333 862.333333333 416 868 430 868 c 0
 444.666666667 868 457.5 862.5 468.5 851.5 c 0
 479.5 840.5 485 827.666666667 485 813 c 256
278 813 m 256
 278 798.333333333 272.666666667 785.333333333 262 774 c 0
 251.333333333 762.666666667 238.333333333 757 223 757 c 0
 208.333333333 757 195.5 762.5 184.5 773.5 c 0
 173.5 784.5 168 797.333333333 168 812 c 256
 168 826.666666667 173.666666667 839.666666667 185 851 c 0
 196.333333333 862.333333333 209 868 223 868 c 0
 237.666666667 868 250.5 862.5 261.5 851.5 c 0
 272.5 840.5 278 827.666666667 278 813 c 256
664 0 m 1
 426 0 l 1
 426 43 l 1
 484 48 l 2
 486.666666667 48 489.333333333 50.1666666667 492 54.5 c 0
 494.666666667 58.8333333333 495.333333333 62.3333333333 494 65 c 2
 426 248 l 1
 194 248 l 1
 128 68 l 2
 128 67.3333333333 127.666666667 66.3333333333 127 65 c 0
 127 54.3333333333 132 48.6666666667 142 48 c 2
 201 43 l 1
 201 0 l 1
 0 0 l 1
 0 43 l 1
 58 55 l 1
 291 679 l 1
 366 679 l 1
 598 70 l 2
 600.666666667 62.6666666667 603 58 605 56 c 0
 607 54 611.666666667 52.3333333333 619 51 c 2
 664 43 l 1
 664 0 l 1
407 296 m 1
 308 566 l 1
 212 296 l 1
 407 296 l 1
EndSplineSet
EndChar

StartChar: Aring
Encoding: 197 197 127
Width: 664
GlyphClass: 2
Flags: W
HStem: 0 43<0 33.8333 142 201 426 494 624.625 664> 248 48<212 407> 659 20G<283.532 373.619> 726 60<280.298 373.765> 916 59<280.298 373.765>
VStem: 203 59<804.235 897.702> 392 60<804.235 897.702>
LayerCount: 2
Fore
SplineSet
452 851 m 256
 452 816.333333333 439.833333333 786.833333333 415.5 762.5 c 0
 391.166666667 738.166666667 361.666666667 726 327 726 c 256
 292.333333333 726 263 738.166666667 239 762.5 c 0
 215 786.833333333 203 816.333333333 203 851 c 256
 203 885.666666667 215 915 239 939 c 0
 263 963 292.333333333 975 327 975 c 256
 361.666666667 975 391.166666667 963 415.5 939 c 0
 439.833333333 915 452 885.666666667 452 851 c 256
664 0 m 1
 426 0 l 1
 426 43 l 1
 484 48 l 2
 486.666666667 48 489.333333333 50.1666666667 492 54.5 c 0
 494.666666667 58.8333333333 495.333333333 62.3333333333 494 65 c 2
 426 248 l 1
 194 248 l 1
 128 68 l 2
 128 67.3333333333 127.666666667 66.3333333333 127 65 c 0
 127 54.3333333333 132 48.6666666667 142 48 c 2
 201 43 l 1
 201 0 l 1
 0 0 l 1
 0 43 l 1
 58 55 l 1
 291 679 l 1
 366 679 l 1
 598 70 l 2
 600.666666667 62.6666666667 603 58 605 56 c 0
 607 54 611.666666667 52.3333333333 619 51 c 2
 664 43 l 1
 664 0 l 1
392 851 m 256
 392 869 385.666666667 884.333333333 373 897 c 0
 360.333333333 909.666666667 345 916 327 916 c 256
 309 916 293.666666667 909.666666667 281 897 c 0
 268.333333333 884.333333333 262 869 262 851 c 256
 262 833 268.333333333 817.666666667 281 805 c 0
 293.666666667 792.333333333 309 786 327 786 c 256
 345 786 360.333333333 792.333333333 373 805 c 0
 385.666666667 817.666666667 392 833 392 851 c 256
407 296 m 1
 308 566 l 1
 212 296 l 1
 407 296 l 1
EndSplineSet
EndChar

StartChar: AE
Encoding: 198 198 128
Width: 901
GlyphClass: 2
Flags: W
HStem: 0 43<0 46.375 140 197 401 450 572 823.2> 250 49<273 476> 324 50<572 721.562> 623 48<330 379 572 788.438>
VStem: 476 96<49.125 250 300 324 374 623> 730 49<237 291.444 406.333 460> 802 58<522 563> 839 57<120.8 167>
LayerCount: 2
Fore
SplineSet
896 0 m 1xfd
 401 0 l 1
 401 43 l 1
 450 47 l 2
 467.333333333 48.3333333333 476 55.6666666667 476 69 c 2
 476 250 l 1
 245 250 l 1
 133 69 l 2
 125 55.6666666667 127.333333333 48.6666666667 140 48 c 2
 197 43 l 1
 197 0 l 1
 0 0 l 1
 0 43 l 1
 53 51 l 1
 393 603 l 2
 394.333333333 605 395 607 395 609 c 0
 395 618.333333333 389.666666667 623.333333333 379 624 c 2
 330 629 l 1
 330 671 l 1
 860 671 l 1
 860 522 l 1
 802 522 l 1xfe
 788 604 l 2
 786 616.666666667 780.333333333 623 771 623 c 2
 572 623 l 1
 572 374 l 1
 703 373 l 2
 713.666666667 373 719.666666667 379 721 391 c 2
 730 460 l 1
 779 460 l 1
 779 237 l 1
 730 237 l 1
 721 307 l 2
 719.666666667 318.333333333 713.666666667 324 703 324 c 2
 572 324 l 1
 572 49 l 1
 806 49 l 2
 816 49 822 55.3333333333 824 68 c 2
 839 167 l 1
 896 167 l 1
 896 0 l 1xfd
476 300 m 1
 476 625 l 1
 273 299 l 1
 476 300 l 1
EndSplineSet
EndChar

StartChar: Ccedilla
Encoding: 199 199 129
Width: 632
GlyphClass: 2
Flags: W
HStem: -225 41<305.232 423.154> -11 54<301.739 359 399 503.495> 491 21G<527.703 591> 627 56<294.404 497.896>
VStem: 42 115<205.884 469.573> 359 40<-63 -12> 429 66<-176.721 -110.709> 533 58<151.826 185 491 528.471>
LayerCount: 2
Fore
SplineSet
591 23 m 1
 534.333333333 0.333333333333 470.333333333 -11.3333333333 399 -12 c 1
 399 -63 l 1
 417 -60.3333333333 424.666666667 -59 422 -59 c 1
 470.666666667 -59 495 -82.6666666667 495 -130 c 0
 495 -160 483.666666667 -183.666666667 461 -201 c 0
 439.666666667 -217 412 -225 378 -225 c 0
 356 -225 331.333333333 -221.666666667 304 -215 c 1
 304 -176 l 1
 329.333333333 -181.333333333 349.666666667 -184 365 -184 c 0
 407.666666667 -184 429 -170.333333333 429 -143 c 0
 429 -118.333333333 413.333333333 -106 382 -106 c 0
 376 -106 368.333333333 -108 359 -112 c 1
 359 -11 l 1
 261 -3.66666666667 182.666666667 34.3333333333 124 103 c 0
 69.3333333333 167 42 245 42 337 c 0
 42 440.333333333 74.1666666667 523.833333333 138.5 587.5 c 0
 202.833333333 651.166666667 287.333333333 683 392 683 c 0
 448.666666667 683 515 671.333333333 591 648 c 1
 591 491 l 1
 531 491 l 1
 516 582 l 2
 514.666666667 592.666666667 509 600.333333333 499 605 c 0
 468.333333333 619.666666667 434.333333333 627 397 627 c 0
 326.333333333 627 269.333333333 603 226 555 c 0
 180 504.333333333 157 432.666666667 157 340 c 256
 157 247.333333333 179.5 174.666666667 224.5 122 c 0
 269.5 69.3333333333 331.333333333 43 410 43 c 0
 442.666666667 43 469.666666667 47.3333333333 491 56 c 0
 501.666666667 60 508 66.6666666667 510 76 c 2
 533 185 l 1
 591 185 l 1
 591 23 l 1
EndSplineSet
EndChar

StartChar: Egrave
Encoding: 200 200 130
Width: 584
GlyphClass: 2
Flags: W
HStem: 0 49<32 107 207 480.266> 324 50<207 377.422> 623 48<32 107 207 444.438>
VStem: 107 100<49.1445 324 374 622.922> 386 51<237 290.667 406.333 460> 458 60<522 563> 497 55<126.235 167>
LayerCount: 2
Fore
SplineSet
367 726 m 1xf8
 310 726 l 1
 158 823 l 2
 142.666666667 833 135 846.666666667 135 864 c 0
 135 893.333333333 150.333333333 908 181 908 c 0
 199.666666667 908 217 899 233 881 c 2
 367 726 l 1xf8
552 0 m 1xfa
 32 0 l 1
 32 43 l 1
 85 47 l 2
 99.6666666667 47.6666666667 107 55 107 69 c 2
 107 602 l 2
 107 616 99.6666666667 623.333333333 85 624 c 2
 32 628 l 1
 32 671 l 1
 518 671 l 1
 518 522 l 1
 458 522 l 1xfc
 444 604 l 2
 442 616.666666667 436 623 426 623 c 2
 207 623 l 1
 207 374 l 1
 359 374 l 2
 369.666666667 374 375.666666667 379.666666667 377 391 c 2
 386 460 l 1
 437 460 l 1
 437 237 l 1
 386 237 l 1
 377 306 l 2
 375.666666667 318 369.666666667 324 359 324 c 2
 207 324 l 1
 207 49 l 1
 462 49 l 2
 472 49 478 55.3333333333 480 68 c 2
 497 167 l 1
 552 167 l 1
 552 0 l 1xfa
EndSplineSet
EndChar

StartChar: Eacute
Encoding: 201 201 131
Width: 584
GlyphClass: 2
Flags: W
HStem: 0 49<32 107 207 480.266> 324 50<207 377.422> 623 48<32 107 207 444.438>
VStem: 107 100<49.1445 324 374 622.922> 386 51<237 290.667 406.333 460> 458 60<522 563> 497 55<126.235 167>
LayerCount: 2
Fore
SplineSet
470 866 m 0xf8
 470 850 462 836.666666667 446 826 c 2
 294 729 l 1
 238 729 l 1
 371 884 l 2
 386.333333333 902 403.666666667 911 423 911 c 0
 454.333333333 911 470 896 470 866 c 0xf8
552 0 m 1xfa
 32 0 l 1
 32 43 l 1
 85 47 l 2
 99.6666666667 47.6666666667 107 55 107 69 c 2
 107 602 l 2
 107 616 99.6666666667 623.333333333 85 624 c 2
 32 628 l 1
 32 671 l 1
 518 671 l 1
 518 522 l 1
 458 522 l 1xfc
 444 604 l 2
 442 616.666666667 436 623 426 623 c 2
 207 623 l 1
 207 374 l 1
 359 374 l 2
 369.666666667 374 375.666666667 379.666666667 377 391 c 2
 386 460 l 1
 437 460 l 1
 437 237 l 1
 386 237 l 1
 377 306 l 2
 375.666666667 318 369.666666667 324 359 324 c 2
 207 324 l 1
 207 49 l 1
 462 49 l 2
 472 49 478 55.3333333333 480 68 c 2
 497 167 l 1
 552 167 l 1
 552 0 l 1xfa
EndSplineSet
EndChar

StartChar: Ecircumflex
Encoding: 202 202 132
Width: 584
GlyphClass: 2
Flags: W
HStem: 0 49<32 107 207 480.266> 324 50<207 377.422> 623 48<32 107 207 444.438>
VStem: 107 100<49.1445 324 374 622.922> 386 51<237 290.667 406.333 460> 458 60<522 563> 497 55<126.235 167>
LayerCount: 2
Fore
SplineSet
463 726 m 1xf8
 403 726 l 1
 300 826 l 1
 197 726 l 1
 137 726 l 1
 263 896 l 1
 338 896 l 1
 463 726 l 1xf8
552 0 m 1xfa
 32 0 l 1
 32 43 l 1
 85 47 l 2
 99.6666666667 47.6666666667 107 55 107 69 c 2
 107 602 l 2
 107 616 99.6666666667 623.333333333 85 624 c 2
 32 628 l 1
 32 671 l 1
 518 671 l 1
 518 522 l 1
 458 522 l 1xfc
 444 604 l 2
 442 616.666666667 436 623 426 623 c 2
 207 623 l 1
 207 374 l 1
 359 374 l 2
 369.666666667 374 375.666666667 379.666666667 377 391 c 2
 386 460 l 1
 437 460 l 1
 437 237 l 1
 386 237 l 1
 377 306 l 2
 375.666666667 318 369.666666667 324 359 324 c 2
 207 324 l 1
 207 49 l 1
 462 49 l 2
 472 49 478 55.3333333333 480 68 c 2
 497 167 l 1
 552 167 l 1
 552 0 l 1xfa
EndSplineSet
EndChar

StartChar: Edieresis
Encoding: 203 203 133
Width: 584
GlyphClass: 2
Flags: W
HStem: 0 49<32 107 207 480.266> 324 50<207 377.422> 623 48<32 107 207 444.438> 757 111<161.186 246.184 368.633 449.014>
VStem: 107 100<49.1445 324 374 622.922> 149 109<768.747 855.814> 356 109<774.017 855.367> 386 51<237 290.667 406.333 460> 458 60<522 563> 497 55<126.235 167>
LayerCount: 2
Fore
SplineSet
465 813 m 0xf2
 465 797.666666667 459.833333333 784.5 449.5 773.5 c 0
 439.166666667 762.5 426.333333333 757 411 757 c 256
 396.333333333 757 383.5 762.666666667 372.5 774 c 0
 361.5 785.333333333 356 798.333333333 356 813 c 0
 356 827 361.666666667 839.666666667 373 851 c 0
 384.333333333 862.333333333 397 868 411 868 c 0
 425.666666667 868 438.333333333 862.5 449 851.5 c 0
 459.666666667 840.5 465 827.666666667 465 813 c 0xf2
258 813 m 256xf4
 258 798.333333333 252.666666667 785.333333333 242 774 c 0
 231.333333333 762.666666667 218.333333333 757 203 757 c 0
 189 757 176.5 762.5 165.5 773.5 c 0
 154.5 784.5 149 797.333333333 149 812 c 256
 149 826.666666667 154.5 839.666666667 165.5 851 c 0
 176.5 862.333333333 189 868 203 868 c 0
 217.666666667 868 230.5 862.5 241.5 851.5 c 0
 252.5 840.5 258 827.666666667 258 813 c 256xf4
552 0 m 1xf940
 32 0 l 1
 32 43 l 1
 85 47 l 2
 99.6666666667 47.6666666667 107 55 107 69 c 2
 107 602 l 2
 107 616 99.6666666667 623.333333333 85 624 c 2
 32 628 l 1
 32 671 l 1
 518 671 l 1
 518 522 l 1
 458 522 l 1xf880
 444 604 l 2
 442 616.666666667 436 623 426 623 c 2
 207 623 l 1
 207 374 l 1
 359 374 l 2
 369.666666667 374 375.666666667 379.666666667 377 391 c 2
 386 460 l 1
 437 460 l 1
 437 237 l 1
 386 237 l 1
 377 306 l 2
 375.666666667 318 369.666666667 324 359 324 c 2
 207 324 l 1
 207 49 l 1
 462 49 l 2
 472 49 478 55.3333333333 480 68 c 2
 497 167 l 1
 552 167 l 1
 552 0 l 1xf940
EndSplineSet
EndChar

StartChar: Igrave
Encoding: 204 204 134
Width: 330
GlyphClass: 2
Flags: W
HStem: 0 43<33 114.672 215.344 297> 627 44<33 114.872 215.134 297>
VStem: 115 100<47.0002 623>
LayerCount: 2
Fore
SplineSet
231 726 m 1
 174 726 l 1
 22 823 l 2
 6.66666666667 833 -1 846.666666667 -1 864 c 0
 -1 893.333333333 14.3333333333 908 45 908 c 0
 64.3333333333 908 81.6666666667 899 97 881 c 2
 231 726 l 1
297 0 m 1
 33 0 l 1
 33 43 l 1
 94 47 l 2
 108 47.6666666667 115 55 115 69 c 2
 115 602 l 2
 115 615.333333333 108 622.333333333 94 623 c 2
 33 627 l 1
 33 671 l 1
 297 671 l 1
 297 627 l 1
 237 623 l 2
 222.333333333 622.333333333 215 615.333333333 215 602 c 2
 215 69 l 2
 215 55 222.333333333 47.6666666667 237 47 c 2
 297 43 l 1
 297 0 l 1
EndSplineSet
EndChar

StartChar: Iacute
Encoding: 205 205 135
Width: 330
GlyphClass: 2
Flags: W
HStem: 0 43<33 113.672 215.328 297> 627 44<33 113.872 215.128 297>
VStem: 114 101<46.9375 623.062>
LayerCount: 2
Fore
SplineSet
323 864 m 0
 323 847.333333333 315.333333333 833.666666667 300 823 c 2
 148 726 l 1
 91 726 l 1
 225 881 l 2
 241 899 258.333333333 908 277 908 c 0
 307.666666667 908 323 893.333333333 323 864 c 0
297 0 m 1
 33 0 l 1
 33 43 l 1
 93 47 l 2
 107 47.6666666667 114 55 114 69 c 2
 114 602 l 2
 114 615.333333333 107 622.333333333 93 623 c 2
 33 627 l 1
 33 671 l 1
 297 671 l 1
 297 627 l 1
 236 623 l 2
 222 622.333333333 215 615.333333333 215 602 c 2
 215 69 l 2
 215 55 222 47.6666666667 236 47 c 2
 297 43 l 1
 297 0 l 1
EndSplineSet
EndChar

StartChar: Icircumflex
Encoding: 206 206 136
Width: 330
GlyphClass: 2
Flags: W
HStem: 0 43<33 114.672 215.344 297> 627 44<33 114.872 215.134 297>
VStem: 115 100<47.0002 623>
LayerCount: 2
Fore
SplineSet
328 726 m 1
 268 726 l 1
 165 826 l 1
 62 726 l 1
 1 726 l 1
 127 896 l 1
 203 896 l 1
 328 726 l 1
297 0 m 1
 33 0 l 1
 33 43 l 1
 94 47 l 2
 108 47.6666666667 115 55 115 69 c 2
 115 602 l 2
 115 615.333333333 108 622.333333333 94 623 c 2
 33 627 l 1
 33 671 l 1
 297 671 l 1
 297 627 l 1
 237 623 l 2
 222.333333333 622.333333333 215 615.333333333 215 602 c 2
 215 69 l 2
 215 55 222.333333333 47.6666666667 237 47 c 2
 297 43 l 1
 297 0 l 1
EndSplineSet
EndChar

StartChar: Idieresis
Encoding: 207 207 137
Width: 330
GlyphClass: 2
Flags: W
HStem: 0 43<33 114.672 215.344 297> 627 44<33 114.872 215.134 297> 757 111<19.1857 103.814 226.186 307.014>
VStem: 7 109<769.186 855.814> 115 100<47.0002 623> 214 109<774.532 855.814>
LayerCount: 2
Fore
SplineSet
323 813 m 256xe4
 323 798.333333333 317.833333333 785.333333333 307.5 774 c 0
 297.166666667 762.666666667 284.333333333 757 269 757 c 256
 254.333333333 757 241.5 762.666666667 230.5 774 c 0
 219.5 785.333333333 214 798.333333333 214 813 c 0
 214 827 219.5 839.666666667 230.5 851 c 0
 241.5 862.333333333 254 868 268 868 c 0
 282.666666667 868 295.5 862.5 306.5 851.5 c 0
 317.5 840.5 323 827.666666667 323 813 c 256xe4
116 813 m 256xf0
 116 798.333333333 110.5 785.333333333 99.5 774 c 0
 88.5 762.666666667 75.6666666667 757 61 757 c 0
 47 757 34.5 762.5 23.5 773.5 c 0
 12.5 784.5 7 797.333333333 7 812 c 256
 7 826.666666667 12.5 839.666666667 23.5 851 c 0
 34.5 862.333333333 47 868 61 868 c 0
 75.6666666667 868 88.5 862.5 99.5 851.5 c 0
 110.5 840.5 116 827.666666667 116 813 c 256xf0
297 0 m 1
 33 0 l 1
 33 43 l 1
 94 47 l 2
 108 47.6666666667 115 55 115 69 c 2
 115 602 l 2
 115 615.333333333 108 622.333333333 94 623 c 2
 33 627 l 1
 33 671 l 1
 297 671 l 1
 297 627 l 1
 237 623 l 2
 222.333333333 622.333333333 215 615.333333333 215 602 c 2
 215 69 l 2xe8
 215 55 222.333333333 47.6666666667 237 47 c 2
 297 43 l 1
 297 0 l 1
EndSplineSet
EndChar

StartChar: Ntilde
Encoding: 209 209 138
Width: 715
GlyphClass: 2
Flags: W
HStem: 0 43<28 106.656 166.328 244> 628 43<26 106.656 479 556.672 616.328 693> 757 62<381.831 492.285> 805 62<249.577 360.169>
VStem: 107 59<47.0002 560> 198 40<757 791.563> 504 40<832.437 867> 557 59<143 624.062>
LayerCount: 2
Fore
SplineSet
544 867 m 1xdf
 525.333333333 793.666666667 487 757 429 757 c 0xef
 412.333333333 757 390.666666667 765 364 781 c 0
 337.333333333 797 312.666666667 805 290 805 c 0xdf
 276.666666667 805 265 800 255 790 c 0
 245 780 239.333333333 769 238 757 c 1
 198 757 l 1xef
 216.666666667 830.333333333 255 867 313 867 c 0xdf
 329.666666667 867 351.333333333 859 378 843 c 0
 404.666666667 827 429.333333333 819 452 819 c 0xef
 465.333333333 819 476.833333333 823.833333333 486.5 833.5 c 0
 496.166666667 843.166666667 502 854.333333333 504 867 c 1
 544 867 l 1xdf
693 628 m 1
 637 624 l 2
 623 623.333333333 616 616 616 602 c 2
 616 0 l 1
 538 0 l 1
 166 560 l 1
 166 69 l 2
 166 55 173 47.6666666667 187 47 c 2
 244 43 l 1
 244 0 l 1
 28 0 l 1
 28 43 l 1
 85 47 l 2
 99.6666666667 47.6666666667 107 55 107 69 c 2
 107 602 l 2
 107 616 99.6666666667 623.333333333 85 624 c 2
 26 628 l 1
 26 671 l 1
 224 671 l 1
 224 646 l 1
 557 143 l 1
 557 602 l 2
 557 616 550 623.333333333 536 624 c 2
 479 628 l 1
 479 671 l 1
 693 671 l 1
 693 628 l 1
EndSplineSet
EndChar

StartChar: Ograve
Encoding: 210 210 139
Width: 735
GlyphClass: 2
Flags: W
HStem: -16 55<279.294 456.945> 631 57<278.757 457.26>
VStem: 42 115<200.51 469.795> 579 116<203.12 468.88>
LayerCount: 2
Fore
SplineSet
421 726 m 1
 364 726 l 1
 212 823 l 2
 196.666666667 833 189 846.666666667 189 864 c 0
 189 893.333333333 204.333333333 908 235 908 c 0
 254.333333333 908 271.666666667 899 287 881 c 2
 421 726 l 1
695 335 m 0
 695 236.333333333 665 153.666666667 605 87 c 0
 543.666666667 18.3333333333 465 -16 369 -16 c 0
 271.666666667 -16 192.666666667 17.3333333333 132 84 c 0
 72 150 42 234 42 336 c 0
 42 436 71.3333333333 519 130 585 c 0
 191.333333333 653.666666667 270.666666667 688 368 688 c 0
 465.333333333 688 544.666666667 653.333333333 606 584 c 0
 665.333333333 517.333333333 695 434.333333333 695 335 c 0
579 334 m 0
 579 420 561.666666667 489.666666667 527 543 c 0
 489 601 436.333333333 630.333333333 369 631 c 0
 299.666666667 631 246.333333333 601.666666667 209 543 c 0
 174.333333333 489.666666667 157 420.666666667 157 336 c 0
 157 250.666666667 174.333333333 181 209 127 c 0
 247 68.3333333333 299.666666667 39 367 39 c 0
 435.666666667 39 489 68.3333333333 527 127 c 0
 561.666666667 181 579 250 579 334 c 0
EndSplineSet
EndChar

StartChar: Oacute
Encoding: 211 211 140
Width: 735
GlyphClass: 2
Flags: W
HStem: -16 55<279.294 456.945> 631 57<278.757 457.26>
VStem: 42 115<200.51 469.795> 579 116<203.12 468.88>
LayerCount: 2
Fore
SplineSet
543 864 m 0
 543 846.666666667 535.333333333 833 520 823 c 2
 368 726 l 1
 311 726 l 1
 445 881 l 2
 460.333333333 899 477.666666667 908 497 908 c 0
 527.666666667 908 543 893.333333333 543 864 c 0
695 335 m 0
 695 236.333333333 665 153.666666667 605 87 c 0
 543.666666667 18.3333333333 465 -16 369 -16 c 0
 271.666666667 -16 192.666666667 17.3333333333 132 84 c 0
 72 150 42 234 42 336 c 0
 42 436 71.3333333333 519 130 585 c 0
 191.333333333 653.666666667 270.666666667 688 368 688 c 0
 465.333333333 688 544.666666667 653.333333333 606 584 c 0
 665.333333333 517.333333333 695 434.333333333 695 335 c 0
579 334 m 0
 579 420 561.666666667 489.666666667 527 543 c 0
 489 601 436.333333333 630.333333333 369 631 c 0
 299.666666667 631 246.333333333 601.666666667 209 543 c 0
 174.333333333 489.666666667 157 420.666666667 157 336 c 0
 157 250.666666667 174.333333333 181 209 127 c 0
 247 68.3333333333 299.666666667 39 367 39 c 0
 435.666666667 39 489 68.3333333333 527 127 c 0
 561.666666667 181 579 250 579 334 c 0
EndSplineSet
EndChar

StartChar: Ocircumflex
Encoding: 212 212 141
Width: 735
GlyphClass: 2
Flags: W
HStem: -16 55<279.294 456.945> 631 57<278.757 457.26>
VStem: 42 115<200.51 469.795> 579 116<203.12 468.88>
LayerCount: 2
Fore
SplineSet
531 726 m 1
 471 726 l 1
 368 826 l 1
 265 726 l 1
 205 726 l 1
 330 896 l 1
 405 896 l 1
 531 726 l 1
695 335 m 0
 695 236.333333333 665 153.666666667 605 87 c 0
 543.666666667 18.3333333333 465 -16 369 -16 c 0
 271.666666667 -16 192.666666667 17.3333333333 132 84 c 0
 72 150 42 234 42 336 c 0
 42 436 71.3333333333 519 130 585 c 0
 191.333333333 653.666666667 270.666666667 688 368 688 c 0
 465.333333333 688 544.666666667 653.333333333 606 584 c 0
 665.333333333 517.333333333 695 434.333333333 695 335 c 0
579 334 m 0
 579 420 561.666666667 489.666666667 527 543 c 0
 489 601 436.333333333 630.333333333 369 631 c 0
 299.666666667 631 246.333333333 601.666666667 209 543 c 0
 174.333333333 489.666666667 157 420.666666667 157 336 c 0
 157 250.666666667 174.333333333 181 209 127 c 0
 247 68.3333333333 299.666666667 39 367 39 c 0
 435.666666667 39 489 68.3333333333 527 127 c 0
 561.666666667 181 579 250 579 334 c 0
EndSplineSet
EndChar

StartChar: Otilde
Encoding: 213 213 142
Width: 735
GlyphClass: 2
Flags: W
HStem: -16 55<280.24 457.945> 631 57<279.757 458.26> 757 62<377.059 488.103> 805 62<244.744 354.96>
VStem: 42 116<200.51 469.795> 193 40<757 791.563> 500 40<832.437 867> 580 116<203.12 468.88>
LayerCount: 2
Fore
SplineSet
540 867 m 1xdf
 521.333333333 793.666666667 482.666666667 757 424 757 c 0xef
 407.333333333 757 385.666666667 765 359 781 c 0
 332.333333333 797 307.666666667 805 285 805 c 0xdf
 271.666666667 805 260 800 250 790 c 0
 240 780 234.333333333 769 233 757 c 1
 193 757 l 1xef
 211.666666667 830.333333333 250.333333333 867 309 867 c 0xdf
 325.666666667 867 347.166666667 859 373.5 843 c 0
 399.833333333 827 424.333333333 819 447 819 c 0xef
 460.333333333 819 472.166666667 824 482.5 834 c 0
 492.833333333 844 498.666666667 855 500 867 c 1
 540 867 l 1xdf
696 335 m 0
 696 236.333333333 666 153.666666667 606 87 c 0
 544.666666667 18.3333333333 466 -16 370 -16 c 0
 272.666666667 -16 193.333333333 17.3333333333 132 84 c 0
 72 150 42 234 42 336 c 0
 42 436 71.6666666667 519 131 585 c 0
 192.333333333 653.666666667 271.666666667 688 369 688 c 0
 466.333333333 688 545.666666667 653.333333333 607 584 c 0
 666.333333333 517.333333333 696 434.333333333 696 335 c 0
580 334 m 0
 580 420 562.666666667 489.666666667 528 543 c 0
 490 601 437.333333333 630.333333333 370 631 c 0
 300.666666667 631 247.333333333 601.666666667 210 543 c 0
 175.333333333 489.666666667 158 420.666666667 158 336 c 0
 158 250.666666667 175.333333333 181 210 127 c 0
 248 68.3333333333 300.666666667 39 368 39 c 0
 436.666666667 39 490 68.3333333333 528 127 c 0
 562.666666667 181 580 250 580 334 c 0
EndSplineSet
EndChar

StartChar: Odieresis
Encoding: 214 214 143
Width: 735
GlyphClass: 2
Flags: W
HStem: -16 55<280.24 457.945> 631 57<279.757 458.26> 757 111<221.186 306.184 428.186 509.014>
VStem: 42 116<200.51 469.795> 209 109<768.747 855.814> 416 109<774.017 855.814> 580 116<203.12 468.88>
LayerCount: 2
Fore
SplineSet
525 813 m 0
 525 797.666666667 519.833333333 784.5 509.5 773.5 c 0
 499.166666667 762.5 486.333333333 757 471 757 c 256
 456.333333333 757 443.5 762.666666667 432.5 774 c 0
 421.5 785.333333333 416 798.333333333 416 813 c 0
 416 827 421.5 839.666666667 432.5 851 c 0
 443.5 862.333333333 456 868 470 868 c 0
 484.666666667 868 497.5 862.5 508.5 851.5 c 0
 519.5 840.5 525 827.666666667 525 813 c 0
318 813 m 256
 318 798.333333333 312.666666667 785.333333333 302 774 c 0
 291.333333333 762.666666667 278.333333333 757 263 757 c 0
 249 757 236.5 762.5 225.5 773.5 c 0
 214.5 784.5 209 797.333333333 209 812 c 256
 209 826.666666667 214.5 839.666666667 225.5 851 c 0
 236.5 862.333333333 249 868 263 868 c 0
 277.666666667 868 290.5 862.5 301.5 851.5 c 0
 312.5 840.5 318 827.666666667 318 813 c 256
696 335 m 0
 696 236.333333333 666 153.666666667 606 87 c 0
 544.666666667 18.3333333333 466 -16 370 -16 c 0
 272.666666667 -16 193.333333333 17.3333333333 132 84 c 0
 72 150 42 234 42 336 c 0
 42 436 71.6666666667 519 131 585 c 0
 192.333333333 653.666666667 271.666666667 688 369 688 c 0
 466.333333333 688 545.666666667 653.333333333 607 584 c 0
 666.333333333 517.333333333 696 434.333333333 696 335 c 0
580 334 m 0
 580 420 562.666666667 489.666666667 528 543 c 0
 490 601 437.333333333 630.333333333 370 631 c 0
 300.666666667 631 247.333333333 601.666666667 210 543 c 0
 175.333333333 489.666666667 158 420.666666667 158 336 c 0
 158 250.666666667 175.333333333 181 210 127 c 0
 248 68.3333333333 300.666666667 39 368 39 c 0
 436.666666667 39 490 68.3333333333 528 127 c 0
 562.666666667 181 580 250 580 334 c 0
EndSplineSet
EndChar

StartChar: Oslash
Encoding: 216 216 144
Width: 735
GlyphClass: 2
Flags: W
HStem: -16 55<278.332 456.945> 631 57<278.757 457.479>
VStem: 42 115<198.614 469.795> 579 116<203.12 472.318>
LayerCount: 2
Fore
SplineSet
695 335 m 0
 695 236.333333333 665 153.666666667 605 87 c 0
 543.666666667 18.3333333333 465 -16 369 -16 c 0
 309 -16 255.333333333 -2.66666666667 208 24 c 1
 146 -79 l 1
 100 -51 l 1
 163 55 l 1
 82.3333333333 122.333333333 42 216 42 336 c 0
 42 436 71.3333333333 519 130 585 c 0
 191.333333333 653.666666667 270.666666667 688 368 688 c 0
 422 688 472 676 518 652 c 1
 575 748 l 1
 622 720 l 1
 564 623 l 1
 651.333333333 555.666666667 695 459.666666667 695 335 c 0
579 334 m 0
 579 423.333333333 559.666666667 495.666666667 521 551 c 1
 244 85 l 1
 278 54.3333333333 319 39 367 39 c 0
 435.666666667 39 489 68.3333333333 527 127 c 0
 561.666666667 181 579 250 579 334 c 0
482 593 m 1
 450.666666667 618.333333333 413 631 369 631 c 0
 299.666666667 631 246.333333333 601.666666667 209 543 c 0
 174.333333333 489.666666667 157 420.666666667 157 336 c 0
 157 251.333333333 173.666666667 182.666666667 207 130 c 1
 482 593 l 1
EndSplineSet
EndChar

StartChar: Ugrave
Encoding: 217 217 145
Width: 703
GlyphClass: 2
Flags: W
HStem: -12 67<273.689 471.851> 628 43<23 96.6719 204.328 282 466 544.656 604.328 682>
VStem: 97 107<130.822 624.062> 545 59<130.822 624>
LayerCount: 2
Fore
SplineSet
423 726 m 1
 366 726 l 1
 214 823 l 2
 198.666666667 833 191 846.666666667 191 864 c 0
 191 893.333333333 206.333333333 908 237 908 c 0
 256.333333333 908 273.666666667 899 289 881 c 2
 423 726 l 1
682 628 m 1
 625 624 l 2
 611 623.333333333 604 616 604 602 c 2
 604 222 l 2
 604 66 518 -12 346 -12 c 0
 180 -12 97 66 97 222 c 2
 97 602 l 2
 97 616 90 623.333333333 76 624 c 2
 23 628 l 1
 23 671 l 1
 282 671 l 1
 282 628 l 1
 225 624 l 2
 211 623.333333333 204 616 204 602 c 2
 204 248 l 2
 204 184 215 137.333333333 237 108 c 0
 263.666666667 72.6666666667 309.333333333 55 374 55 c 0
 438.666666667 55 484.333333333 73.3333333333 511 110 c 0
 533.666666667 140 545 186 545 248 c 2
 545 602 l 2
 545 616 537.666666667 623.333333333 523 624 c 2
 466 628 l 1
 466 671 l 1
 682 671 l 1
 682 628 l 1
EndSplineSet
EndChar

StartChar: Uacute
Encoding: 218 218 146
Width: 704
GlyphClass: 2
Flags: W
HStem: -12 67<273.689 471.851> 628 43<23 96.6719 204.328 282 466 544.656 604.328 682>
VStem: 97 107<130.822 624.062> 545 59<130.822 624>
LayerCount: 2
Fore
SplineSet
544 864 m 0
 544 846.666666667 536.333333333 833 521 823 c 2
 369 726 l 1
 312 726 l 1
 445 881 l 2
 460.333333333 899 478 908 498 908 c 0
 528.666666667 908 544 893.333333333 544 864 c 0
682 628 m 1
 625 624 l 2
 611 623.333333333 604 616 604 602 c 2
 604 222 l 2
 604 66 518 -12 346 -12 c 0
 180 -12 97 66 97 222 c 2
 97 602 l 2
 97 616 90 623.333333333 76 624 c 2
 23 628 l 1
 23 671 l 1
 282 671 l 1
 282 628 l 1
 225 624 l 2
 211 623.333333333 204 616 204 602 c 2
 204 248 l 2
 204 184 215 137.333333333 237 108 c 0
 263.666666667 72.6666666667 309.333333333 55 374 55 c 0
 438.666666667 55 484.333333333 73.3333333333 511 110 c 0
 533.666666667 140 545 186 545 248 c 2
 545 602 l 2
 545 616 537.666666667 623.333333333 523 624 c 2
 466 628 l 1
 466 671 l 1
 682 671 l 1
 682 628 l 1
EndSplineSet
EndChar

StartChar: Ucircumflex
Encoding: 219 219 147
Width: 704
GlyphClass: 2
Flags: W
HStem: -12 67<273.689 471.851> 628 43<23 96.6719 204.328 282 466 544.656 604.328 682>
VStem: 97 107<130.822 624.062> 545 59<130.822 624>
LayerCount: 2
Fore
SplineSet
532 726 m 1
 472 726 l 1
 368 826 l 1
 265 726 l 1
 205 726 l 1
 331 896 l 1
 406 896 l 1
 532 726 l 1
682 628 m 1
 625 624 l 2
 611 623.333333333 604 616 604 602 c 2
 604 222 l 2
 604 66 518 -12 346 -12 c 0
 180 -12 97 66 97 222 c 2
 97 602 l 2
 97 616 90 623.333333333 76 624 c 2
 23 628 l 1
 23 671 l 1
 282 671 l 1
 282 628 l 1
 225 624 l 2
 211 623.333333333 204 616 204 602 c 2
 204 248 l 2
 204 184 215 137.333333333 237 108 c 0
 263.666666667 72.6666666667 309.333333333 55 374 55 c 0
 438.666666667 55 484.333333333 73.3333333333 511 110 c 0
 533.666666667 140 545 186 545 248 c 2
 545 602 l 2
 545 616 537.666666667 623.333333333 523 624 c 2
 466 628 l 1
 466 671 l 1
 682 671 l 1
 682 628 l 1
EndSplineSet
EndChar

StartChar: Udieresis
Encoding: 220 220 148
Width: 704
GlyphClass: 2
Flags: W
HStem: -12 67<274.959 473.304> 628 43<24 98.6719 205.344 283 468 546.656 605.344 683> 757 111<226.186 311.184 433.186 514.014>
VStem: 99 107<125.167 624.062> 214 109<768.747 855.814> 421 109<774.017 855.814> 547 58<130.822 624>
LayerCount: 2
Fore
SplineSet
530 813 m 0
 530 797.666666667 524.833333333 784.5 514.5 773.5 c 0
 504.166666667 762.5 491.333333333 757 476 757 c 256
 461.333333333 757 448.5 762.666666667 437.5 774 c 0
 426.5 785.333333333 421 798.333333333 421 813 c 0
 421 827 426.5 839.666666667 437.5 851 c 0
 448.5 862.333333333 461 868 475 868 c 0
 489.666666667 868 502.5 862.5 513.5 851.5 c 0
 524.5 840.5 530 827.666666667 530 813 c 0
323 813 m 256
 323 798.333333333 317.666666667 785.333333333 307 774 c 0
 296.333333333 762.666666667 283.333333333 757 268 757 c 0
 254 757 241.5 762.5 230.5 773.5 c 0
 219.5 784.5 214 797.333333333 214 812 c 256
 214 826.666666667 219.5 839.666666667 230.5 851 c 0
 241.5 862.333333333 254 868 268 868 c 0
 282.666666667 868 295.5 862.5 306.5 851.5 c 0
 317.5 840.5 323 827.666666667 323 813 c 256
683 628 m 1
 627 624 l 2
 612.333333333 623.333333333 605 616 605 602 c 2
 605 222 l 2
 605 66 519.333333333 -12 348 -12 c 0
 182 -12 99 66 99 222 c 2
 99 602 l 2
 99 616 92 623.333333333 78 624 c 2
 24 628 l 1
 24 671 l 1
 283 671 l 1
 283 628 l 1
 227 624 l 2
 212.333333333 623.333333333 205 616 205 602 c 2
 206 248 l 2
 206 184 216.666666667 137.333333333 238 108 c 0
 264 72.6666666667 309.666666667 55 375 55 c 0
 439.666666667 55 485.666666667 73.3333333333 513 110 c 0
 535.666666667 140.666666667 547 186.666666667 547 248 c 2
 547 602 l 2
 547 616 539.666666667 623.333333333 525 624 c 2
 468 628 l 1
 468 671 l 1
 683 671 l 1
 683 628 l 1
EndSplineSet
EndChar

StartChar: germandbls
Encoding: 223 223 149
Width: 617
GlyphClass: 2
Flags: W
HStem: -7 47<362.735 480.95> 0 38<19 67 197 248> 692 50<253.834 381.534>
VStem: 87 95<42.8496 578.059> 292 90<347.24 436.289> 299 54<79.3333 147> 422 91<498.988 649> 506 85<67.4248 169.641>
LayerCount: 2
Fore
SplineSet
591 149 m 0x79
 591 101.666666667 574 63.3333333333 540 34 c 0
 507.333333333 6.66666666667 466.333333333 -7 417 -7 c 0
 389 -7 349.666666667 -0.333333333333 299 13 c 1
 299 147 l 1
 353 147 l 1
 362 60 l 1
 376.666666667 46.6666666667 396.666666667 40 422 40 c 0xb6
 446.666666667 40 466.833333333 47.6666666667 482.5 63 c 0
 498.166666667 78.3333333333 506 97.3333333333 506 120 c 0xb1
 506 157.333333333 469.666666667 196 397 236 c 0
 359 257.333333333 332.333333333 276.666666667 317 294 c 0
 300.333333333 313.333333333 292 336 292 362 c 0
 292 397.333333333 303.333333333 427.333333333 326 452 c 0
 348 476 376.666666667 491.666666667 412 499 c 1
 418.666666667 530.333333333 422 554.333333333 422 571 c 0
 422 603.666666667 413.666666667 631.333333333 397 654 c 0
 379 679.333333333 353.666666667 692 321 692 c 0
 267 692 228.333333333 662.666666667 205 604 c 0
 189.666666667 565.333333333 182 518.333333333 182 463 c 2
 182 66 l 2
 182 50.6666666667 187 42.6666666667 197 42 c 2
 248 38 l 1
 248 0 l 1
 19 0 l 1
 19 38 l 1
 67 43 l 2
 80.3333333333 44.3333333333 87 51.6666666667 87 65 c 2
 87 453 l 2
 87 530.333333333 107 595.666666667 147 649 c 0
 193 711 257 742 339 742 c 0
 395 742 438.333333333 726 469 694 c 0
 498.333333333 664 513 623 513 571 c 0x7a
 513 555.666666667 507.666666667 521 497 467 c 1
 497 467 497 467 489.5 468 c 0
 484.5 468.666666667 479.333333333 469 474 469 c 0
 412.666666667 469 382 443.666666667 382 393 c 0
 382 359.666666667 418 324 490 286 c 0
 557.333333333 250.666666667 591 205 591 149 c 0x79
EndSplineSet
EndChar

StartChar: agrave
Encoding: 224 224 150
Width: 512
GlyphClass: 2
Flags: W
HStem: -8 59<163.185 259.626> 0 39<431.415 500> 267 38<272.594 337> 447 46<176.444 310.674>
VStem: 42 99<74.271 191.601> 65 110<348.593 432.215> 337 94<81.6123 267 301.331 419.337>
LayerCount: 2
Fore
SplineSet
322 551 m 1x32
 265 551 l 1
 113 648 l 2
 97.6666666667 658 90 671.333333333 90 688 c 0
 90 718 105.333333333 733 136 733 c 0
 155.333333333 733 172.666666667 724 188 706 c 2
 322 551 l 1x32
500 0 m 1x76
 350 0 l 1x76
 337 59 l 1
 275 14.3333333333 220 -8 172 -8 c 0
 134.666666667 -8 104 3.33333333333 80 26 c 0
 54.6666666667 50 42 82.3333333333 42 123 c 0xba
 42 164.333333333 58.3333333333 197 91 221 c 0
 133 251 215 279 337 305 c 1
 337 348 l 2
 337 414 306.666666667 447 246 447 c 0
 219.333333333 447 195.666666667 442.666666667 175 434 c 1
 175 347 l 1
 102 347 l 2
 77.3333333333 347 65 356.666666667 65 376 c 0
 65 414 87.3333333333 443.666666667 132 465 c 0
 170.666666667 483.666666667 217.666666667 493 273 493 c 0
 378.333333333 493 431 443.333333333 431 344 c 2
 431 64 l 2
 431 50 438 42.6666666667 452 42 c 2
 500 39 l 1
 500 0 l 1x76
337 94 m 1
 337 267 l 1
 255 246.333333333 199.666666667 224 171 200 c 0
 151 182.666666667 141 159.333333333 141 130 c 0
 141 108 147.666666667 89.6666666667 161 75 c 0
 175 59 193.333333333 51 216 51 c 0xba
 248.666666667 51 289 65.3333333333 337 94 c 1
EndSplineSet
EndChar

StartChar: aacute
Encoding: 225 225 151
Width: 512
GlyphClass: 2
Flags: W
HStem: -8 59<163.185 259.626> 0 39<431.415 500> 267 38<272.594 337> 447 46<176.444 310.674>
VStem: 42 99<74.271 191.601> 65 110<348.593 432.215> 337 94<81.6123 267 301.331 419.337>
LayerCount: 2
Fore
SplineSet
428 688 m 0x32
 428 671.333333333 420.333333333 658 405 648 c 2
 253 551 l 1
 196 551 l 1
 330 706 l 2
 345.333333333 724 362.666666667 733 382 733 c 0
 412.666666667 733 428 718 428 688 c 0x32
500 0 m 1x76
 350 0 l 1x76
 337 59 l 1
 275 14.3333333333 220 -8 172 -8 c 0
 134.666666667 -8 104 3.33333333333 80 26 c 0
 54.6666666667 50 42 82.3333333333 42 123 c 0xba
 42 164.333333333 58.3333333333 197 91 221 c 0
 133 251 215 279 337 305 c 1
 337 348 l 2
 337 414 306.666666667 447 246 447 c 0
 219.333333333 447 195.666666667 442.666666667 175 434 c 1
 175 347 l 1
 102 347 l 2
 77.3333333333 347 65 356.666666667 65 376 c 0
 65 414 87.3333333333 443.666666667 132 465 c 0
 170.666666667 483.666666667 217.666666667 493 273 493 c 0
 378.333333333 493 431 443.333333333 431 344 c 2
 431 64 l 2
 431 50 438 42.6666666667 452 42 c 2
 500 39 l 1
 500 0 l 1x76
337 94 m 1
 337 267 l 1
 255 246.333333333 199.666666667 224 171 200 c 0
 151 182.666666667 141 159.333333333 141 130 c 0
 141 108 147.666666667 89.6666666667 161 75 c 0
 175 59 193.333333333 51 216 51 c 0xba
 248.666666667 51 289 65.3333333333 337 94 c 1
EndSplineSet
EndChar

StartChar: acircumflex
Encoding: 226 226 152
Width: 512
GlyphClass: 2
Flags: W
HStem: -8 59<163.185 259.626> 0 39<431.415 500> 267 38<272.594 337> 447 46<176.444 310.674>
VStem: 42 99<74.271 191.601> 65 110<348.593 432.215> 337 94<81.6123 267 301.331 419.337>
LayerCount: 2
Fore
SplineSet
412 551 m 1x32
 352 551 l 1
 249 650 l 1
 146 551 l 1
 85 551 l 1
 211 720 l 1
 287 720 l 1
 412 551 l 1x32
500 0 m 1x76
 350 0 l 1x76
 337 59 l 1
 275 14.3333333333 220 -8 172 -8 c 0
 134.666666667 -8 104 3.33333333333 80 26 c 0
 54.6666666667 50 42 82.3333333333 42 123 c 0xba
 42 164.333333333 58.3333333333 197 91 221 c 0
 133 251 215 279 337 305 c 1
 337 348 l 2
 337 414 306.666666667 447 246 447 c 0
 219.333333333 447 195.666666667 442.666666667 175 434 c 1
 175 347 l 1
 102 347 l 2
 77.3333333333 347 65 356.666666667 65 376 c 0
 65 414 87.3333333333 443.666666667 132 465 c 0
 170.666666667 483.666666667 217.666666667 493 273 493 c 0
 378.333333333 493 431 443.333333333 431 344 c 2
 431 64 l 2
 431 50 438 42.6666666667 452 42 c 2
 500 39 l 1
 500 0 l 1x76
337 94 m 1
 337 267 l 1
 255 246.333333333 199.666666667 224 171 200 c 0
 151 182.666666667 141 159.333333333 141 130 c 0
 141 108 147.666666667 89.6666666667 161 75 c 0
 175 59 193.333333333 51 216 51 c 0xba
 248.666666667 51 289 65.3333333333 337 94 c 1
EndSplineSet
EndChar

StartChar: atilde
Encoding: 227 227 153
Width: 512
GlyphClass: 2
Flags: W
HStem: -8 59<163.185 259.626> 0 39<431.415 500> 267 38<272.594 337> 447 46<176.444 310.674> 585 62<267.059 378.298> 633 62<133.584 244.96>
VStem: 42 99<74.271 191.601> 65 110<348.593 432.215> 83 40<585 619.563> 337 94<81.6123 267 301.331 419.337> 390 40<660.437 695>
LayerCount: 2
Fore
SplineSet
430 695 m 1x3420
 411.333333333 621.666666667 372.666666667 585 314 585 c 0x3820
 297.333333333 585 275.666666667 593 249 609 c 0
 222.333333333 625 197.666666667 633 175 633 c 0x3520
 161.666666667 633 150 628.166666667 140 618.5 c 0
 130 608.833333333 124.333333333 597.666666667 123 585 c 1
 83 585 l 1x3880
 101.666666667 658.333333333 140.333333333 695 199 695 c 0x3480
 215.666666667 695 237.166666667 687 263.5 671 c 0
 289.833333333 655 314.333333333 647 337 647 c 0x38c0
 350.333333333 647 362.166666667 651.833333333 372.5 661.5 c 0
 382.833333333 671.166666667 388.666666667 682.333333333 390 695 c 1
 430 695 l 1x3420
500 0 m 1x7140
 350 0 l 1x7140
 337 59 l 1
 275 14.3333333333 220 -8 172 -8 c 0
 134.666666667 -8 104 3.33333333333 80 26 c 0
 54.6666666667 50 42 82.3333333333 42 123 c 0xb240
 42 164.333333333 58.3333333333 197 91 221 c 0
 133 251 215 279 337 305 c 1
 337 348 l 2
 337 414 306.666666667 447 246 447 c 0
 219.333333333 447 195.666666667 442.666666667 175 434 c 1
 175 347 l 1
 102 347 l 2
 77.3333333333 347 65 356.666666667 65 376 c 0
 65 414 87.3333333333 443.666666667 132 465 c 0
 170.666666667 483.666666667 217.666666667 493 273 493 c 0
 378.333333333 493 431 443.333333333 431 344 c 2
 431 64 l 2
 431 50 438 42.6666666667 452 42 c 2
 500 39 l 1
 500 0 l 1x7140
337 94 m 1
 337 267 l 1
 255 246.333333333 199.666666667 224 171 200 c 0
 151 182.666666667 141 159.333333333 141 130 c 0
 141 108 147.666666667 89.6666666667 161 75 c 0
 175 59 193.333333333 51 216 51 c 0xb240
 248.666666667 51 289 65.3333333333 337 94 c 1
EndSplineSet
EndChar

StartChar: adieresis
Encoding: 228 228 154
Width: 512
GlyphClass: 2
Flags: W
HStem: -8 59<163.185 259.626> 0 39<431.415 500> 267 38<272.594 337> 447 46<176.444 310.674> 585 111<113.816 197.75 325.501 405.814>
VStem: 42 99<74.271 191.601> 65 110<348.593 432.215> 102 108<597.186 684.253> 309 109<602.017 683.814> 337 94<81.6123 267 301.331 419.337>
LayerCount: 2
Fore
SplineSet
418 641 m 256x3880
 418 626.333333333 412.5 613.333333333 401.5 602 c 0
 390.5 590.666666667 377.666666667 585 363 585 c 256
 348.333333333 585 335.666666667 590.5 325 601.5 c 0
 314.333333333 612.5 309 625.666666667 309 641 c 0
 309 655 314.5 667.666666667 325.5 679 c 0
 336.5 690.333333333 349 696 363 696 c 0
 377.666666667 696 390.5 690.5 401.5 679.5 c 0
 412.5 668.5 418 655.666666667 418 641 c 256x3880
210 641 m 256x39
 210 626.333333333 204.5 613.333333333 193.5 602 c 0
 182.5 590.666666667 169.666666667 585 155 585 c 0
 141 585 128.666666667 590.5 118 601.5 c 0
 107.333333333 612.5 102 625.333333333 102 640 c 256
 102 654.666666667 107.333333333 667.666666667 118 679 c 0
 128.666666667 690.333333333 141.333333333 696 156 696 c 0
 170.666666667 696 183.333333333 690.5 194 679.5 c 0
 204.666666667 668.5 210 655.666666667 210 641 c 256x39
500 0 m 1x7a40
 350 0 l 1x7a40
 337 59 l 1
 275 14.3333333333 220 -8 172 -8 c 0
 134.666666667 -8 104 3.33333333333 80 26 c 0
 54.6666666667 50 42 82.3333333333 42 123 c 0xbc40
 42 164.333333333 58.3333333333 197 91 221 c 0
 133 251 215 279 337 305 c 1
 337 348 l 2
 337 414 306.666666667 447 246 447 c 0
 219.333333333 447 195.666666667 442.666666667 175 434 c 1
 175 347 l 1xba40
 102 347 l 2xb9
 77.3333333333 347 65 356.666666667 65 376 c 0
 65 414 87.3333333333 443.666666667 132 465 c 0
 170.666666667 483.666666667 217.666666667 493 273 493 c 0
 378.333333333 493 431 443.333333333 431 344 c 2
 431 64 l 2
 431 50 438 42.6666666667 452 42 c 2
 500 39 l 1
 500 0 l 1x7a40
337 94 m 1
 337 267 l 1
 255 246.333333333 199.666666667 224 171 200 c 0
 151 182.666666667 141 159.333333333 141 130 c 0
 141 108 147.666666667 89.6666666667 161 75 c 0
 175 59 193.333333333 51 216 51 c 0xbc40
 248.666666667 51 289 65.3333333333 337 94 c 1
EndSplineSet
EndChar

StartChar: aring
Encoding: 229 229 155
Width: 512
GlyphClass: 2
Flags: W
HStem: -8 59<163.185 259.626> 0 39<431.415 500> 267 38<272.594 337> 447 46<176.444 310.674> 551 49<213.224 312.776> 740 49<213.224 312.776>
VStem: 42 99<74.271 191.601> 65 110<348.593 432.215> 144 49<620.224 719.776> 333 49<620.224 719.776> 337 94<81.6123 267 301.331 419.337>
LayerCount: 2
Fore
SplineSet
382 670 m 256x3cc0
 382 637.333333333 370.333333333 609.333333333 347 586 c 0
 323.666666667 562.666666667 295.666666667 551 263 551 c 256
 230.333333333 551 202.333333333 562.666666667 179 586 c 0
 155.666666667 609.333333333 144 637.333333333 144 670 c 256
 144 702.666666667 155.666666667 730.666666667 179 754 c 0
 202.333333333 777.333333333 230.333333333 789 263 789 c 256
 295.666666667 789 323.666666667 777.333333333 347 754 c 0
 370.333333333 730.666666667 382 702.666666667 382 670 c 256x3cc0
500 0 m 1x7d20
 350 0 l 1x7d20
 337 59 l 1
 275 14.3333333333 220 -8 172 -8 c 0
 134.666666667 -8 104 3.33333333333 80 26 c 0
 54.6666666667 50 42 82.3333333333 42 123 c 0xbe20
 42 164.333333333 58.3333333333 197 91 221 c 0
 133 251 215 279 337 305 c 1
 337 348 l 2
 337 414 306.666666667 447 246 447 c 0
 219.333333333 447 195.666666667 442.666666667 175 434 c 1
 175 347 l 1
 102 347 l 2
 77.3333333333 347 65 356.666666667 65 376 c 0
 65 414 87.3333333333 443.666666667 132 465 c 0
 170.666666667 483.666666667 217.666666667 493 273 493 c 0
 378.333333333 493 431 443.333333333 431 344 c 2
 431 64 l 2
 431 50 438 42.6666666667 452 42 c 2
 500 39 l 1
 500 0 l 1x7d20
333 670 m 256x3cc0
 333 689.333333333 326.166666667 705.833333333 312.5 719.5 c 0
 298.833333333 733.166666667 282.333333333 740 263 740 c 256
 243.666666667 740 227.166666667 733.166666667 213.5 719.5 c 0
 199.833333333 705.833333333 193 689.333333333 193 670 c 256
 193 650.666666667 199.833333333 634.166666667 213.5 620.5 c 0
 227.166666667 606.833333333 243.666666667 600 263 600 c 256
 282.333333333 600 298.833333333 606.833333333 312.5 620.5 c 0
 326.166666667 634.166666667 333 650.666666667 333 670 c 256x3cc0
337 94 m 1xbe20
 337 267 l 1
 255 246.333333333 199.666666667 224 171 200 c 0
 151 182.666666667 141 159.333333333 141 130 c 0
 141 108 147.666666667 89.6666666667 161 75 c 0
 175 59 193.333333333 51 216 51 c 0
 248.666666667 51 289 65.3333333333 337 94 c 1xbe20
EndSplineSet
EndChar

StartChar: ae
Encoding: 230 230 156
Width: 735
GlyphClass: 2
Flags: W
HStem: -8 67<470.75 631.292> -8 60<155.884 263.515> 256 43<413 596> 267 38<264.141 325> 447 46<173.672 298.767 454.287 564.408>
VStem: 42 96<70.207 192.24> 65 108<348.812 433.551> 325 88<104.562 256 299.676 399.262> 596 99<299 402.5>
LayerCount: 2
Fore
SplineSet
695 50 m 1xab80
 641.666666667 11.3333333333 586.333333333 -8 529 -8 c 0xab80
 457 -8 396.333333333 16 347 64 c 1
 283.666666667 16 225 -8 171 -8 c 0
 129.666666667 -8 97.6666666667 4 75 28 c 0
 53 50.6666666667 42 81 42 119 c 0
 42 169 63.6666666667 206.666666667 107 232 c 0
 141 252 213.666666667 276.333333333 325 305 c 1x5d80
 325 346 l 2
 325 413.333333333 295.333333333 447 236 447 c 0
 215.333333333 447 194.333333333 442.666666667 173 434 c 1
 173 347 l 1
 103 347 l 2
 77.6666666667 347 65 356.666666667 65 376 c 0
 65 414 86.3333333333 443.666666667 129 465 c 0
 165.666666667 483.666666667 209.666666667 493 261 493 c 0
 323 493 367.333333333 473.666666667 394 435 c 1
 426.666666667 473.666666667 471.666666667 493 529 493 c 0
 585 493 627.333333333 472.666666667 656 432 c 0
 682 396 695 349 695 291 c 0
 695 284.333333333 694.333333333 272.666666667 693 256 c 1
 413 256 l 1
 413 123 l 1
 455.666666667 80.3333333333 505 59 561 59 c 0
 609.666666667 59 654.333333333 76 695 110 c 1
 695 50 l 1xab80
596 299 m 1
 596 329 l 2
 596 361.666666667 589.333333333 389 576 411 c 0
 560.666666667 435 539 447 511 447 c 0
 477 447 451.666666667 431.333333333 435 400 c 0
 421 374 413.666666667 340.333333333 413 299 c 1
 596 299 l 1
325 94 m 1
 325 267 l 1
 253 247.666666667 203.666666667 228 177 208 c 0
 151 189.333333333 138 164.333333333 138 133 c 0
 138 79 163.333333333 52 214 52 c 0x5d80
 242.666666667 52 279.666666667 66 325 94 c 1
EndSplineSet
EndChar

StartChar: ccedilla
Encoding: 231 231 157
Width: 470
GlyphClass: 2
Flags: W
HStem: -225 41<184.247 302.703> -7 62<219.318 239 278 377.633> 451 42<211.893 323.495>
VStem: 37 102<144.438 354.948> 239 39<-63 -6.38037> 309 65<-176.721 -110.709> 324 109<350.472 448.172>
LayerCount: 2
Fore
SplineSet
435 41 m 1xfa
 379.666666667 11 327.333333333 -5.33333333333 278 -8 c 1
 278 -63 l 1
 296 -60.3333333333 303.666666667 -59 301 -59 c 1
 349.666666667 -59 374 -82.6666666667 374 -130 c 0
 374 -160 363 -183.666666667 341 -201 c 0
 320.333333333 -217 292.666666667 -225 258 -225 c 0
 236 -225 211 -221.666666667 183 -215 c 1
 183 -176 l 1
 208.333333333 -181.333333333 228.666666667 -184 244 -184 c 0
 287.333333333 -184 309 -170.333333333 309 -143 c 0xfc
 309 -118.333333333 293 -106 261 -106 c 0
 255 -106 247.666666667 -108 239 -112 c 1
 239 -7 l 1
 177.666666667 -1 128.666666667 24.5 92 69.5 c 0
 55.3333333333 114.5 37 170.666666667 37 238 c 0
 37 318.666666667 61 382.333333333 109 429 c 0
 153.666666667 471.666666667 210 493 278 493 c 0
 323.333333333 493 360.333333333 484.333333333 389 467 c 0
 418.333333333 449 433 424.333333333 433 393 c 0xfa
 433 374.333333333 427.166666667 360 415.5 350 c 0
 403.833333333 340 390 335 374 335 c 0xfc
 357.333333333 335 340.666666667 340.333333333 324 351 c 1
 324 439 l 1
 310 447 296 451 282 451 c 0
 238 451 203.166666667 432.333333333 177.5 395 c 0
 151.833333333 357.666666667 139 309.666666667 139 251 c 0
 139 193 153 146.333333333 181 111 c 0
 210.333333333 73.6666666667 251.666666667 55 305 55 c 0
 347.666666667 55 391 69.3333333333 435 98 c 1
 435 41 l 1xfa
EndSplineSet
EndChar

StartChar: egrave
Encoding: 232 232 158
Width: 495
GlyphClass: 2
Flags: W
HStem: -8 61<214.663 386.32> 261 45<139 359> 445 48<195.85 322.742>
VStem: 37 97<145.027 261 306 352.104> 359 100<306 396.364>
LayerCount: 2
Fore
SplineSet
323 551 m 1
 266 551 l 1
 114 648 l 2
 98.6666666667 658 91 671.333333333 91 688 c 0
 91 718 106.333333333 733 137 733 c 0
 155.666666667 733 173 724 189 706 c 2
 323 551 l 1
459 50 m 1
 397.666666667 11.3333333333 334.333333333 -8 269 -8 c 0
 203.666666667 -8 150 11.6666666667 108 51 c 0
 60.6666666667 95 37 156.666666667 37 236 c 0
 37 313.333333333 59 375.5 103 422.5 c 0
 147 469.5 203.333333333 493 272 493 c 0
 332 493 378.666666667 474 412 436 c 0
 443.333333333 400 459 351 459 289 c 0
 459 276.333333333 458.666666667 267 458 261 c 1
 134 261 l 1
 134 202.333333333 145.666666667 155 169 119 c 0
 197.666666667 75 241.666666667 53 301 53 c 0
 349 53 401.666666667 72.3333333333 459 111 c 1
 459 50 l 1
359 306 m 1
 359 328 l 2
 359 362.666666667 351 390.333333333 335 411 c 0
 317.666666667 433.666666667 293.333333333 445 262 445 c 0
 228.666666667 445 200.5 432.5 177.5 407.5 c 0
 154.5 382.5 141.666666667 348.666666667 139 306 c 1
 359 306 l 1
EndSplineSet
EndChar

StartChar: eacute
Encoding: 233 233 159
Width: 495
GlyphClass: 2
Flags: W
HStem: -8 61<214.663 386.32> 261 45<139 359> 445 48<195.85 322.742>
VStem: 37 97<145.027 261 306 352.104> 359 100<306 396.364>
LayerCount: 2
Fore
SplineSet
438 688 m 0
 438 671.333333333 430.333333333 658 415 648 c 2
 263 551 l 1
 206 551 l 1
 339 706 l 2
 354.333333333 724 372 733 392 733 c 0
 422.666666667 733 438 718 438 688 c 0
459 50 m 1
 397.666666667 11.3333333333 334.333333333 -8 269 -8 c 0
 203.666666667 -8 150 11.6666666667 108 51 c 0
 60.6666666667 95 37 156.666666667 37 236 c 0
 37 313.333333333 59 375.5 103 422.5 c 0
 147 469.5 203.333333333 493 272 493 c 0
 332 493 378.666666667 474 412 436 c 0
 443.333333333 400 459 351 459 289 c 0
 459 276.333333333 458.666666667 267 458 261 c 1
 134 261 l 1
 134 202.333333333 145.666666667 155 169 119 c 0
 197.666666667 75 241.666666667 53 301 53 c 0
 349 53 401.666666667 72.3333333333 459 111 c 1
 459 50 l 1
359 306 m 1
 359 328 l 2
 359 362.666666667 351 390.333333333 335 411 c 0
 317.666666667 433.666666667 293.333333333 445 262 445 c 0
 228.666666667 445 200.5 432.5 177.5 407.5 c 0
 154.5 382.5 141.666666667 348.666666667 139 306 c 1
 359 306 l 1
EndSplineSet
EndChar

StartChar: ecircumflex
Encoding: 234 234 160
Width: 495
GlyphClass: 2
Flags: W
HStem: -8 61<214.663 386.32> 261 45<139 359> 445 48<195.85 322.742>
VStem: 37 97<145.027 261 306 352.104> 359 100<306 396.364>
LayerCount: 2
Fore
SplineSet
418 551 m 1
 358 551 l 1
 255 650 l 1
 152 551 l 1
 92 551 l 1
 217 720 l 1
 292 720 l 1
 418 551 l 1
459 50 m 1
 397.666666667 11.3333333333 334.333333333 -8 269 -8 c 0
 203.666666667 -8 150 11.6666666667 108 51 c 0
 60.6666666667 95 37 156.666666667 37 236 c 0
 37 313.333333333 59 375.5 103 422.5 c 0
 147 469.5 203.333333333 493 272 493 c 0
 332 493 378.666666667 474 412 436 c 0
 443.333333333 400 459 351 459 289 c 0
 459 276.333333333 458.666666667 267 458 261 c 1
 134 261 l 1
 134 202.333333333 145.666666667 155 169 119 c 0
 197.666666667 75 241.666666667 53 301 53 c 0
 349 53 401.666666667 72.3333333333 459 111 c 1
 459 50 l 1
359 306 m 1
 359 328 l 2
 359 362.666666667 351 390.333333333 335 411 c 0
 317.666666667 433.666666667 293.333333333 445 262 445 c 0
 228.666666667 445 200.5 432.5 177.5 407.5 c 0
 154.5 382.5 141.666666667 348.666666667 139 306 c 1
 359 306 l 1
EndSplineSet
EndChar

StartChar: edieresis
Encoding: 235 235 161
Width: 495
GlyphClass: 2
Flags: W
HStem: -8 61<214.663 386.32> 261 45<139 359> 445 48<195.85 322.742> 585 111<110.816 195.814 318.186 403.814>
VStem: 37 97<145.027 261 306 352.104> 99 109<597.186 684.253> 306 110<597.103 683.814> 359 100<306 396.364>
LayerCount: 2
Fore
SplineSet
416 641 m 256xf2
 416 626.333333333 410.5 613.333333333 399.5 602 c 0
 388.5 590.666666667 375.666666667 585 361 585 c 256
 346.333333333 585 333.5 590.666666667 322.5 602 c 0
 311.5 613.333333333 306 626.333333333 306 641 c 0
 306 655 311.5 667.666666667 322.5 679 c 0
 333.5 690.333333333 346 696 360 696 c 0
 374.666666667 696 387.666666667 690.5 399 679.5 c 0
 410.333333333 668.5 416 655.666666667 416 641 c 256xf2
208 641 m 256xf4
 208 626.333333333 202.5 613.333333333 191.5 602 c 0
 180.5 590.666666667 167.666666667 585 153 585 c 0
 139 585 126.5 590.5 115.5 601.5 c 0
 104.5 612.5 99 625.333333333 99 640 c 256
 99 654.666666667 104.333333333 667.666666667 115 679 c 0
 125.666666667 690.333333333 138.333333333 696 153 696 c 0
 167.666666667 696 180.5 690.5 191.5 679.5 c 0
 202.5 668.5 208 655.666666667 208 641 c 256xf4
459 50 m 1xf9
 397.666666667 11.3333333333 334.333333333 -8 269 -8 c 0
 203.666666667 -8 150 11.6666666667 108 51 c 0
 60.6666666667 95 37 156.666666667 37 236 c 0
 37 313.333333333 59 375.5 103 422.5 c 0
 147 469.5 203.333333333 493 272 493 c 0
 332 493 378.666666667 474 412 436 c 0
 443.333333333 400 459 351 459 289 c 0
 459 276.333333333 458.666666667 267 458 261 c 1
 134 261 l 1
 134 202.333333333 145.666666667 155 169 119 c 0
 197.666666667 75 241.666666667 53 301 53 c 0
 349 53 401.666666667 72.3333333333 459 111 c 1
 459 50 l 1xf9
359 306 m 1
 359 328 l 2
 359 362.666666667 351 390.333333333 335 411 c 0
 317.666666667 433.666666667 293.333333333 445 262 445 c 0
 228.666666667 445 200.5 432.5 177.5 407.5 c 0
 154.5 382.5 141.666666667 348.666666667 139 306 c 1
 359 306 l 1
EndSplineSet
EndChar

StartChar: igrave
Encoding: 236 236 162
Width: 303
GlyphClass: 2
Flags: W
HStem: 0 39<34 103.585 197.415 269> 417 33<35 57.4737> 468 20G<92.7895 197>
VStem: 104 93<41.9531 417>
LayerCount: 2
Fore
SplineSet
218 551 m 1
 162 551 l 1
 10 648 l 2
 -6 658 -14 671.333333333 -14 688 c 0
 -14 718 1.66666666667 733 33 733 c 0
 52.3333333333 733 69.6666666667 724 85 706 c 2
 218 551 l 1
269 0 m 1
 34 0 l 1
 34 39 l 1
 83 42 l 2
 97 42.6666666667 104 50 104 64 c 2
 104 417 l 1
 35 417 l 1
 35 450 l 1
 157 488 l 1
 197 488 l 1
 197 64 l 2
 197 50 204 42.6666666667 218 42 c 2
 269 39 l 1
 269 0 l 1
EndSplineSet
EndChar

StartChar: iacute
Encoding: 237 237 163
Width: 303
GlyphClass: 2
Flags: W
HStem: 0 39<34 103.585 197.415 269> 417 33<35 57.4737> 468 20G<92.7895 197>
VStem: 104 93<41.9531 417>
LayerCount: 2
Fore
SplineSet
270 688 m 0
 270 671.333333333 262.333333333 658 247 648 c 2
 95 551 l 1
 38 551 l 1
 171 706 l 2
 186.333333333 724 204 733 224 733 c 0
 254.666666667 733 270 718 270 688 c 0
269 0 m 1
 34 0 l 1
 34 39 l 1
 83 42 l 2
 97 42.6666666667 104 50 104 64 c 2
 104 417 l 1
 35 417 l 1
 35 450 l 1
 157 488 l 1
 197 488 l 1
 197 64 l 2
 197 50 204 42.6666666667 218 42 c 2
 269 39 l 1
 269 0 l 1
EndSplineSet
EndChar

StartChar: icircumflex
Encoding: 238 238 164
Width: 303
GlyphClass: 2
Flags: W
HStem: 0 39<34 103.585 197.415 269> 417 33<35 57.4737> 468 20G<92.7895 197>
VStem: 104 93<41.9531 417>
LayerCount: 2
Fore
SplineSet
314 551 m 1
 254 551 l 1
 150 650 l 1
 47 551 l 1
 -13 551 l 1
 113 720 l 1
 188 720 l 1
 314 551 l 1
269 0 m 1
 34 0 l 1
 34 39 l 1
 83 42 l 2
 97 42.6666666667 104 50 104 64 c 2
 104 417 l 1
 35 417 l 1
 35 450 l 1
 157 488 l 1
 197 488 l 1
 197 64 l 2
 197 50 204 42.6666666667 218 42 c 2
 269 39 l 1
 269 0 l 1
EndSplineSet
EndChar

StartChar: idieresis
Encoding: 239 239 165
Width: 303
GlyphClass: 2
Flags: W
HStem: 0 39<34 103.585 197.415 269> 417 33<35 57.4737> 468 20G<92.7895 197> 585 111<4.81641 89.8143 216.501 296.814>
VStem: -7 109<597.186 684.253> 104 93<41.9531 417> 200 109<602.017 683.814>
LayerCount: 2
Fore
SplineSet
309 641 m 256
 309 626.333333333 303.5 613.333333333 292.5 602 c 0
 281.5 590.666666667 268.666666667 585 254 585 c 256
 239.333333333 585 226.666666667 590.5 216 601.5 c 0
 205.333333333 612.5 200 625.666666667 200 641 c 0
 200 655 205.5 667.666666667 216.5 679 c 0
 227.5 690.333333333 240 696 254 696 c 0
 268.666666667 696 281.5 690.5 292.5 679.5 c 0
 303.5 668.5 309 655.666666667 309 641 c 256
102 641 m 256
 102 626.333333333 96.5 613.333333333 85.5 602 c 0
 74.5 590.666666667 61.6666666667 585 47 585 c 0
 33 585 20.5 590.5 9.5 601.5 c 0
 -1.5 612.5 -7 625.333333333 -7 640 c 256
 -7 654.666666667 -1.66666666667 667.666666667 9 679 c 0
 19.6666666667 690.333333333 32.3333333333 696 47 696 c 0
 61.6666666667 696 74.5 690.5 85.5 679.5 c 0
 96.5 668.5 102 655.666666667 102 641 c 256
269 0 m 1
 34 0 l 1
 34 39 l 1
 83 42 l 2
 97 42.6666666667 104 50 104 64 c 2
 104 417 l 1
 35 417 l 1
 35 450 l 1
 157 488 l 1
 197 488 l 1
 197 64 l 2
 197 50 204 42.6666666667 218 42 c 2
 269 39 l 1
 269 0 l 1
EndSplineSet
EndChar

StartChar: ntilde
Encoding: 241 241 166
Width: 577
GlyphClass: 2
Flags: W
HStem: 0 39<25 94.5847 188.415 251 331 393.585 487.415 552> 417 71<255.266 369.613> 417 33<25 47.4737> 585 62<297.04 408.416> 633 62<163.702 274.941>
VStem: 95 93<41.9531 401.855> 112 40<585 619.563> 394 93<41.9531 391.996> 419 40<660.437 695>
LayerCount: 2
Fore
SplineSet
459 695 m 1x8a80
 440.333333333 621.666666667 401.666666667 585 343 585 c 0x9280
 326.333333333 585 304.833333333 593 278.5 609 c 0
 252.166666667 625 227.666666667 633 205 633 c 0x8a80
 191.666666667 633 179.833333333 628.166666667 169.5 618.5 c 0
 159.166666667 608.833333333 153.333333333 597.666666667 152 585 c 1
 112 585 l 1x9280
 130.666666667 658.333333333 169.333333333 695 228 695 c 0x8a80
 244.666666667 695 266.333333333 687 293 671 c 0
 319.666666667 655 344.333333333 647 367 647 c 0x9280
 380.333333333 647 392 651.833333333 402 661.5 c 0
 412 671.166666667 417.666666667 682.333333333 419 695 c 1
 459 695 l 1x8a80
552 0 m 1
 331 0 l 1
 331 39 l 1
 373 42 l 2
 387 42.6666666667 394 50 394 64 c 2
 394 323 l 2
 394 388.333333333 362 421 298 421 c 0
 263.333333333 421 226.666666667 411.333333333 188 392 c 1
 188 64 l 2
 188 50 195 42.6666666667 209 42 c 2
 251 39 l 1
 251 0 l 1
 25 0 l 1
 25 39 l 1
 74 42 l 2
 88 42.6666666667 95 50 95 64 c 2
 95 417 l 1
 25 417 l 1
 25 450 l 1xa5
 147 488 l 1
 188 488 l 1
 188 432 l 1
 259.333333333 472.666666667 314.333333333 493 353 493 c 0
 442.333333333 493 487 442 487 340 c 2
 487 64 l 2xc5
 487 50 494 42.6666666667 508 42 c 2
 552 39 l 1
 552 0 l 1
EndSplineSet
EndChar

StartChar: ograve
Encoding: 242 242 167
Width: 554
GlyphClass: 2
Flags: W
HStem: -8 45<209.785 341.158> 448 45<208.326 340.655>
VStem: 37 105<128.227 355.409> 409 104<128.694 354.811>
LayerCount: 2
Fore
SplineSet
333 551 m 1
 276 551 l 1
 124 648 l 2
 108.666666667 658 101 671.333333333 101 688 c 0
 101 718 116.333333333 733 147 733 c 0
 166.333333333 733 183.666666667 724 199 706 c 2
 333 551 l 1
513 241 m 0
 513 169 491.333333333 109.666666667 448 63 c 0
 404 15.6666666667 346 -8 274 -8 c 256
 202 -8 144.333333333 15.3333333333 101 62 c 0
 59 108 37.6666666667 167.666666667 37 241 c 256
 37 314.333333333 58.3333333333 374.333333333 101 421 c 0
 145 469 203.333333333 493 276 493 c 256
 348.666666667 493 406.666666667 468.666666667 450 420 c 0
 492 373.333333333 513 313.666666667 513 241 c 0
409 242 m 0
 409 300 398 348 376 386 c 0
 351.333333333 427.333333333 317.666666667 448 275 448 c 0
 231 448 197.333333333 427.333333333 174 386 c 0
 152.666666667 348.666666667 142 300.666666667 142 242 c 0
 142 184 153 136.333333333 175 99 c 0
 199 57.6666666667 232.333333333 37 275 37 c 0
 318.333333333 37 352 57.6666666667 376 99 c 0
 398 135.666666667 409 183.333333333 409 242 c 0
EndSplineSet
EndChar

StartChar: oacute
Encoding: 243 243 168
Width: 554
GlyphClass: 2
Flags: W
HStem: -8 45<209.785 341.158> 448 45<208.326 340.655>
VStem: 37 105<128.227 355.409> 409 104<128.694 354.811>
LayerCount: 2
Fore
SplineSet
455 688 m 0
 455 671.333333333 447.333333333 658 432 648 c 2
 280 551 l 1
 223 551 l 1
 356 706 l 2
 371.333333333 724 389 733 409 733 c 0
 439.666666667 733 455 718 455 688 c 0
513 241 m 0
 513 169 491.333333333 109.666666667 448 63 c 0
 404 15.6666666667 346 -8 274 -8 c 256
 202 -8 144.333333333 15.3333333333 101 62 c 0
 59 108 37.6666666667 167.666666667 37 241 c 256
 37 314.333333333 58.3333333333 374.333333333 101 421 c 0
 145 469 203.333333333 493 276 493 c 256
 348.666666667 493 406.666666667 468.666666667 450 420 c 0
 492 373.333333333 513 313.666666667 513 241 c 0
409 242 m 0
 409 300 398 348 376 386 c 0
 351.333333333 427.333333333 317.666666667 448 275 448 c 0
 231 448 197.333333333 427.333333333 174 386 c 0
 152.666666667 348.666666667 142 300.666666667 142 242 c 0
 142 184 153 136.333333333 175 99 c 0
 199 57.6666666667 232.333333333 37 275 37 c 0
 318.333333333 37 352 57.6666666667 376 99 c 0
 398 135.666666667 409 183.333333333 409 242 c 0
EndSplineSet
EndChar

StartChar: ocircumflex
Encoding: 244 244 169
Width: 554
GlyphClass: 2
Flags: W
HStem: -8 45<209.785 341.158> 448 45<208.826 341.155>
VStem: 37 105<128.227 354.161> 409 104<128.694 356.157>
LayerCount: 2
Fore
SplineSet
439 551 m 1
 379 551 l 1
 276 650 l 1
 172 551 l 1
 112 551 l 1
 238 720 l 1
 313 720 l 1
 439 551 l 1
513 241 m 0
 513 169 491.333333333 109.666666667 448 63 c 0
 404 15.6666666667 346 -8 274 -8 c 256
 202 -8 144.333333333 15.3333333333 101 62 c 0
 59 108 37.6666666667 167.666666667 37 241 c 0
 37 313.666666667 58.6666666667 373.666666667 102 421 c 0
 146 469 204.333333333 493 277 493 c 256
 349.666666667 493 407.666666667 468.666666667 451 420 c 0
 492.333333333 373.333333333 513 313.666666667 513 241 c 0
409 242 m 0
 409 300 398 348 376 386 c 0
 351.333333333 427.333333333 317.666666667 448 275 448 c 0
 231 448 197.333333333 427.333333333 174 386 c 0
 152.666666667 348.666666667 142 300.666666667 142 242 c 0
 142 184 153 136.333333333 175 99 c 0
 199 57.6666666667 232.333333333 37 275 37 c 0
 318.333333333 37 352 57.6666666667 376 99 c 0
 398 135.666666667 409 183.333333333 409 242 c 0
EndSplineSet
EndChar

StartChar: otilde
Encoding: 245 245 170
Width: 554
GlyphClass: 2
Flags: W
HStem: -8 45<209.785 341.158> 448 45<208.326 340.655> 585 62<292.04 403.416> 633 62<158.702 269.941>
VStem: 37 105<128.227 355.409> 107 40<585 619.563> 409 104<128.694 354.811> 414 40<660.437 695>
LayerCount: 2
Fore
SplineSet
454 695 m 1xd5
 435.333333333 621.666666667 396.666666667 585 338 585 c 0xe5
 321.333333333 585 299.833333333 593 273.5 609 c 0
 247.166666667 625 222.666666667 633 200 633 c 0xd5
 186.666666667 633 174.833333333 628.166666667 164.5 618.5 c 0
 154.166666667 608.833333333 148.333333333 597.666666667 147 585 c 1
 107 585 l 1xe5
 125.666666667 658.333333333 164.333333333 695 223 695 c 0xd5
 239.666666667 695 261.333333333 687 288 671 c 0
 314.666666667 655 339.333333333 647 362 647 c 0xe5
 375.333333333 647 387 651.833333333 397 661.5 c 0
 407 671.166666667 412.666666667 682.333333333 414 695 c 1
 454 695 l 1xd5
513 241 m 0xca
 513 169 491.333333333 109.666666667 448 63 c 0
 404 15.6666666667 346 -8 274 -8 c 256
 202 -8 144.333333333 15.3333333333 101 62 c 0
 59 108 37.6666666667 167.666666667 37 241 c 256
 37 314.333333333 58.3333333333 374.333333333 101 421 c 0
 145 469 203.333333333 493 276 493 c 256
 348.666666667 493 406.666666667 468.666666667 450 420 c 0
 492 373.333333333 513 313.666666667 513 241 c 0xca
409 242 m 0
 409 300 398 348 376 386 c 0
 351.333333333 427.333333333 317.666666667 448 275 448 c 0
 231 448 197.333333333 427.333333333 174 386 c 0
 152.666666667 348.666666667 142 300.666666667 142 242 c 0
 142 184 153 136.333333333 175 99 c 0
 199 57.6666666667 232.333333333 37 275 37 c 0
 318.333333333 37 352 57.6666666667 376 99 c 0
 398 135.666666667 409 183.333333333 409 242 c 0
EndSplineSet
EndChar

StartChar: odieresis
Encoding: 246 246 171
Width: 554
GlyphClass: 2
Flags: W
HStem: -8 45<209.785 341.158> 448 45<208.326 340.655> 585 111<131.816 216.814 343.501 423.814>
VStem: 37 105<128.227 355.409> 120 109<597.186 684.253> 327 109<602.017 683.814> 409 104<128.694 354.811>
LayerCount: 2
Fore
SplineSet
436 641 m 256xe4
 436 626.333333333 430.5 613.333333333 419.5 602 c 0
 408.5 590.666666667 395.666666667 585 381 585 c 256
 366.333333333 585 353.666666667 590.5 343 601.5 c 0
 332.333333333 612.5 327 625.666666667 327 641 c 0
 327 655 332.5 667.666666667 343.5 679 c 0
 354.5 690.333333333 367 696 381 696 c 0
 395.666666667 696 408.5 690.5 419.5 679.5 c 0
 430.5 668.5 436 655.666666667 436 641 c 256xe4
229 641 m 256xe8
 229 626.333333333 223.5 613.333333333 212.5 602 c 0
 201.5 590.666666667 188.666666667 585 174 585 c 0
 160 585 147.5 590.5 136.5 601.5 c 0
 125.5 612.5 120 625.333333333 120 640 c 256
 120 654.666666667 125.333333333 667.666666667 136 679 c 0
 146.666666667 690.333333333 159.333333333 696 174 696 c 0
 188.666666667 696 201.5 690.5 212.5 679.5 c 0
 223.5 668.5 229 655.666666667 229 641 c 256xe8
513 241 m 0xf2
 513 169 491.333333333 109.666666667 448 63 c 0
 404 15.6666666667 346 -8 274 -8 c 256
 202 -8 144.333333333 15.3333333333 101 62 c 0
 59 108 37.6666666667 167.666666667 37 241 c 256
 37 314.333333333 58.3333333333 374.333333333 101 421 c 0
 145 469 203.333333333 493 276 493 c 256
 348.666666667 493 406.666666667 468.666666667 450 420 c 0
 492 373.333333333 513 313.666666667 513 241 c 0xf2
409 242 m 0
 409 300 398 348 376 386 c 0
 351.333333333 427.333333333 317.666666667 448 275 448 c 0
 231 448 197.333333333 427.333333333 174 386 c 0
 152.666666667 348.666666667 142 300.666666667 142 242 c 0
 142 184 153 136.333333333 175 99 c 0
 199 57.6666666667 232.333333333 37 275 37 c 0
 318.333333333 37 352 57.6666666667 376 99 c 0
 398 135.666666667 409 183.333333333 409 242 c 0
EndSplineSet
EndChar

StartChar: divide
Encoding: 247 247 172
Width: 833
GlyphClass: 2
Flags: W
HStem: 66 120<374.564 458.951> 270 57<124 709> 412 120<374.564 458.951>
VStem: 356 121<84.0485 167.436 430.049 513.951>
LayerCount: 2
Fore
SplineSet
477 472 m 0
 477 455.333333333 471.166666667 441.166666667 459.5 429.5 c 0
 447.833333333 417.833333333 433.666666667 412 417 412 c 256
 400.333333333 412 386 417.833333333 374 429.5 c 0
 362 441.166666667 356 455.333333333 356 472 c 0
 356 488.666666667 362 502.833333333 374 514.5 c 0
 386 526.166666667 400.333333333 532 417 532 c 256
 433.666666667 532 447.833333333 526.166666667 459.5 514.5 c 0
 471.166666667 502.833333333 477 488.666666667 477 472 c 0
709 270 m 1
 124 270 l 1
 124 327 l 1
 709 327 l 1
 709 270 l 1
477 125 m 0
 477 109 471.166666667 95.1666666667 459.5 83.5 c 0
 447.833333333 71.8333333333 433.666666667 66 417 66 c 256
 400.333333333 66 386 71.8333333333 374 83.5 c 0
 362 95.1666666667 356 109 356 125 c 0
 356 141.666666667 362 156 374 168 c 0
 386 180 400.333333333 186 417 186 c 256
 433.666666667 186 447.833333333 180 459.5 168 c 0
 471.166666667 156 477 141.666666667 477 125 c 0
EndSplineSet
EndChar

StartChar: oslash
Encoding: 248 248 173
Width: 547
GlyphClass: 2
Flags: W
HStem: -8 45<205.951 342.719> 447 46<206.698 343.096>
VStem: 37 103<130.506 354.26> 409 104<131.802 352.577>
LayerCount: 2
Fore
SplineSet
513 243 m 0
 513 172.333333333 492 113.333333333 450 66 c 0
 406 16.6666666667 348.333333333 -8 277 -8 c 0
 230.333333333 -8 192 0.666666666667 162 18 c 1
 105 -82 l 1
 70 -61 l 1
 128 40 l 1
 67.3333333333 90 37 157 37 241 c 0
 37 313.666666667 58.6666666667 373.333333333 102 420 c 0
 146 468.666666667 204 493 276 493 c 0
 314 493 347 486 375 472 c 1
 426 561 l 1
 462 541 l 1
 411 452 l 1
 479 402 513 332.333333333 513 243 c 0
347 422 m 1
 327.666666667 438.666666667 303.333333333 447 274 447 c 0
 230.666666667 447 196.666666667 426.666666667 172 386 c 0
 150.666666667 349.333333333 140 302 140 244 c 0
 140 186 149 141 167 109 c 1
 347 422 l 1
409 240 m 0
 409 303.333333333 397.666666667 352.666666667 375 388 c 1
 192 71 l 1
 213.333333333 48.3333333333 240.666666667 37 274 37 c 0
 318.666666667 37 353 57.3333333333 377 98 c 0
 398.333333333 134.666666667 409 182 409 240 c 0
EndSplineSet
EndChar

StartChar: ugrave
Encoding: 249 249 174
Width: 568
GlyphClass: 2
Flags: W
HStem: -8 68<215.87 319.965> 0 39<482.435 548> 421 34<21 43.6579 320 342.474> 473 20G<79.2632 185 377.789 482>
VStem: 91 94<92.3315 421> 390 92<42.0002 57 76.5103 421>
LayerCount: 2
Fore
SplineSet
356 551 m 1x3c
 299 551 l 1
 147 648 l 2
 131.666666667 658 124 671.333333333 124 688 c 0
 124 718 139.333333333 733 170 733 c 0
 190 733 207.666666667 724 223 706 c 2
 356 551 l 1x3c
548 0 m 1x7c
 390 0 l 1x7c
 390 57 l 1
 333.333333333 13.6666666667 279.666666667 -8 229 -8 c 0
 137 -8 91 44.6666666667 91 150 c 2
 91 421 l 1
 21 421 l 1
 21 455 l 1
 144 493 l 1
 185 493 l 1
 185 169 l 2
 185 96.3333333333 217 60 281 60 c 0xbc
 319.666666667 60 356 68.6666666667 390 86 c 1
 390 421 l 1
 320 421 l 1
 320 455 l 1
 442 493 l 1
 482 493 l 1
 482 64 l 2
 482 50 489.333333333 42.6666666667 504 42 c 2
 548 39 l 1
 548 0 l 1x7c
EndSplineSet
EndChar

StartChar: uacute
Encoding: 250 250 175
Width: 568
GlyphClass: 2
Flags: W
HStem: -8 68<215.87 319.965> 0 39<482.435 548> 421 34<21 43.6579 320 342.474> 473 20G<79.2632 185 377.789 482>
VStem: 91 94<92.3315 421> 390 92<42.0002 57 76.5103 421>
LayerCount: 2
Fore
SplineSet
460 688 m 0x3c
 460 670.666666667 452.666666667 657.333333333 438 648 c 2
 286 551 l 1
 229 551 l 1
 362 706 l 2
 377.333333333 724 395 733 415 733 c 0
 445 733 460 718 460 688 c 0x3c
548 0 m 1x7c
 390 0 l 1x7c
 390 57 l 1
 333.333333333 13.6666666667 279.666666667 -8 229 -8 c 0
 137 -8 91 44.6666666667 91 150 c 2
 91 421 l 1
 21 421 l 1
 21 455 l 1
 144 493 l 1
 185 493 l 1
 185 169 l 2
 185 96.3333333333 217 60 281 60 c 0xbc
 319.666666667 60 356 68.6666666667 390 86 c 1
 390 421 l 1
 320 421 l 1
 320 455 l 1
 442 493 l 1
 482 493 l 1
 482 64 l 2
 482 50 489.333333333 42.6666666667 504 42 c 2
 548 39 l 1
 548 0 l 1x7c
EndSplineSet
EndChar

StartChar: ucircumflex
Encoding: 251 251 176
Width: 568
GlyphClass: 2
Flags: W
HStem: -8 68<215.87 319.965> 0 39<482.435 548> 421 34<21 43.6579 320 342.474> 473 20G<79.2632 185 377.789 482>
VStem: 91 94<92.3315 421> 390 92<42.0002 57 76.5103 421>
LayerCount: 2
Fore
SplineSet
439 551 m 1x3c
 379 551 l 1
 276 650 l 1
 172 551 l 1
 112 551 l 1
 238 720 l 1
 313 720 l 1
 439 551 l 1x3c
548 0 m 1x7c
 390 0 l 1x7c
 390 57 l 1
 333.333333333 13.6666666667 279.666666667 -8 229 -8 c 0
 137 -8 91 44.6666666667 91 150 c 2
 91 421 l 1
 21 421 l 1
 21 455 l 1
 144 493 l 1
 185 493 l 1
 185 169 l 2
 185 96.3333333333 217 60 281 60 c 0xbc
 319.666666667 60 356 68.6666666667 390 86 c 1
 390 421 l 1
 320 421 l 1
 320 455 l 1
 442 493 l 1
 482 493 l 1
 482 64 l 2
 482 50 489.333333333 42.6666666667 504 42 c 2
 548 39 l 1
 548 0 l 1x7c
EndSplineSet
EndChar

StartChar: udieresis
Encoding: 252 252 177
Width: 568
GlyphClass: 2
Flags: W
HStem: -8 68<215.87 319.965> 0 39<482.435 548> 421 34<21 43.6579 320 342.474> 473 20G<79.2632 185 377.789 482> 585 111<147.816 232.367 355.25 439.814>
VStem: 91 94<92.3315 421> 136 109<597.633 684.253> 343 109<597.103 683.814> 390 92<42.0002 57 76.5103 421>
LayerCount: 2
Fore
SplineSet
452 641 m 256x39
 452 626.333333333 446.5 613.333333333 435.5 602 c 0
 424.5 590.666666667 411.666666667 585 397 585 c 256
 382.333333333 585 369.666666667 590.666666667 359 602 c 0
 348.333333333 613.333333333 343 626.333333333 343 641 c 0
 343 655 348.5 667.666666667 359.5 679 c 0
 370.5 690.333333333 383 696 397 696 c 0
 411.666666667 696 424.5 690.5 435.5 679.5 c 0
 446.5 668.5 452 655.666666667 452 641 c 256x39
245 641 m 256x3a
 245 626.333333333 239.333333333 613.333333333 228 602 c 0
 216.666666667 590.666666667 203.666666667 585 189 585 c 0
 175 585 162.666666667 590.5 152 601.5 c 0
 141.333333333 612.5 136 625.333333333 136 640 c 256
 136 654.666666667 141.333333333 667.666666667 152 679 c 0
 162.666666667 690.333333333 175.333333333 696 190 696 c 0
 204.666666667 696 217.5 690.5 228.5 679.5 c 0
 239.5 668.5 245 655.666666667 245 641 c 256x3a
548 0 m 1x7c80
 390 0 l 1x7c80
 390 57 l 1
 333.333333333 13.6666666667 279.666666667 -8 229 -8 c 0
 137 -8 91 44.6666666667 91 150 c 2
 91 421 l 1
 21 421 l 1
 21 455 l 1
 144 493 l 1
 185 493 l 1
 185 169 l 2
 185 96.3333333333 217 60 281 60 c 0xbc80
 319.666666667 60 356 68.6666666667 390 86 c 1
 390 421 l 1
 320 421 l 1
 320 455 l 1
 442 493 l 1
 482 493 l 1
 482 64 l 2
 482 50 489.333333333 42.6666666667 504 42 c 2
 548 39 l 1
 548 0 l 1x7c80
EndSplineSet
EndChar

StartChar: ydieresis
Encoding: 255 255 178
Width: 529
GlyphClass: 2
Flags: W
HStem: -218 21G<91.6667 119> 444 38<10 65 183 231 342 389 468 520> 585 111<134.816 219.814 342.633 427.184>
VStem: 123 109<597.186 684.253> 330 109<597.103 683.367>
LayerCount: 2
Fore
SplineSet
439 641 m 256
 439 626.333333333 433.666666667 613.333333333 423 602 c 0
 412.333333333 590.666666667 399.666666667 585 385 585 c 256
 370.333333333 585 357.5 590.666666667 346.5 602 c 0
 335.5 613.333333333 330 626.333333333 330 641 c 0
 330 655 335.666666667 667.666666667 347 679 c 0
 358.333333333 690.333333333 371 696 385 696 c 0
 399.666666667 696 412.333333333 690.5 423 679.5 c 0
 433.666666667 668.5 439 655.666666667 439 641 c 256
232 641 m 256
 232 626.333333333 226.5 613.333333333 215.5 602 c 0
 204.5 590.666666667 191.666666667 585 177 585 c 0
 163 585 150.5 590.5 139.5 601.5 c 0
 128.5 612.5 123 625.333333333 123 640 c 256
 123 654.666666667 128.333333333 667.666666667 139 679 c 0
 149.666666667 690.333333333 162.333333333 696 177 696 c 0
 191.666666667 696 204.5 690.5 215.5 679.5 c 0
 226.5 668.5 232 655.666666667 232 641 c 256
520 444 m 1
 468 438 l 1
 276 -31 l 2
 247.333333333 -101.666666667 218.666666667 -151 190 -179 c 0
 164 -205 135 -218 103 -218 c 0
 80.3333333333 -218 62.3333333333 -212 49 -200 c 0
 36.3333333333 -189.333333333 30 -176 30 -160 c 0
 30 -138 40.6666666667 -118 62 -100 c 1
 156 -143 l 1
 186 -113 212.333333333 -65 235 1 c 1
 65 438 l 1
 10 444 l 1
 10 482 l 1
 231 482 l 1
 231 444 l 1
 183 441 l 2
 172.333333333 440.333333333 167 435 167 425 c 0
 167 423 167.333333333 421 168 419 c 2
 284 123 l 1
 403 419 l 2
 405 423.666666667 404.5 428.333333333 401.5 433 c 0
 398.5 437.666666667 394.333333333 440.333333333 389 441 c 2
 342 444 l 1
 342 482 l 1
 520 482 l 1
 520 444 l 1
EndSplineSet
EndChar

StartChar: OE
Encoding: 338 338 179
Width: 997
GlyphClass: 2
Flags: W
HStem: -9 56<269.08 438.165> 0 47<644 895.999> 324 50<644 793.422> 625 55<269.34 435.707> 625 46<644 860.999>
VStem: 42 115<197.209 472.447> 550 94<49 118 185.904 324 374 482.547 556 623> 802 51<237 290.667 406.333 460> 875 59<522 563> 913 56<126.235 167>
LayerCount: 2
Fore
SplineSet
969 0 m 1x6f40
 550 0 l 1x6f40
 550 118 l 1
 532.666666667 82.6666666667 507.333333333 53.6666666667 474 31 c 0
 434.666666667 4.33333333333 390 -9 340 -9 c 0
 250.666666667 -9 178.333333333 24.3333333333 123 91 c 0
 69 155.666666667 42 237 42 335 c 0
 42 431 68 511.333333333 120 576 c 0
 176 645.333333333 250.666666667 680 344 680 c 0xb740
 442 680 510.666666667 638.666666667 550 556 c 1
 550 671 l 1
 934 671 l 1
 934 522 l 1
 875 522 l 1x2f80
 861 604 l 2
 859 616.666666667 853 623 843 623 c 2
 644 623 l 1
 644 374 l 1
 776 374 l 2
 786 374 791.666666667 379.666666667 793 391 c 2
 802 460 l 1
 853 460 l 1
 853 237 l 1
 802 237 l 1
 793 306 l 2
 791.666666667 318 785.666666667 324 775 324 c 2
 644 324 l 1
 644 49 l 1
 879 49 l 2
 888.333333333 49 894 55.3333333333 896 68 c 2
 913 167 l 1
 969 167 l 1
 969 0 l 1x6f40
552 334 m 256
 552 418 534.666666667 486.666666667 500 540 c 0
 464 596.666666667 415.666666667 625 355 625 c 0
 290.333333333 625 240.333333333 596.333333333 205 539 c 0
 173 487 157 419.333333333 157 336 c 0
 157 252.666666667 173.333333333 184.666666667 206 132 c 0
 241.333333333 75.3333333333 290.666666667 47 354 47 c 0xb7
 415.333333333 47 464 74.3333333333 500 129 c 0
 534.666666667 181.666666667 552 250 552 334 c 256
EndSplineSet
EndChar

StartChar: oe
Encoding: 339 339 180
Width: 828
GlyphClass: 2
Flags: W
HStem: -9 67<566.599 722.593> -9 46<205.214 329.186> 261 45<492 688> 446 47<203.598 330.615 544.436 655.776>
VStem: 37 104<126.377 356.685> 392 95<147.804 261 306 366.934> 688 101<306 400.5>
LayerCount: 2
Fore
SplineSet
789 289 m 0x7e
 789 276.333333333 788.666666667 267 788 261 c 1
 487 261 l 1
 487 204.333333333 498.666666667 158 522 122 c 0
 550.666666667 79.3333333333 593.333333333 58 650 58 c 0
 694.666666667 58 740.666666667 75.6666666667 788 111 c 1
 788 50 l 1
 733.333333333 10.6666666667 676.333333333 -9 617 -9 c 0xbe
 543 -9 484 23 440 87 c 1
 392 23 333.333333333 -9 264 -9 c 0
 194.666666667 -9 139 15.6666666667 97 65 c 0
 57 111 37 169.666666667 37 241 c 0
 37 313 57 372.333333333 97 419 c 0
 139 468.333333333 195.333333333 493 266 493 c 0
 309.333333333 493 347.666666667 483 381 463 c 0
 409.666666667 446.333333333 431.333333333 425 446 399 c 1
 463.333333333 427.666666667 487 450.5 517 467.5 c 0
 547 484.5 579 493 613 493 c 0
 669.666666667 493 713.666666667 474 745 436 c 0
 774.333333333 400 789 351 789 289 c 0x7e
688 306 m 1
 688 328 l 2
 688 362 681 389.666666667 667 411 c 0
 651.666666667 434.333333333 630.333333333 446 603 446 c 0
 572.333333333 446 546.666666667 432.333333333 526 405 c 0
 506.666666667 379.666666667 495.333333333 346.666666667 492 306 c 1
 688 306 l 1
392 239 m 0
 392 299.666666667 382 348.333333333 362 385 c 0
 340 425.666666667 308.333333333 446 267 446 c 256
 225.666666667 446 193.666666667 425.666666667 171 385 c 0
 151 348.333333333 141 301.333333333 141 244 c 0
 141 185.333333333 151.333333333 137 172 99 c 0
 195.333333333 57.6666666667 227 37 267 37 c 0x7e
 307.666666667 37 339 57.3333333333 361 98 c 0
 381.666666667 134.666666667 392 181.666666667 392 239 c 0
EndSplineSet
EndChar

StartChar: Ydieresis
Encoding: 376 376 181
Width: 625
GlyphClass: 2
Flags: W
HStem: 0 43<176 259.656 360.328 445> 629 42<10 43.8333 197 247 412 468 577.2 615> 757 111<179.633 264.184 387.25 472.184>
VStem: 167 109<768.747 855.367> 260 100<47.0002 270> 375 109<768.658 855.814>
LayerCount: 2
Fore
SplineSet
484 813 m 256xe4
 484 798.333333333 478.666666667 785.333333333 468 774 c 0
 457.333333333 762.666666667 444.333333333 757 429 757 c 256
 414.333333333 757 401.666666667 762.666666667 391 774 c 0
 380.333333333 785.333333333 375 798.333333333 375 813 c 0
 375 827 380.5 839.666666667 391.5 851 c 0
 402.5 862.333333333 415 868 429 868 c 0
 443.666666667 868 456.5 862.5 467.5 851.5 c 0
 478.5 840.5 484 827.666666667 484 813 c 256xe4
276 813 m 256xf4
 276 798.333333333 270.666666667 785.333333333 260 774 c 0xec
 249.333333333 762.666666667 236.333333333 757 221 757 c 0
 207 757 194.5 762.5 183.5 773.5 c 0
 172.5 784.5 167 797.333333333 167 812 c 256xf4
 167 826.666666667 172.666666667 839.666666667 184 851 c 0
 195.333333333 862.333333333 208 868 222 868 c 0
 236.666666667 868 249.333333333 862.5 260 851.5 c 0xec
 270.666666667 840.5 276 827.666666667 276 813 c 256xf4
615 629 m 1
 561 619 l 1
 360 285 l 1
 360 69 l 2
 360 55 367 47.6666666667 381 47 c 2
 445 43 l 1
 445 0 l 1
 176 0 l 1
 176 43 l 1
 238 47 l 2
 252.666666667 47.6666666667 260 55 260 69 c 2
 260 270 l 1
 68 617 l 1
 10 629 l 1
 10 671 l 1
 247 671 l 1
 247 629 l 1
 197 624 l 2
 183 622.666666667 179 616 185 604 c 2
 325 342 l 1
 480 601 l 2
 481.333333333 603 482 605.333333333 482 608 c 0
 482 616 477.333333333 620.666666667 468 622 c 2
 412 629 l 1
 412 671 l 1
 615 671 l 1
 615 629 l 1
EndSplineSet
EndChar

StartChar: florin
Encoding: 402 402 182
Width: 562
GlyphClass: 2
Flags: W
HStem: 316 53<104 218 310 470> 663 20G<391.333 440>
VStem: 218 92<13.5 316 369 554.688>
LayerCount: 2
Fore
SplineSet
514 618 m 0
 514 590.666666667 497.666666667 569.333333333 465 554 c 1
 378 631 l 1
 353.333333333 618.333333333 336.333333333 600.666666667 327 578 c 0
 315 550.666666667 309 508.333333333 309 451 c 2
 309 369 l 1
 470 369 l 1
 470 316 l 1
 310 316 l 1
 310 175 l 2
 310 50.3333333333 282.333333333 -40.3333333333 227 -97 c 0
 183.666666667 -141.666666667 135.333333333 -164 82 -164 c 0
 58 -164 39.5 -158.333333333 26.5 -147 c 0
 13.5 -135.666666667 7 -122 7 -106 c 0
 7 -80.6666666667 20.6666666667 -59 48 -41 c 1
 150 -105 l 1
 195.333333333 -74.3333333333 218 -19.3333333333 218 60 c 2
 218 316 l 1
 104 316 l 1
 104 369 l 1
 218 369 l 1
 218 477.666666667 230 549.333333333 254 584 c 0
 299.333333333 650 356.666666667 683 426 683 c 0
 454 683 476.333333333 676 493 662 c 0
 507 649.333333333 514 634.666666667 514 618 c 0
EndSplineSet
EndChar

StartChar: circumflex
Encoding: 710 710 183
Width: 327
GlyphClass: 2
Flags: W
HStem: 551 169
VStem: 0 327
LayerCount: 2
Fore
SplineSet
327 551 m 1
 267 551 l 1
 164 650 l 1
 60 551 l 1
 0 551 l 1
 126 720 l 1
 201 720 l 1
 327 551 l 1
EndSplineSet
EndChar

StartChar: tilde
Encoding: 732 732 184
Width: 347
GlyphClass: 2
Flags: W
HStem: 585 62<184.059 295.298> 633 62<50.5836 161.96>
VStem: 0 40<585 619.563> 307 40<660.437 695>
LayerCount: 2
Fore
SplineSet
347 695 m 1x70
 328.333333333 621.666666667 289.666666667 585 231 585 c 0xb0
 214.333333333 585 192.666666667 593 166 609 c 0
 139.333333333 625 114.666666667 633 92 633 c 0x70
 78.6666666667 633 67 628.166666667 57 618.5 c 0
 47 608.833333333 41.3333333333 597.666666667 40 585 c 1
 0 585 l 1xb0
 18.6666666667 658.333333333 57.3333333333 695 116 695 c 0x70
 132.666666667 695 154.166666667 687 180.5 671 c 0
 206.833333333 655 231.333333333 647 254 647 c 0xb0
 267.333333333 647 279.166666667 651.833333333 289.5 661.5 c 0
 299.833333333 671.166666667 305.666666667 682.333333333 307 695 c 1
 347 695 l 1x70
EndSplineSet
EndChar

StartChar: en
Encoding: 8211 8211 185
Width: 500
GlyphClass: 2
Flags: W
HStem: 264 88<0 500>
LayerCount: 2
Fore
SplineSet
500 264 m 1
 0 264 l 1
 0 352 l 1
 500 352 l 1
 500 264 l 1
EndSplineSet
EndChar

StartChar: em
Encoding: 8212 8212 186
Width: 1000
GlyphClass: 2
Flags: W
HStem: 264 88<0 1000>
LayerCount: 2
Fore
SplineSet
1000 264 m 1
 0 264 l 1
 0 352 l 1
 1000 352 l 1
 1000 264 l 1
EndSplineSet
EndChar

StartChar: quoteleft
Encoding: 8216 8216 187
Width: 241
GlyphClass: 2
Flags: W
HStem: 523 233
VStem: 81 88<592.255 698>
LayerCount: 2
Fore
SplineSet
248 617 m 1
 229.333333333 605.666666667 210.833333333 590.333333333 192.5 571 c 0
 174.166666667 551.666666667 162 535.666666667 156 523 c 1
 106 551.666666667 81 583.666666667 81 619 c 0
 81 645.666666667 95.6666666667 676 125 710 c 0
 151.666666667 740 170.333333333 755.333333333 181 756 c 0
 188.333333333 756 192 752 192 744 c 0
 192 741.333333333 188.166666667 735 180.5 725 c 0
 172.833333333 715 169 704 169 692 c 0
 169 664.666666667 195.333333333 639.666666667 248 617 c 1
EndSplineSet
EndChar

StartChar: quoteright
Encoding: 8217 8217 188
Width: 241
GlyphClass: 2
Flags: W
HStem: 523 233
VStem: 101 88<581 687.243>
LayerCount: 2
Fore
SplineSet
189 660 m 0
 189 632.666666667 174 602.333333333 144 569 c 0
 117.333333333 538.333333333 98.6666666667 523 88 523 c 0
 81.3333333333 523 78 527 78 535 c 0
 78 537 81.8333333333 543.166666667 89.5 553.5 c 0
 97.1666666667 563.833333333 101 575 101 587 c 0
 101 613 74.6666666667 638.333333333 22 663 c 1
 40 673.666666667 58.6666666667 688.666666667 78 708 c 0
 96 726.666666667 108 742.666666667 114 756 c 1
 164 728.666666667 189 696.666666667 189 660 c 0
EndSplineSet
EndChar

StartChar: quotesinglbase
Encoding: 8218 8218 189
Width: 214
GlyphClass: 2
Flags: W
HStem: 12 100<53.0182 114>
VStem: 115 64<-65.77 24.6744>
LayerCount: 2
Fore
SplineSet
179 18 m 0
 179 -23.3333333333 164 -63.3333333333 134 -102 c 0
 121.333333333 -118 99.6666666667 -139.666666667 69 -167 c 1
 32 -159 l 1
 64.6666666667 -120.333333333 82 -99.6666666667 84 -97 c 0
 104.666666667 -67 115 -37.3333333333 115 -8 c 0
 115 -6 114.833333333 -2.5 114.5 2.5 c 0
 114.166666667 7.5 114 10.6666666667 114 12 c 1
 51 12 l 1
 41 22.6666666667 36 35.6666666667 36 51 c 0
 36 68.3333333333 41.5 82.8333333333 52.5 94.5 c 0
 63.5 106.166666667 78 112 96 112 c 0
 122 112 142.333333333 103.666666667 157 87 c 0
 171.666666667 70.3333333333 179 47.3333333333 179 18 c 0
EndSplineSet
EndChar

StartChar: quotedblleft
Encoding: 8220 8220 190
Width: 516
GlyphClass: 2
Flags: W
HStem: 523 233
VStem: 81 88<592.255 698> 269 87<592.006 698>
LayerCount: 2
Fore
SplineSet
436 617 m 1
 417.333333333 605.666666667 398.666666667 590.333333333 380 571 c 0
 361.333333333 551.666666667 349.333333333 535.666666667 344 523 c 1
 294 551 269 583 269 619 c 0
 269 645.666666667 283.666666667 676 313 710 c 0
 339.666666667 740 358.333333333 755.333333333 369 756 c 0
 375.666666667 756 379 752 379 744 c 0
 379 741.333333333 375.166666667 735 367.5 725 c 0
 359.833333333 715 356 704 356 692 c 0
 356 665.333333333 382.666666667 640.333333333 436 617 c 1
248 617 m 1
 229.333333333 605.666666667 210.833333333 590.333333333 192.5 571 c 0
 174.166666667 551.666666667 162 535.666666667 156 523 c 1
 106 551.666666667 81 583.666666667 81 619 c 0
 81 645.666666667 95.6666666667 676 125 710 c 0
 151.666666667 740 170.333333333 755.333333333 181 756 c 0
 188.333333333 756 192 752 192 744 c 0
 192 741.333333333 188.166666667 735 180.5 725 c 0
 172.833333333 715 169 704 169 692 c 0
 169 664.666666667 195.333333333 639.666666667 248 617 c 1
EndSplineSet
EndChar

StartChar: quotedblright
Encoding: 8221 8221 191
Width: 397
GlyphClass: 2
Flags: W
HStem: 523 233
VStem: 101 88<581 687.243> 288 88<581 687.492>
LayerCount: 2
Fore
SplineSet
376 660 m 0
 376 632.666666667 361.333333333 602.333333333 332 569 c 0
 305.333333333 538.333333333 286.666666667 523 276 523 c 0
 269.333333333 523 266 527 266 535 c 0
 266 537 269.666666667 543.166666667 277 553.5 c 0
 284.333333333 563.833333333 288 575 288 587 c 0
 288 613 261.666666667 638.333333333 209 663 c 1
 227.666666667 673.666666667 246.333333333 688.666666667 265 708 c 0
 283.666666667 727.333333333 295.666666667 743.333333333 301 756 c 1
 351 729.333333333 376 697.333333333 376 660 c 0
189 660 m 0
 189 632.666666667 174 602.333333333 144 569 c 0
 117.333333333 538.333333333 98.6666666667 523 88 523 c 0
 81.3333333333 523 78 527 78 535 c 0
 78 537 81.8333333333 543.166666667 89.5 553.5 c 0
 97.1666666667 563.833333333 101 575 101 587 c 0
 101 613 74.6666666667 638.333333333 22 663 c 1
 40 673.666666667 58.6666666667 688.666666667 78 708 c 0
 96 726.666666667 108 742.666666667 114 756 c 1
 164 728.666666667 189 696.666666667 189 660 c 0
EndSplineSet
EndChar

StartChar: doublecomma
Encoding: 8222 8222 192
Width: 397
GlyphClass: 2
Flags: W
HStem: -64 232
VStem: 101 88<-6 99.853> 288 88<-6 100.102>
LayerCount: 2
Fore
SplineSet
376 73 m 0
 376 45.6666666667 361.333333333 15 332 -19 c 0
 305.333333333 -49 286.666666667 -64 276 -64 c 0
 272.666666667 -64 270.166666667 -63.3333333333 268.5 -62 c 0
 266.833333333 -60.6666666667 266 -57.6666666667 266 -53 c 0
 266 -50.3333333333 269.666666667 -43.8333333333 277 -33.5 c 0
 284.333333333 -23.1666666667 288 -12 288 0 c 0
 288 27.3333333333 261.666666667 52.3333333333 209 75 c 1
 227.666666667 86.3333333333 246.333333333 101.5 265 120.5 c 0
 283.666666667 139.5 295.666666667 155.333333333 301 168 c 1
 351 141.333333333 376 109.666666667 376 73 c 0
189 73 m 0
 189 45.6666666667 174 15 144 -19 c 0
 117.333333333 -49 98.6666666667 -64 88 -64 c 0
 84.6666666667 -64 82.1666666667 -63.3333333333 80.5 -62 c 0
 78.8333333333 -60.6666666667 78 -57.6666666667 78 -53 c 0
 78 -50.3333333333 81.8333333333 -43.8333333333 89.5 -33.5 c 0
 97.1666666667 -23.1666666667 101 -12 101 0 c 0
 101 27.3333333333 74.6666666667 52.3333333333 22 75 c 1
 40 86.3333333333 58.6666666667 101.666666667 78 121 c 0
 96 139.666666667 108 155.333333333 114 168 c 1
 164 140.666666667 189 109 189 73 c 0
EndSplineSet
EndChar

StartChar: dagger
Encoding: 8224 8224 193
Width: 500
GlyphClass: 2
Flags: W
HStem: 435 93<77.8298 113.675 386.5 422.17>
VStem: 203 94<617.5 653.319> 243 14<-129 -61.7045>
LayerCount: 2
Fore
SplineSet
297 642 m 1xc0
 257 502 l 1
 243 502 l 1xa0
 203 642 l 1
 250 718 l 1
 297 642 l 1xc0
486 481 m 1
 411 435 l 1
 271 474 l 1
 271 488 l 1
 411 528 l 1
 486 481 l 1
230 474 m 1
 89 435 l 1
 14 481 l 1
 89 528 l 1
 230 488 l 1
 230 474 l 1
301 294 m 1
 257 -129 l 1
 243 -129 l 1
 199 294 l 1
 243 460 l 1
 257 460 l 1
 301 294 l 1
EndSplineSet
EndChar

StartChar: daggerdbl
Encoding: 8225 8225 194
Width: 500
GlyphClass: 2
Flags: W
HStem: 59 93<77.8298 114.308 385.872 422.17> 435 93<77.8298 113.675 386.5 422.17>
VStem: 204 93<-66.3191 -30.5 617.5 653.319>
LayerCount: 2
Fore
SplineSet
297 642 m 1
 257 502 l 1
 243 502 l 1
 204 642 l 1
 250 718 l 1
 297 642 l 1
486 481 m 1
 411 435 l 1
 271 474 l 1
 271 488 l 1
 411 528 l 1
 486 481 l 1
230 474 m 1
 89 435 l 1
 14 481 l 1
 89 528 l 1
 230 488 l 1
 230 474 l 1
309 293 m 1
 257 127 l 1
 243 127 l 1
 190 294 l 1
 243 460 l 1
 257 460 l 1
 309 293 l 1
486 106 m 1
 411 59 l 1
 271 98 l 1
 271 113 l 1
 411 152 l 1
 486 106 l 1
230 98 m 1
 89 59 l 1
 14 106 l 1
 89 152 l 1
 230 113 l 1
 230 98 l 1
297 -55 m 1
 250 -131 l 1
 204 -55 l 1
 243 85 l 1
 257 85 l 1
 297 -55 l 1
EndSplineSet
EndChar

StartChar: bullet
Encoding: 8226 8226 195
Width: 372
GlyphClass: 2
Flags: W
HStem: 229 273<111.449 260.551>
VStem: 49 274<290.719 439.551>
LayerCount: 2
Fore
SplineSet
323 365 m 256
 323 327 309.666666667 294.833333333 283 268.5 c 0
 256.333333333 242.166666667 224 229 186 229 c 256
 148 229 115.666666667 242.166666667 89 268.5 c 0
 62.3333333333 294.833333333 49 327 49 365 c 256
 49 403 62.3333333333 435.333333333 89 462 c 0
 115.666666667 488.666666667 148 502 186 502 c 256
 224 502 256.333333333 488.666666667 283 462 c 0
 309.666666667 435.333333333 323 403 323 365 c 256
EndSplineSet
EndChar

StartChar: ellipsis
Encoding: 8230 8230 196
Width: 1000
GlyphClass: 2
Flags: W
HStem: -8 134<120.111 213.889 453.111 546.889 787.111 880.889>
VStem: 100 134<12.1115 105.889> 433 134<12.1115 105.889> 767 134<12.1115 105.889>
LayerCount: 2
Fore
SplineSet
901 59 m 0
 901 40.3333333333 894.5 24.5 881.5 11.5 c 0
 868.5 -1.5 852.666666667 -8 834 -8 c 0
 815.333333333 -8 799.5 -1.5 786.5 11.5 c 0
 773.5 24.5 767 40.3333333333 767 59 c 256
 767 77.6666666667 773.333333333 93.5 786 106.5 c 0
 798.666666667 119.5 814.333333333 126 833 126 c 256
 851.666666667 126 867.666666667 119.333333333 881 106 c 0
 894.333333333 92.6666666667 901 77 901 59 c 0
567 59 m 0
 567 40.3333333333 560.5 24.5 547.5 11.5 c 0
 534.5 -1.5 518.666666667 -8 500 -8 c 0
 481.333333333 -8 465.5 -1.5 452.5 11.5 c 0
 439.5 24.5 433 40.3333333333 433 59 c 256
 433 77.6666666667 439.5 93.5 452.5 106.5 c 0
 465.5 119.5 481.333333333 126 500 126 c 256
 518.666666667 126 534.5 119.5 547.5 106.5 c 0
 560.5 93.5 567 77.6666666667 567 59 c 0
234 59 m 256
 234 40.3333333333 227.5 24.5 214.5 11.5 c 0
 201.5 -1.5 185.666666667 -8 167 -8 c 256
 148.333333333 -8 132.5 -1.5 119.5 11.5 c 0
 106.5 24.5 100 40.3333333333 100 59 c 256
 100 77.6666666667 106.5 93.5 119.5 106.5 c 0
 132.5 119.5 148.333333333 126 167 126 c 256
 185.666666667 126 201.5 119.5 214.5 106.5 c 0
 227.5 93.5 234 77.6666666667 234 59 c 256
EndSplineSet
EndChar

